M48
; DRILL file {KiCad (6.0.4)} date Mon Apr 25 08:26:34 2022
; FORMAT={-:-/ absolute / metric / decimal}
; #@! TF.CreationDate,2022-04-25T08:26:34+09:00
; #@! TF.GenerationSoftware,Kicad,Pcbnew,(6.0.4)
; #@! TF.FileFunction,Plated,1,2,PTH
FMAT,2
METRIC
; #@! TA.AperFunction,Plated,PTH,ViaDrill
T1C0.400
; #@! TA.AperFunction,Plated,PTH,ComponentDrill
T2C0.600
; #@! TA.AperFunction,Plated,PTH,ComponentDrill
T3C0.700
; #@! TA.AperFunction,Plated,PTH,ComponentDrill
T4C0.800
; #@! TA.AperFunction,Plated,PTH,ComponentDrill
T5C0.890
; #@! TA.AperFunction,Plated,PTH,ComponentDrill
T6C0.900
; #@! TA.AperFunction,Plated,PTH,ComponentDrill
T7C1.000
; #@! TA.AperFunction,Plated,PTH,ComponentDrill
T8C1.100
; #@! TA.AperFunction,Plated,PTH,ComponentDrill
T9C1.200
; #@! TA.AperFunction,Plated,PTH,ComponentDrill
T10C1.500
; #@! TA.AperFunction,Plated,PTH,ComponentDrill
T11C1.600
%
G90
G05
T1
X101.448Y-114.554
X101.448Y-120.091
X101.473Y-138.1
X101.498Y-130.15
X101.6Y-143.053
X101.6Y-147.676
X102.0Y-52.0
X102.54Y-115.468
X103.0Y-58.5
X103.0Y-65.0
X103.734Y-116.332
X104.038Y-99.492
X104.038Y-139.802
X104.14Y-72.39
X104.165Y-92.481
X104.902Y-119.075
X105.0Y-55.0
X105.0Y-62.0
X105.461Y-111.608
X106.375Y-112.751
X106.477Y-128.27
X107.0Y-52.0
X108.0Y-65.0
X108.001Y-146.075
X108.458Y-59.182
X108.661Y-105.054
X109.169Y-99.593
X109.703Y-110.896
X110.0Y-55.0
X110.0Y-62.0
X111.836Y-124.587
X112.0Y-52.0
X112.395Y-72.39
X112.395Y-92.5
X112.42Y-137.363
X113.0Y-65.0
X113.182Y-143.891
X113.284Y-105.131
X113.538Y-58.928
X114.148Y-117.246
X114.376Y-113.335
X115.0Y-55.0
X115.0Y-62.0
X115.672Y-148.234
X117.0Y-52.0
X117.742Y-115.43
X118.0Y-65.0
X118.364Y-59.182
X120.0Y-55.0
X120.0Y-62.0
X120.0Y-76.0
X120.0Y-83.0
X120.0Y-92.075
X120.167Y-124.612
X120.97Y-116.43
X122.0Y-52.0
X122.276Y-107.975
X123.0Y-59.182
X123.0Y-65.0
X123.596Y-73.05
X124.155Y-100.787
X124.409Y-144.577
X124.562Y-137.008
X125.0Y-55.0
X125.0Y-62.0
X125.019Y-78.588
X125.095Y-86.995
X125.374Y-102.768
X126.848Y-126.441
X126.898Y-91.796
X126.898Y-119.177
X127.0Y-52.0
X127.0Y-83.185
X127.102Y-114.554
X127.965Y-147.32
X128.0Y-59.182
X128.0Y-65.0
X128.194Y-115.697
X128.88Y-140.665
X129.254Y-116.634
X129.54Y-86.995
X129.997Y-111.862
X130.0Y-55.0
X130.0Y-62.0
X130.302Y-73.812
X130.302Y-119.024
X130.454Y-79.35
X130.886Y-113.055
X131.369Y-127.711
X132.0Y-52.0
X132.08Y-83.185
X132.08Y-91.694
X133.0Y-59.182
X133.0Y-65.0
X133.223Y-146.075
X133.629Y-105.512
X133.985Y-79.375
X133.985Y-86.995
X134.391Y-110.973
X135.0Y-55.0
X135.0Y-62.0
X135.255Y-74.93
X136.144Y-83.261
X136.271Y-124.384
X136.855Y-91.592
X137.0Y-52.0
X137.211Y-137.668
X137.312Y-99.009
X137.363Y-143.002
X137.414Y-106.477
X137.973Y-87.02
X138.0Y-56.236
X138.0Y-65.0
X138.024Y-79.4
X138.176Y-59.182
X138.328Y-117.196
X138.532Y-113.208
X140.0Y-62.0
X140.056Y-148.387
X141.621Y-89.53
X141.681Y-86.106
X141.732Y-76.911
X141.935Y-115.418
X142.24Y-81.128
X142.596Y-99.212
X144.323Y-124.46
X144.424Y-105.613
X144.882Y-89.51
X144.983Y-84.023
X145.0Y-52.0
X145.034Y-101.448
X145.085Y-80.213
X145.339Y-116.383
X145.694Y-104.292
X146.482Y-93.066
X147.472Y-86.614
X147.828Y-62.738
X148.133Y-83.16
X148.895Y-144.577
X148.996Y-136.652
X151.0Y-52.0
X151.333Y-126.746
X151.435Y-86.309
X151.435Y-89.662
X151.511Y-115.9
X151.511Y-119.456
X152.578Y-116.662
X152.654Y-147.32
X152.705Y-62.738
X153.06Y-139.421
X153.645Y-117.704
X154.076Y-93.523
X154.483Y-112.497
X154.534Y-98.806
X154.737Y-119.228
X155.219Y-71.628
X155.397Y-113.462
X155.905Y-128.067
X156.0Y-59.0
X156.845Y-66.218
X157.556Y-146.126
X158.0Y-52.0
X158.598Y-111.15
X159.055Y-105.689
X159.106Y-62.687
X159.258Y-92.202
X159.512Y-71.577
X159.512Y-98.704
X160.782Y-124.46
X161.0Y-59.0
X161.29Y-66.218
X161.696Y-137.617
X161.798Y-89.6
X162.306Y-117.221
X162.56Y-143.764
X162.89Y-113.411
X164.389Y-62.738
X164.897Y-148.361
X165.227Y-97.231
X165.735Y-66.218
X166.0Y-52.0
X166.0Y-59.0
X166.37Y-115.519
X167.31Y-93.91
X167.894Y-71.12
X167.894Y-82.753
X168.656Y-105.994
X168.783Y-124.485
X169.506Y-116.511
X169.672Y-100.076
X170.18Y-66.218
X171.602Y-62.128
X171.602Y-86.055
X172.212Y-71.12
X173.228Y-82.855
X173.228Y-144.577
X173.33Y-137.262
X173.56Y-91.04
X174.0Y-51.918
X174.188Y-56.642
X174.625Y-66.218
X175.311Y-89.154
X175.463Y-118.974
X175.514Y-126.543
X175.565Y-113.843
X176.53Y-71.12
X176.53Y-86.055
X176.638Y-114.789
X177.063Y-148.463
X177.292Y-82.956
X177.495Y-115.976
X177.597Y-139.598
X178.511Y-119.583
X178.816Y-93.472
X179.07Y-66.218
X179.222Y-89.205
X179.273Y-112.09
X179.984Y-128.473
X180.061Y-112.954
X180.188Y-73.508
X180.594Y-86.208
X180.594Y-100.076
X181.458Y-51.867
X181.661Y-59.385
X181.915Y-146.355
X182.169Y-104.8
X182.626Y-71.069
X183.286Y-111.277
X183.515Y-66.218
X183.947Y-89.205
X184.607Y-78.08
X184.658Y-96.012
X184.937Y-124.358
X186.08Y-91.034
X186.258Y-105.893
X186.334Y-100.076
X186.436Y-92.659
X186.69Y-143.815
X186.944Y-75.946
X186.944Y-117.348
X187.096Y-136.728
X187.122Y-113.309
X187.858Y-56.947
X187.96Y-66.218
X189.509Y-148.412
X189.992Y-83.312
X190.348Y-115.418
X190.5Y-71.882
X190.5Y-78.994
X192.405Y-66.218
X192.735Y-93.777
X192.938Y-124.409
X192.964Y-91.059
X193.04Y-87.782
X193.218Y-104.267
X194.107Y-115.799
X194.31Y-76.708
X194.31Y-82.804
X194.488Y-107.036
X194.564Y-69.596
X194.97Y-53.899
X194.97Y-58.572
X197.358Y-136.804
X197.358Y-144.78
X197.866Y-64.516
X197.866Y-71.12
X197.866Y-78.232
X197.866Y-86.36
X197.866Y-93.37
X197.866Y-99.009
T2
X141.815Y-56.228
X143.815Y-56.228
X163.449Y-54.243
X163.449Y-56.243
T3
X107.488Y-120.625
X109.363Y-125.882
X109.372Y-123.241
X109.388Y-120.625
X114.443Y-125.882
X114.452Y-123.241
X117.45Y-123.292
X117.45Y-125.908
X122.53Y-123.292
X122.53Y-125.908
X124.511Y-134.544
X124.511Y-139.624
X124.511Y-141.961
X124.511Y-147.041
X132.228Y-120.599
X133.731Y-123.114
X133.747Y-125.654
X134.128Y-120.599
X138.811Y-123.114
X138.827Y-125.654
X141.58Y-123.139
X141.589Y-125.679
X146.66Y-123.139
X146.669Y-125.679
X148.768Y-141.935
X148.768Y-147.015
X148.844Y-134.163
X148.844Y-139.243
X156.764Y-120.828
X158.166Y-123.241
X158.182Y-125.689
X158.664Y-120.828
X163.246Y-123.241
X163.262Y-125.689
X166.167Y-123.292
X166.172Y-125.689
X169.113Y-62.179
X171.247Y-123.292
X171.252Y-125.689
X173.228Y-134.112
X173.228Y-139.192
X173.279Y-141.935
X173.279Y-147.015
X174.193Y-62.179
X180.996Y-120.65
X182.261Y-125.73
X182.27Y-123.063
X182.896Y-120.65
X187.341Y-125.73
X187.35Y-123.063
X190.221Y-123.114
X190.221Y-125.73
X195.301Y-123.114
X195.301Y-125.73
X197.206Y-142.088
X197.206Y-147.168
X197.256Y-134.163
X197.256Y-139.243
T4
X106.172Y-107.177
X106.172Y-109.677
X106.731Y-123.261
X106.731Y-125.761
X109.169Y-113.761
X109.169Y-116.261
X111.501Y-109.677
X114.001Y-109.677
X120.396Y-108.427
X120.396Y-110.927
X120.568Y-120.777
X123.068Y-120.777
X124.054Y-104.566
X124.054Y-107.066
X124.511Y-127.477
X124.511Y-129.977
X125.603Y-120.797
X125.603Y-123.297
X130.988Y-107.1
X130.988Y-109.6
X131.369Y-123.108
X131.369Y-125.608
X133.325Y-113.812
X133.325Y-116.312
X135.758Y-109.626
X138.258Y-109.626
X144.602Y-108.326
X144.602Y-110.826
X144.851Y-120.675
X147.351Y-120.675
X148.26Y-104.465
X148.26Y-106.965
X148.946Y-127.5
X148.946Y-130.0
X149.936Y-120.518
X149.936Y-123.018
X155.473Y-107.354
X155.473Y-109.854
X156.032Y-123.235
X156.032Y-125.735
X157.734Y-113.964
X157.734Y-116.464
X160.116Y-109.89
X162.616Y-109.89
X168.961Y-108.544
X168.961Y-111.044
X169.26Y-120.812
X171.76Y-120.812
X172.339Y-104.871
X172.339Y-107.371
X173.38Y-127.5
X173.38Y-130.0
X174.142Y-120.848
X174.142Y-123.348
X179.781Y-123.058
X179.781Y-125.558
X180.035Y-107.354
X180.035Y-109.854
X181.991Y-113.665
X181.991Y-116.165
X184.424Y-109.855
X186.924Y-109.855
X193.167Y-108.585
X193.167Y-111.085
X193.466Y-120.904
X195.966Y-120.904
X197.028Y-104.236
X197.028Y-106.736
X197.358Y-127.5
X197.358Y-130.0
X197.993Y-120.949
X197.993Y-123.449
T5
X105.816Y-143.427
X108.356Y-141.907
X115.926Y-143.427
X118.466Y-141.907
X130.606Y-143.198
X133.146Y-141.678
X140.716Y-143.198
X143.256Y-141.678
X155.016Y-143.259
X157.556Y-141.739
X165.126Y-143.259
X167.666Y-141.739
X179.476Y-143.3
X182.016Y-141.78
X189.586Y-143.3
X192.126Y-141.78
T6
X107.696Y-132.187
X108.966Y-129.647
X110.236Y-132.187
X111.506Y-129.647
X112.776Y-132.187
X114.046Y-129.647
X115.316Y-132.187
X116.586Y-129.647
X132.486Y-131.958
X133.756Y-129.418
X135.026Y-131.958
X136.296Y-129.418
X137.566Y-131.958
X138.836Y-129.418
X140.106Y-131.958
X141.376Y-129.418
X156.896Y-132.019
X158.166Y-129.479
X159.436Y-132.019
X160.706Y-129.479
X161.976Y-132.019
X163.246Y-129.479
X164.516Y-132.019
X165.786Y-129.479
X177.775Y-62.205
X180.315Y-62.205
X181.356Y-132.06
X182.626Y-129.52
X183.896Y-132.06
X185.166Y-129.52
X186.436Y-132.06
X187.706Y-129.52
X188.976Y-132.06
X190.246Y-129.52
T7
X164.008Y-73.203
X164.008Y-75.743
X164.008Y-78.283
X164.008Y-80.823
X164.008Y-83.363
X164.008Y-85.903
X164.008Y-88.443
X164.008Y-90.983
X164.008Y-93.523
T8
X150.927Y-56.236
X153.467Y-56.236
X156.007Y-56.236
T9
X169.108Y-56.642
X179.268Y-56.642
T10
X124.054Y-111.621
X124.054Y-116.521
X148.361Y-111.393
X148.361Y-116.293
X172.517Y-111.723
X172.517Y-116.623
X197.028Y-111.393
X197.028Y-116.293
T11
X104.366Y-135.477
X119.916Y-135.477
X129.156Y-135.248
X144.706Y-135.248
X153.566Y-135.309
X169.116Y-135.309
X178.026Y-135.35
X193.576Y-135.35
T7
X184.81Y-58.602G85X184.81Y-56.002
G05
X186.61Y-52.502G85X188.81Y-52.502
G05
X191.11Y-58.402G85X191.11Y-56.202
G05
T0
M30
