%FSLAX45Y45*%
G04 Gerber Fmt 4.5, Leading zero omitted, Abs format (unit mm)*
G04 Created by KiCad (PCBNEW (6.0.4)) date 2022-04-25 08:26:35*
%MOMM*%
%LPD*%
G01*
G04 APERTURE LIST*
%TA.AperFunction,Profile*%
%ADD10C,0.100000*%
%TD*%
%ADD11C,0.200000*%
%ADD12C,0.040000*%
%ADD13C,0.060000*%
%ADD14C,0.070000*%
%ADD15C,0.080000*%
%ADD16C,0.089000*%
%ADD17C,0.090000*%
%ADD18C,0.100000*%
%ADD19C,0.110000*%
%ADD20C,0.120000*%
%ADD21C,0.150000*%
%ADD22C,0.160000*%
G04 APERTURE END LIST*
D10*
X10000000Y-15000000D02*
X20000000Y-15000000D01*
X20000000Y-15000000D02*
X20000000Y-5000000D01*
X10000000Y-5000000D02*
X10000000Y-7350000D01*
X20000000Y-5000000D02*
X10000000Y-5000000D01*
X11800000Y-7350000D02*
X11800000Y-9100000D01*
X11800000Y-9100000D02*
X10000000Y-9100000D01*
X10000000Y-7350000D02*
X11800000Y-7350000D01*
X10000000Y-9100000D02*
X10000000Y-15000000D01*
D11*
D12*
X10124760Y-11435400D02*
X10164760Y-11475400D01*
X10164760Y-11435400D02*
X10124760Y-11475400D01*
X10124760Y-11989120D02*
X10164760Y-12029120D01*
X10164760Y-11989120D02*
X10124760Y-12029120D01*
X10127300Y-13789980D02*
X10167300Y-13829980D01*
X10167300Y-13789980D02*
X10127300Y-13829980D01*
X10129840Y-12994960D02*
X10169840Y-13034960D01*
X10169840Y-12994960D02*
X10129840Y-13034960D01*
X10140000Y-14285280D02*
X10180000Y-14325280D01*
X10180000Y-14285280D02*
X10140000Y-14325280D01*
X10140000Y-14747560D02*
X10180000Y-14787560D01*
X10180000Y-14747560D02*
X10140000Y-14787560D01*
X10180000Y-5180000D02*
X10220000Y-5220000D01*
X10220000Y-5180000D02*
X10180000Y-5220000D01*
X10233980Y-11526840D02*
X10273980Y-11566840D01*
X10273980Y-11526840D02*
X10233980Y-11566840D01*
X10280000Y-5830000D02*
X10320000Y-5870000D01*
X10320000Y-5830000D02*
X10280000Y-5870000D01*
X10280000Y-6480000D02*
X10320000Y-6520000D01*
X10320000Y-6480000D02*
X10280000Y-6520000D01*
X10353360Y-11613200D02*
X10393360Y-11653200D01*
X10393360Y-11613200D02*
X10353360Y-11653200D01*
X10383840Y-9929180D02*
X10423840Y-9969180D01*
X10423840Y-9929180D02*
X10383840Y-9969180D01*
X10383840Y-13960160D02*
X10423840Y-14000160D01*
X10423840Y-13960160D02*
X10383840Y-14000160D01*
X10394000Y-7219000D02*
X10434000Y-7259000D01*
X10434000Y-7219000D02*
X10394000Y-7259000D01*
X10396540Y-9228140D02*
X10436540Y-9268140D01*
X10436540Y-9228140D02*
X10396540Y-9268140D01*
X10470200Y-11887520D02*
X10510200Y-11927520D01*
X10510200Y-11887520D02*
X10470200Y-11927520D01*
X10480000Y-5480000D02*
X10520000Y-5520000D01*
X10520000Y-5480000D02*
X10480000Y-5520000D01*
X10480000Y-6180000D02*
X10520000Y-6220000D01*
X10520000Y-6180000D02*
X10480000Y-6220000D01*
X10526080Y-11140760D02*
X10566080Y-11180760D01*
X10566080Y-11140760D02*
X10526080Y-11180760D01*
X10617520Y-11255060D02*
X10657520Y-11295060D01*
X10657520Y-11255060D02*
X10617520Y-11295060D01*
X10627680Y-12807000D02*
X10667680Y-12847000D01*
X10667680Y-12807000D02*
X10627680Y-12847000D01*
X10680000Y-5180000D02*
X10720000Y-5220000D01*
X10720000Y-5180000D02*
X10680000Y-5220000D01*
X10780000Y-6480000D02*
X10820000Y-6520000D01*
X10820000Y-6480000D02*
X10780000Y-6520000D01*
X10780080Y-14587540D02*
X10820080Y-14627540D01*
X10820080Y-14587540D02*
X10780080Y-14627540D01*
X10825800Y-5898200D02*
X10865800Y-5938200D01*
X10865800Y-5898200D02*
X10825800Y-5938200D01*
X10846120Y-10485440D02*
X10886120Y-10525440D01*
X10886120Y-10485440D02*
X10846120Y-10525440D01*
X10896920Y-9939340D02*
X10936920Y-9979340D01*
X10936920Y-9939340D02*
X10896920Y-9979340D01*
X10950260Y-11069640D02*
X10990260Y-11109640D01*
X10990260Y-11069640D02*
X10950260Y-11109640D01*
X10980000Y-5480000D02*
X11020000Y-5520000D01*
X11020000Y-5480000D02*
X10980000Y-5520000D01*
X10980000Y-6180000D02*
X11020000Y-6220000D01*
X11020000Y-6180000D02*
X10980000Y-6220000D01*
X11163620Y-12438700D02*
X11203620Y-12478700D01*
X11203620Y-12438700D02*
X11163620Y-12478700D01*
X11180000Y-5180000D02*
X11220000Y-5220000D01*
X11220000Y-5180000D02*
X11180000Y-5220000D01*
X11219500Y-7219000D02*
X11259500Y-7259000D01*
X11259500Y-7219000D02*
X11219500Y-7259000D01*
X11219500Y-9230000D02*
X11259500Y-9270000D01*
X11259500Y-9230000D02*
X11219500Y-9270000D01*
X11222040Y-13716320D02*
X11262040Y-13756320D01*
X11262040Y-13716320D02*
X11222040Y-13756320D01*
X11280000Y-6480000D02*
X11320000Y-6520000D01*
X11320000Y-6480000D02*
X11280000Y-6520000D01*
X11298240Y-14369100D02*
X11338240Y-14409100D01*
X11338240Y-14369100D02*
X11298240Y-14409100D01*
X11308400Y-10493060D02*
X11348400Y-10533060D01*
X11348400Y-10493060D02*
X11308400Y-10533060D01*
X11333800Y-5872800D02*
X11373800Y-5912800D01*
X11373800Y-5872800D02*
X11333800Y-5912800D01*
X11394760Y-11704640D02*
X11434760Y-11744640D01*
X11434760Y-11704640D02*
X11394760Y-11744640D01*
X11417620Y-11313480D02*
X11457620Y-11353480D01*
X11457620Y-11313480D02*
X11417620Y-11353480D01*
X11480000Y-5480000D02*
X11520000Y-5520000D01*
X11520000Y-5480000D02*
X11480000Y-5520000D01*
X11480000Y-6180000D02*
X11520000Y-6220000D01*
X11520000Y-6180000D02*
X11480000Y-6220000D01*
X11547160Y-14803440D02*
X11587160Y-14843440D01*
X11587160Y-14803440D02*
X11547160Y-14843440D01*
X11680000Y-5180000D02*
X11720000Y-5220000D01*
X11720000Y-5180000D02*
X11680000Y-5220000D01*
X11754240Y-11522960D02*
X11794240Y-11562960D01*
X11794240Y-11522960D02*
X11754240Y-11562960D01*
X11780000Y-6480000D02*
X11820000Y-6520000D01*
X11820000Y-6480000D02*
X11780000Y-6520000D01*
X11816400Y-5898200D02*
X11856400Y-5938200D01*
X11856400Y-5898200D02*
X11816400Y-5938200D01*
X11980000Y-5480000D02*
X12020000Y-5520000D01*
X12020000Y-5480000D02*
X11980000Y-5520000D01*
X11980000Y-6180000D02*
X12020000Y-6220000D01*
X12020000Y-6180000D02*
X11980000Y-6220000D01*
X11980000Y-7580000D02*
X12020000Y-7620000D01*
X12020000Y-7580000D02*
X11980000Y-7620000D01*
X11980000Y-8280000D02*
X12020000Y-8320000D01*
X12020000Y-8280000D02*
X11980000Y-8320000D01*
X11980000Y-9187500D02*
X12020000Y-9227500D01*
X12020000Y-9187500D02*
X11980000Y-9227500D01*
X11996740Y-12441240D02*
X12036740Y-12481240D01*
X12036740Y-12441240D02*
X11996740Y-12481240D01*
X12077028Y-11623049D02*
X12117028Y-11663049D01*
X12117028Y-11623049D02*
X12077028Y-11663049D01*
X12180000Y-5180000D02*
X12220000Y-5220000D01*
X12220000Y-5180000D02*
X12180000Y-5220000D01*
X12207560Y-10777540D02*
X12247560Y-10817540D01*
X12247560Y-10777540D02*
X12207560Y-10817540D01*
X12280000Y-5898200D02*
X12320000Y-5938200D01*
X12320000Y-5898200D02*
X12280000Y-5938200D01*
X12280000Y-6480000D02*
X12320000Y-6520000D01*
X12320000Y-6480000D02*
X12280000Y-6520000D01*
X12339640Y-7285040D02*
X12379640Y-7325040D01*
X12379640Y-7285040D02*
X12339640Y-7325040D01*
X12395520Y-10058720D02*
X12435520Y-10098720D01*
X12435520Y-10058720D02*
X12395520Y-10098720D01*
X12420920Y-14437680D02*
X12460920Y-14477680D01*
X12460920Y-14437680D02*
X12420920Y-14477680D01*
X12436160Y-13680760D02*
X12476160Y-13720760D01*
X12476160Y-13680760D02*
X12436160Y-13720760D01*
X12480000Y-5480000D02*
X12520000Y-5520000D01*
X12520000Y-5480000D02*
X12480000Y-5520000D01*
X12480000Y-6180000D02*
X12520000Y-6220000D01*
X12520000Y-6180000D02*
X12480000Y-6220000D01*
X12481880Y-7838760D02*
X12521880Y-7878760D01*
X12521880Y-7838760D02*
X12481880Y-7878760D01*
X12489500Y-8679500D02*
X12529500Y-8719500D01*
X12529500Y-8679500D02*
X12489500Y-8719500D01*
X12517440Y-10256840D02*
X12557440Y-10296840D01*
X12557440Y-10256840D02*
X12517440Y-10296840D01*
X12664760Y-12624120D02*
X12704760Y-12664120D01*
X12704760Y-12624120D02*
X12664760Y-12664120D01*
X12669840Y-9159560D02*
X12709840Y-9199560D01*
X12709840Y-9159560D02*
X12669840Y-9199560D01*
X12669840Y-11897680D02*
X12709840Y-11937680D01*
X12709840Y-11897680D02*
X12669840Y-11937680D01*
X12680000Y-5180000D02*
X12720000Y-5220000D01*
X12720000Y-5180000D02*
X12680000Y-5220000D01*
X12680000Y-8298500D02*
X12720000Y-8338500D01*
X12720000Y-8298500D02*
X12680000Y-8338500D01*
X12690160Y-11435400D02*
X12730160Y-11475400D01*
X12730160Y-11435400D02*
X12690160Y-11475400D01*
X12776520Y-14712000D02*
X12816520Y-14752000D01*
X12816520Y-14712000D02*
X12776520Y-14752000D01*
X12780000Y-5898200D02*
X12820000Y-5938200D01*
X12820000Y-5898200D02*
X12780000Y-5938200D01*
X12780000Y-6480000D02*
X12820000Y-6520000D01*
X12820000Y-6480000D02*
X12780000Y-6520000D01*
X12799380Y-11549700D02*
X12839380Y-11589700D01*
X12839380Y-11549700D02*
X12799380Y-11589700D01*
X12867960Y-14046520D02*
X12907960Y-14086520D01*
X12907960Y-14046520D02*
X12867960Y-14086520D01*
X12905429Y-11643417D02*
X12945429Y-11683417D01*
X12945429Y-11643417D02*
X12905429Y-11683417D01*
X12934000Y-8679500D02*
X12974000Y-8719500D01*
X12974000Y-8679500D02*
X12934000Y-8719500D01*
X12979720Y-11166160D02*
X13019720Y-11206160D01*
X13019720Y-11166160D02*
X12979720Y-11206160D01*
X12980000Y-5480000D02*
X13020000Y-5520000D01*
X13020000Y-5480000D02*
X12980000Y-5520000D01*
X12980000Y-6180000D02*
X13020000Y-6220000D01*
X13020000Y-6180000D02*
X12980000Y-6220000D01*
X13010200Y-7361240D02*
X13050200Y-7401240D01*
X13050200Y-7361240D02*
X13010200Y-7401240D01*
X13010200Y-11882440D02*
X13050200Y-11922440D01*
X13050200Y-11882440D02*
X13010200Y-11922440D01*
X13025440Y-7914960D02*
X13065440Y-7954960D01*
X13065440Y-7914960D02*
X13025440Y-7954960D01*
X13068620Y-11285540D02*
X13108620Y-11325540D01*
X13108620Y-11285540D02*
X13068620Y-11325540D01*
X13116880Y-12751120D02*
X13156880Y-12791120D01*
X13156880Y-12751120D02*
X13116880Y-12791120D01*
X13180000Y-5180000D02*
X13220000Y-5220000D01*
X13220000Y-5180000D02*
X13180000Y-5220000D01*
X13188000Y-8298500D02*
X13228000Y-8338500D01*
X13228000Y-8298500D02*
X13188000Y-8338500D01*
X13188000Y-9149400D02*
X13228000Y-9189400D01*
X13228000Y-9149400D02*
X13188000Y-9189400D01*
X13280000Y-5898200D02*
X13320000Y-5938200D01*
X13320000Y-5898200D02*
X13280000Y-5938200D01*
X13280000Y-6480000D02*
X13320000Y-6520000D01*
X13320000Y-6480000D02*
X13280000Y-6520000D01*
X13302300Y-14587540D02*
X13342300Y-14627540D01*
X13342300Y-14587540D02*
X13302300Y-14627540D01*
X13342940Y-10531160D02*
X13382940Y-10571160D01*
X13382940Y-10531160D02*
X13342940Y-10571160D01*
X13378500Y-7917500D02*
X13418500Y-7957500D01*
X13418500Y-7917500D02*
X13378500Y-7957500D01*
X13378500Y-8679500D02*
X13418500Y-8719500D01*
X13418500Y-8679500D02*
X13378500Y-8719500D01*
X13419140Y-11077260D02*
X13459140Y-11117260D01*
X13459140Y-11077260D02*
X13419140Y-11117260D01*
X13480000Y-5480000D02*
X13520000Y-5520000D01*
X13520000Y-5480000D02*
X13480000Y-5520000D01*
X13480000Y-6180000D02*
X13520000Y-6220000D01*
X13520000Y-6180000D02*
X13480000Y-6220000D01*
X13505500Y-7473000D02*
X13545500Y-7513000D01*
X13545500Y-7473000D02*
X13505500Y-7513000D01*
X13594400Y-8306120D02*
X13634400Y-8346120D01*
X13634400Y-8306120D02*
X13594400Y-8346120D01*
X13607100Y-12418380D02*
X13647100Y-12458380D01*
X13647100Y-12418380D02*
X13607100Y-12458380D01*
X13665520Y-9139240D02*
X13705520Y-9179240D01*
X13705520Y-9139240D02*
X13665520Y-9179240D01*
X13680000Y-5180000D02*
X13720000Y-5220000D01*
X13720000Y-5180000D02*
X13680000Y-5220000D01*
X13701080Y-13746800D02*
X13741080Y-13786800D01*
X13741080Y-13746800D02*
X13701080Y-13786800D01*
X13711240Y-9880920D02*
X13751240Y-9920920D01*
X13751240Y-9880920D02*
X13711240Y-9920920D01*
X13716320Y-14280200D02*
X13756320Y-14320200D01*
X13756320Y-14280200D02*
X13716320Y-14320200D01*
X13721400Y-10627680D02*
X13761400Y-10667680D01*
X13761400Y-10627680D02*
X13721400Y-10667680D01*
X13777280Y-8682040D02*
X13817280Y-8722040D01*
X13817280Y-8682040D02*
X13777280Y-8722040D01*
X13780000Y-5603560D02*
X13820000Y-5643560D01*
X13820000Y-5603560D02*
X13780000Y-5643560D01*
X13780000Y-6480000D02*
X13820000Y-6520000D01*
X13820000Y-6480000D02*
X13780000Y-6520000D01*
X13782360Y-7920040D02*
X13822360Y-7960040D01*
X13822360Y-7920040D02*
X13782360Y-7960040D01*
X13797600Y-5898200D02*
X13837600Y-5938200D01*
X13837600Y-5898200D02*
X13797600Y-5938200D01*
X13812840Y-11699560D02*
X13852840Y-11739560D01*
X13852840Y-11699560D02*
X13812840Y-11739560D01*
X13833160Y-11300780D02*
X13873160Y-11340780D01*
X13873160Y-11300780D02*
X13833160Y-11340780D01*
X13980000Y-6180000D02*
X14020000Y-6220000D01*
X14020000Y-6180000D02*
X13980000Y-6220000D01*
X13985560Y-14818680D02*
X14025560Y-14858680D01*
X14025560Y-14818680D02*
X13985560Y-14858680D01*
X14142058Y-8932981D02*
X14182058Y-8972981D01*
X14182058Y-8932981D02*
X14142058Y-8972981D01*
X14148120Y-8590600D02*
X14188120Y-8630600D01*
X14188120Y-8590600D02*
X14148120Y-8630600D01*
X14153200Y-7671120D02*
X14193200Y-7711120D01*
X14193200Y-7671120D02*
X14153200Y-7711120D01*
X14173520Y-11521760D02*
X14213520Y-11561760D01*
X14213520Y-11521760D02*
X14173520Y-11561760D01*
X14204000Y-8092760D02*
X14244000Y-8132760D01*
X14244000Y-8092760D02*
X14204000Y-8132760D01*
X14239560Y-9901240D02*
X14279560Y-9941240D01*
X14279560Y-9901240D02*
X14239560Y-9941240D01*
X14412280Y-12426000D02*
X14452280Y-12466000D01*
X14452280Y-12426000D02*
X14412280Y-12466000D01*
X14422440Y-10541320D02*
X14462440Y-10581320D01*
X14462440Y-10541320D02*
X14422440Y-10581320D01*
X14468160Y-8930960D02*
X14508160Y-8970960D01*
X14508160Y-8930960D02*
X14468160Y-8970960D01*
X14478320Y-8382320D02*
X14518320Y-8422320D01*
X14518320Y-8382320D02*
X14478320Y-8422320D01*
X14480000Y-5180000D02*
X14520000Y-5220000D01*
X14520000Y-5180000D02*
X14480000Y-5220000D01*
X14483400Y-10124760D02*
X14523400Y-10164760D01*
X14523400Y-10124760D02*
X14483400Y-10164760D01*
X14488480Y-8001320D02*
X14528480Y-8041320D01*
X14528480Y-8001320D02*
X14488480Y-8041320D01*
X14513880Y-11618280D02*
X14553880Y-11658280D01*
X14553880Y-11618280D02*
X14513880Y-11658280D01*
X14549440Y-10409240D02*
X14589440Y-10449240D01*
X14589440Y-10409240D02*
X14549440Y-10449240D01*
X14628180Y-9286560D02*
X14668180Y-9326560D01*
X14668180Y-9286560D02*
X14628180Y-9326560D01*
X14727240Y-8641400D02*
X14767240Y-8681400D01*
X14767240Y-8641400D02*
X14727240Y-8681400D01*
X14762800Y-6253800D02*
X14802800Y-6293800D01*
X14802800Y-6253800D02*
X14762800Y-6293800D01*
X14793280Y-8295960D02*
X14833280Y-8335960D01*
X14833280Y-8295960D02*
X14793280Y-8335960D01*
X14869480Y-14437680D02*
X14909480Y-14477680D01*
X14909480Y-14437680D02*
X14869480Y-14477680D01*
X14879640Y-13645200D02*
X14919640Y-13685200D01*
X14919640Y-13645200D02*
X14879640Y-13685200D01*
X15080000Y-5180000D02*
X15120000Y-5220000D01*
X15120000Y-5180000D02*
X15080000Y-5220000D01*
X15113320Y-12654600D02*
X15153320Y-12694600D01*
X15153320Y-12654600D02*
X15113320Y-12694600D01*
X15123480Y-8610920D02*
X15163480Y-8650920D01*
X15163480Y-8610920D02*
X15123480Y-8650920D01*
X15123480Y-8946200D02*
X15163480Y-8986200D01*
X15163480Y-8946200D02*
X15123480Y-8986200D01*
X15131100Y-11570020D02*
X15171100Y-11610020D01*
X15171100Y-11570020D02*
X15131100Y-11610020D01*
X15131100Y-11925620D02*
X15171100Y-11965620D01*
X15171100Y-11925620D02*
X15131100Y-11965620D01*
X15237780Y-11646220D02*
X15277780Y-11686220D01*
X15277780Y-11646220D02*
X15237780Y-11686220D01*
X15245400Y-14712000D02*
X15285400Y-14752000D01*
X15285400Y-14712000D02*
X15245400Y-14752000D01*
X15250480Y-6253800D02*
X15290480Y-6293800D01*
X15290480Y-6253800D02*
X15250480Y-6293800D01*
X15286040Y-13922060D02*
X15326040Y-13962060D01*
X15326040Y-13922060D02*
X15286040Y-13962060D01*
X15344460Y-11750360D02*
X15384460Y-11790360D01*
X15384460Y-11750360D02*
X15344460Y-11790360D01*
X15387640Y-9332280D02*
X15427640Y-9372280D01*
X15427640Y-9332280D02*
X15387640Y-9372280D01*
X15428280Y-11229660D02*
X15468280Y-11269660D01*
X15468280Y-11229660D02*
X15428280Y-11269660D01*
X15433360Y-9860600D02*
X15473360Y-9900600D01*
X15473360Y-9860600D02*
X15433360Y-9900600D01*
X15453680Y-11902760D02*
X15493680Y-11942760D01*
X15493680Y-11902760D02*
X15453680Y-11942760D01*
X15501940Y-7142800D02*
X15541940Y-7182800D01*
X15541940Y-7142800D02*
X15501940Y-7182800D01*
X15519720Y-11326180D02*
X15559720Y-11366180D01*
X15559720Y-11326180D02*
X15519720Y-11366180D01*
X15570520Y-12786680D02*
X15610520Y-12826680D01*
X15610520Y-12786680D02*
X15570520Y-12826680D01*
X15580000Y-5880000D02*
X15620000Y-5920000D01*
X15620000Y-5880000D02*
X15580000Y-5920000D01*
X15664500Y-6601780D02*
X15704500Y-6641780D01*
X15704500Y-6601780D02*
X15664500Y-6641780D01*
X15735620Y-14592620D02*
X15775620Y-14632620D01*
X15775620Y-14592620D02*
X15735620Y-14632620D01*
X15780000Y-5180000D02*
X15820000Y-5220000D01*
X15820000Y-5180000D02*
X15780000Y-5220000D01*
X15839760Y-11095040D02*
X15879760Y-11135040D01*
X15879760Y-11095040D02*
X15839760Y-11135040D01*
X15885480Y-10548940D02*
X15925480Y-10588940D01*
X15925480Y-10548940D02*
X15885480Y-10588940D01*
X15890560Y-6248720D02*
X15930560Y-6288720D01*
X15930560Y-6248720D02*
X15890560Y-6288720D01*
X15905800Y-9200200D02*
X15945800Y-9240200D01*
X15945800Y-9200200D02*
X15905800Y-9240200D01*
X15931200Y-7137720D02*
X15971200Y-7177720D01*
X15971200Y-7137720D02*
X15931200Y-7177720D01*
X15931200Y-9850440D02*
X15971200Y-9890440D01*
X15971200Y-9850440D02*
X15931200Y-9890440D01*
X16058200Y-12426000D02*
X16098200Y-12466000D01*
X16098200Y-12426000D02*
X16058200Y-12466000D01*
X16080000Y-5880000D02*
X16120000Y-5920000D01*
X16120000Y-5880000D02*
X16080000Y-5920000D01*
X16109000Y-6601780D02*
X16149000Y-6641780D01*
X16149000Y-6601780D02*
X16109000Y-6641780D01*
X16149640Y-13741720D02*
X16189640Y-13781720D01*
X16189640Y-13741720D02*
X16149640Y-13781720D01*
X16159800Y-8940000D02*
X16199800Y-8980000D01*
X16199800Y-8940000D02*
X16159800Y-8980000D01*
X16210600Y-11702100D02*
X16250600Y-11742100D01*
X16250600Y-11702100D02*
X16210600Y-11742100D01*
X16236000Y-14356400D02*
X16276000Y-14396400D01*
X16276000Y-14356400D02*
X16236000Y-14396400D01*
X16269020Y-11321100D02*
X16309020Y-11361100D01*
X16309020Y-11321100D02*
X16269020Y-11361100D01*
X16418880Y-6253800D02*
X16458880Y-6293800D01*
X16458880Y-6253800D02*
X16418880Y-6293800D01*
X16469680Y-14816140D02*
X16509680Y-14856140D01*
X16509680Y-14816140D02*
X16469680Y-14856140D01*
X16502700Y-9703120D02*
X16542700Y-9743120D01*
X16542700Y-9703120D02*
X16502700Y-9743120D01*
X16553500Y-6601780D02*
X16593500Y-6641780D01*
X16593500Y-6601780D02*
X16553500Y-6641780D01*
X16580000Y-5180000D02*
X16620000Y-5220000D01*
X16620000Y-5180000D02*
X16580000Y-5220000D01*
X16580000Y-5880000D02*
X16620000Y-5920000D01*
X16620000Y-5880000D02*
X16580000Y-5920000D01*
X16617000Y-11531920D02*
X16657000Y-11571920D01*
X16657000Y-11531920D02*
X16617000Y-11571920D01*
X16711000Y-9371000D02*
X16751000Y-9411000D01*
X16751000Y-9371000D02*
X16711000Y-9411000D01*
X16769400Y-7092000D02*
X16809400Y-7132000D01*
X16809400Y-7092000D02*
X16769400Y-7132000D01*
X16769400Y-8255320D02*
X16809400Y-8295320D01*
X16809400Y-8255320D02*
X16769400Y-8295320D01*
X16845600Y-10579420D02*
X16885600Y-10619420D01*
X16885600Y-10579420D02*
X16845600Y-10619420D01*
X16858300Y-12428540D02*
X16898300Y-12468540D01*
X16898300Y-12428540D02*
X16858300Y-12468540D01*
X16930600Y-11631135D02*
X16970600Y-11671135D01*
X16970600Y-11631135D02*
X16930600Y-11671135D01*
X16947200Y-9987600D02*
X16987200Y-10027600D01*
X16987200Y-9987600D02*
X16947200Y-10027600D01*
X16998000Y-6601780D02*
X17038000Y-6641780D01*
X17038000Y-6601780D02*
X16998000Y-6641780D01*
X17140240Y-6192840D02*
X17180240Y-6232840D01*
X17180240Y-6192840D02*
X17140240Y-6232840D01*
X17140240Y-8585520D02*
X17180240Y-8625520D01*
X17180240Y-8585520D02*
X17140240Y-8625520D01*
X17201200Y-7092000D02*
X17241200Y-7132000D01*
X17241200Y-7092000D02*
X17201200Y-7132000D01*
X17302800Y-8265480D02*
X17342800Y-8305480D01*
X17342800Y-8265480D02*
X17302800Y-8305480D01*
X17302800Y-14437680D02*
X17342800Y-14477680D01*
X17342800Y-14437680D02*
X17302800Y-14477680D01*
X17312960Y-13706160D02*
X17352960Y-13746160D01*
X17352960Y-13706160D02*
X17312960Y-13746160D01*
X17336000Y-9084000D02*
X17376000Y-9124000D01*
X17376000Y-9084000D02*
X17336000Y-9124000D01*
X17380000Y-5171760D02*
X17420000Y-5211760D01*
X17420000Y-5171760D02*
X17380000Y-5211760D01*
X17398820Y-5644200D02*
X17438820Y-5684200D01*
X17438820Y-5644200D02*
X17398820Y-5684200D01*
X17442500Y-6601780D02*
X17482500Y-6641780D01*
X17482500Y-6601780D02*
X17442500Y-6641780D01*
X17511080Y-8895400D02*
X17551080Y-8935400D01*
X17551080Y-8895400D02*
X17511080Y-8935400D01*
X17526320Y-11877360D02*
X17566320Y-11917360D01*
X17566320Y-11877360D02*
X17526320Y-11917360D01*
X17531400Y-12634280D02*
X17571400Y-12674280D01*
X17571400Y-12634280D02*
X17531400Y-12674280D01*
X17536480Y-11364280D02*
X17576480Y-11404280D01*
X17576480Y-11364280D02*
X17536480Y-11404280D01*
X17633000Y-7092000D02*
X17673000Y-7132000D01*
X17673000Y-7092000D02*
X17633000Y-7132000D01*
X17633000Y-8585520D02*
X17673000Y-8625520D01*
X17673000Y-8585520D02*
X17633000Y-8625520D01*
X17643777Y-11458948D02*
X17683777Y-11498948D01*
X17683777Y-11458948D02*
X17643777Y-11498948D01*
X17686340Y-14826300D02*
X17726340Y-14866300D01*
X17726340Y-14826300D02*
X17686340Y-14866300D01*
X17709200Y-8275640D02*
X17749200Y-8315640D01*
X17749200Y-8275640D02*
X17709200Y-8315640D01*
X17729520Y-11577640D02*
X17769520Y-11617640D01*
X17769520Y-11577640D02*
X17729520Y-11617640D01*
X17739680Y-13939840D02*
X17779680Y-13979840D01*
X17779680Y-13939840D02*
X17739680Y-13979840D01*
X17831120Y-11938320D02*
X17871120Y-11978320D01*
X17871120Y-11938320D02*
X17831120Y-11978320D01*
X17861600Y-9327200D02*
X17901600Y-9367200D01*
X17901600Y-9327200D02*
X17861600Y-9367200D01*
X17887000Y-6601780D02*
X17927000Y-6641780D01*
X17927000Y-6601780D02*
X17887000Y-6641780D01*
X17902240Y-8900480D02*
X17942240Y-8940480D01*
X17942240Y-8900480D02*
X17902240Y-8940480D01*
X17907320Y-11189020D02*
X17947320Y-11229020D01*
X17947320Y-11189020D02*
X17907320Y-11229020D01*
X17978440Y-12827320D02*
X18018440Y-12867320D01*
X18018440Y-12827320D02*
X17978440Y-12867320D01*
X17986060Y-11275380D02*
X18026060Y-11315380D01*
X18026060Y-11275380D02*
X17986060Y-11315380D01*
X17998760Y-7330760D02*
X18038760Y-7370760D01*
X18038760Y-7330760D02*
X17998760Y-7370760D01*
X18039400Y-8600760D02*
X18079400Y-8640760D01*
X18079400Y-8600760D02*
X18039400Y-8640760D01*
X18039400Y-9987600D02*
X18079400Y-10027600D01*
X18079400Y-9987600D02*
X18039400Y-10027600D01*
X18125760Y-5166680D02*
X18165760Y-5206680D01*
X18165760Y-5166680D02*
X18125760Y-5206680D01*
X18146080Y-5918520D02*
X18186080Y-5958520D01*
X18186080Y-5918520D02*
X18146080Y-5958520D01*
X18171480Y-14615480D02*
X18211480Y-14655480D01*
X18211480Y-14615480D02*
X18171480Y-14655480D01*
X18196880Y-10460040D02*
X18236880Y-10500040D01*
X18236880Y-10460040D02*
X18196880Y-10500040D01*
X18242600Y-7086920D02*
X18282600Y-7126920D01*
X18282600Y-7086920D02*
X18242600Y-7126920D01*
X18308640Y-11107740D02*
X18348640Y-11147740D01*
X18348640Y-11107740D02*
X18308640Y-11147740D01*
X18331500Y-6601780D02*
X18371500Y-6641780D01*
X18371500Y-6601780D02*
X18331500Y-6641780D01*
X18374680Y-8900480D02*
X18414680Y-8940480D01*
X18414680Y-8900480D02*
X18374680Y-8940480D01*
X18440720Y-7787960D02*
X18480720Y-7827960D01*
X18480720Y-7787960D02*
X18440720Y-7827960D01*
X18445800Y-9581200D02*
X18485800Y-9621200D01*
X18485800Y-9581200D02*
X18445800Y-9621200D01*
X18473740Y-12415840D02*
X18513740Y-12455840D01*
X18513740Y-12415840D02*
X18473740Y-12455840D01*
X18588040Y-9083360D02*
X18628040Y-9123360D01*
X18628040Y-9083360D02*
X18588040Y-9123360D01*
X18605820Y-10569260D02*
X18645820Y-10609260D01*
X18645820Y-10569260D02*
X18605820Y-10609260D01*
X18613440Y-9987600D02*
X18653440Y-10027600D01*
X18653440Y-9987600D02*
X18613440Y-10027600D01*
X18623600Y-9245920D02*
X18663600Y-9285920D01*
X18663600Y-9245920D02*
X18623600Y-9285920D01*
X18649000Y-14361480D02*
X18689000Y-14401480D01*
X18689000Y-14361480D02*
X18649000Y-14401480D01*
X18674400Y-7574600D02*
X18714400Y-7614600D01*
X18714400Y-7574600D02*
X18674400Y-7614600D01*
X18674400Y-11714800D02*
X18714400Y-11754800D01*
X18714400Y-11714800D02*
X18674400Y-11754800D01*
X18689640Y-13652820D02*
X18729640Y-13692820D01*
X18729640Y-13652820D02*
X18689640Y-13692820D01*
X18692180Y-11310940D02*
X18732180Y-11350940D01*
X18732180Y-11310940D02*
X18692180Y-11350940D01*
X18765840Y-5674680D02*
X18805840Y-5714680D01*
X18805840Y-5674680D02*
X18765840Y-5714680D01*
X18776000Y-6601780D02*
X18816000Y-6641780D01*
X18816000Y-6601780D02*
X18776000Y-6641780D01*
X18930940Y-14821220D02*
X18970940Y-14861220D01*
X18970940Y-14821220D02*
X18930940Y-14861220D01*
X18979200Y-8311200D02*
X19019200Y-8351200D01*
X19019200Y-8311200D02*
X18979200Y-8351200D01*
X19014760Y-11521760D02*
X19054760Y-11561760D01*
X19054760Y-11521760D02*
X19014760Y-11561760D01*
X19030000Y-7168200D02*
X19070000Y-7208200D01*
X19070000Y-7168200D02*
X19030000Y-7208200D01*
X19030000Y-7879400D02*
X19070000Y-7919400D01*
X19070000Y-7879400D02*
X19030000Y-7919400D01*
X19220500Y-6601780D02*
X19260500Y-6641780D01*
X19260500Y-6601780D02*
X19220500Y-6641780D01*
X19253520Y-9357680D02*
X19293520Y-9397680D01*
X19293520Y-9357680D02*
X19253520Y-9397680D01*
X19273840Y-12420920D02*
X19313840Y-12460920D01*
X19313840Y-12420920D02*
X19273840Y-12460920D01*
X19276380Y-9085900D02*
X19316380Y-9125900D01*
X19316380Y-9085900D02*
X19276380Y-9125900D01*
X19284000Y-8758240D02*
X19324000Y-8798240D01*
X19324000Y-8758240D02*
X19284000Y-8798240D01*
X19301780Y-10406700D02*
X19341780Y-10446700D01*
X19341780Y-10406700D02*
X19301780Y-10446700D01*
X19390680Y-11559860D02*
X19430680Y-11599860D01*
X19430680Y-11559860D02*
X19390680Y-11599860D01*
X19411000Y-7650800D02*
X19451000Y-7690800D01*
X19451000Y-7650800D02*
X19411000Y-7690800D01*
X19411000Y-8260400D02*
X19451000Y-8300400D01*
X19451000Y-8260400D02*
X19411000Y-8300400D01*
X19428780Y-10683560D02*
X19468780Y-10723560D01*
X19468780Y-10683560D02*
X19428780Y-10723560D01*
X19436400Y-6939600D02*
X19476400Y-6979600D01*
X19476400Y-6939600D02*
X19436400Y-6979600D01*
X19477040Y-5369880D02*
X19517040Y-5409880D01*
X19517040Y-5369880D02*
X19477040Y-5409880D01*
X19477040Y-5837240D02*
X19517040Y-5877240D01*
X19517040Y-5837240D02*
X19477040Y-5877240D01*
X19715800Y-13660440D02*
X19755800Y-13700440D01*
X19755800Y-13660440D02*
X19715800Y-13700440D01*
X19715800Y-14458000D02*
X19755800Y-14498000D01*
X19755800Y-14458000D02*
X19715800Y-14498000D01*
X19766600Y-6431600D02*
X19806600Y-6471600D01*
X19806600Y-6431600D02*
X19766600Y-6471600D01*
X19766600Y-7092000D02*
X19806600Y-7132000D01*
X19806600Y-7092000D02*
X19766600Y-7132000D01*
X19766600Y-7803200D02*
X19806600Y-7843200D01*
X19806600Y-7803200D02*
X19766600Y-7843200D01*
X19766600Y-8616000D02*
X19806600Y-8656000D01*
X19806600Y-8616000D02*
X19766600Y-8656000D01*
X19766600Y-9317040D02*
X19806600Y-9357040D01*
X19806600Y-9317040D02*
X19766600Y-9357040D01*
X19766600Y-9880920D02*
X19806600Y-9920920D01*
X19806600Y-9880920D02*
X19766600Y-9920920D01*
D13*
X14211480Y-5622820D02*
G75*
G03*
X14211480Y-5622820I-30000J0D01*
G01*
X14411480Y-5622820D02*
G75*
G03*
X14411480Y-5622820I-30000J0D01*
G01*
X16374900Y-5424300D02*
G75*
G03*
X16374900Y-5424300I-30000J0D01*
G01*
X16374900Y-5624300D02*
G75*
G03*
X16374900Y-5624300I-30000J0D01*
G01*
D14*
X10748840Y-12027460D02*
X10748840Y-12097460D01*
X10713840Y-12062460D02*
X10783840Y-12062460D01*
X10936300Y-12553240D02*
X10936300Y-12623240D01*
X10901300Y-12588240D02*
X10971300Y-12588240D01*
X10937240Y-12289080D02*
X10937240Y-12359080D01*
X10902240Y-12324080D02*
X10972240Y-12324080D01*
X10938840Y-12027460D02*
X10938840Y-12097460D01*
X10903840Y-12062460D02*
X10973840Y-12062460D01*
X11444300Y-12553240D02*
X11444300Y-12623240D01*
X11409300Y-12588240D02*
X11479300Y-12588240D01*
X11445240Y-12289080D02*
X11445240Y-12359080D01*
X11410240Y-12324080D02*
X11480240Y-12324080D01*
X11744960Y-12294160D02*
X11744960Y-12364160D01*
X11709960Y-12329160D02*
X11779960Y-12329160D01*
X11744960Y-12555780D02*
X11744960Y-12625780D01*
X11709960Y-12590780D02*
X11779960Y-12590780D01*
X12252960Y-12294160D02*
X12252960Y-12364160D01*
X12217960Y-12329160D02*
X12287960Y-12329160D01*
X12252960Y-12555780D02*
X12252960Y-12625780D01*
X12217960Y-12590780D02*
X12287960Y-12590780D01*
X12451080Y-13419380D02*
X12451080Y-13489380D01*
X12416080Y-13454380D02*
X12486080Y-13454380D01*
X12451080Y-13927380D02*
X12451080Y-13997380D01*
X12416080Y-13962380D02*
X12486080Y-13962380D01*
X12451080Y-14161060D02*
X12451080Y-14231060D01*
X12416080Y-14196060D02*
X12486080Y-14196060D01*
X12451080Y-14669060D02*
X12451080Y-14739060D01*
X12416080Y-14704060D02*
X12486080Y-14704060D01*
X13222800Y-12024920D02*
X13222800Y-12094920D01*
X13187800Y-12059920D02*
X13257800Y-12059920D01*
X13373100Y-12276380D02*
X13373100Y-12346380D01*
X13338100Y-12311380D02*
X13408100Y-12311380D01*
X13374700Y-12530380D02*
X13374700Y-12600380D01*
X13339700Y-12565380D02*
X13409700Y-12565380D01*
X13412800Y-12024920D02*
X13412800Y-12094920D01*
X13377800Y-12059920D02*
X13447800Y-12059920D01*
X13881100Y-12276380D02*
X13881100Y-12346380D01*
X13846100Y-12311380D02*
X13916100Y-12311380D01*
X13882700Y-12530380D02*
X13882700Y-12600380D01*
X13847700Y-12565380D02*
X13917700Y-12565380D01*
X14157960Y-12278920D02*
X14157960Y-12348920D01*
X14122960Y-12313920D02*
X14192960Y-12313920D01*
X14158900Y-12532920D02*
X14158900Y-12602920D01*
X14123900Y-12567920D02*
X14193900Y-12567920D01*
X14665960Y-12278920D02*
X14665960Y-12348920D01*
X14630960Y-12313920D02*
X14700960Y-12313920D01*
X14666900Y-12532920D02*
X14666900Y-12602920D01*
X14631900Y-12567920D02*
X14701900Y-12567920D01*
X14876780Y-14158520D02*
X14876780Y-14228520D01*
X14841780Y-14193520D02*
X14911780Y-14193520D01*
X14876780Y-14666520D02*
X14876780Y-14736520D01*
X14841780Y-14701520D02*
X14911780Y-14701520D01*
X14884400Y-13381280D02*
X14884400Y-13451280D01*
X14849400Y-13416280D02*
X14919400Y-13416280D01*
X14884400Y-13889280D02*
X14884400Y-13959280D01*
X14849400Y-13924280D02*
X14919400Y-13924280D01*
X15676440Y-12047780D02*
X15676440Y-12117780D01*
X15641440Y-12082780D02*
X15711440Y-12082780D01*
X15816580Y-12289080D02*
X15816580Y-12359080D01*
X15781580Y-12324080D02*
X15851580Y-12324080D01*
X15818180Y-12533860D02*
X15818180Y-12603860D01*
X15783180Y-12568860D02*
X15853180Y-12568860D01*
X15866440Y-12047780D02*
X15866440Y-12117780D01*
X15831440Y-12082780D02*
X15901440Y-12082780D01*
X16324580Y-12289080D02*
X16324580Y-12359080D01*
X16289580Y-12324080D02*
X16359580Y-12324080D01*
X16326180Y-12533860D02*
X16326180Y-12603860D01*
X16291180Y-12568860D02*
X16361180Y-12568860D01*
X16616680Y-12294160D02*
X16616680Y-12364160D01*
X16581680Y-12329160D02*
X16651680Y-12329160D01*
X16617180Y-12533860D02*
X16617180Y-12603860D01*
X16582180Y-12568860D02*
X16652180Y-12568860D01*
X16911320Y-6182920D02*
X16911320Y-6252920D01*
X16876320Y-6217920D02*
X16946320Y-6217920D01*
X17124680Y-12294160D02*
X17124680Y-12364160D01*
X17089680Y-12329160D02*
X17159680Y-12329160D01*
X17125180Y-12533860D02*
X17125180Y-12603860D01*
X17090180Y-12568860D02*
X17160180Y-12568860D01*
X17322800Y-13376200D02*
X17322800Y-13446200D01*
X17287800Y-13411200D02*
X17357800Y-13411200D01*
X17322800Y-13884200D02*
X17322800Y-13954200D01*
X17287800Y-13919200D02*
X17357800Y-13919200D01*
X17327880Y-14158520D02*
X17327880Y-14228520D01*
X17292880Y-14193520D02*
X17362880Y-14193520D01*
X17327880Y-14666520D02*
X17327880Y-14736520D01*
X17292880Y-14701520D02*
X17362880Y-14701520D01*
X17419320Y-6182920D02*
X17419320Y-6252920D01*
X17384320Y-6217920D02*
X17454320Y-6217920D01*
X18099600Y-12030000D02*
X18099600Y-12100000D01*
X18064600Y-12065000D02*
X18134600Y-12065000D01*
X18226100Y-12538000D02*
X18226100Y-12608000D01*
X18191100Y-12573000D02*
X18261100Y-12573000D01*
X18227040Y-12271300D02*
X18227040Y-12341300D01*
X18192040Y-12306300D02*
X18262040Y-12306300D01*
X18289600Y-12030000D02*
X18289600Y-12100000D01*
X18254600Y-12065000D02*
X18324600Y-12065000D01*
X18734100Y-12538000D02*
X18734100Y-12608000D01*
X18699100Y-12573000D02*
X18769100Y-12573000D01*
X18735040Y-12271300D02*
X18735040Y-12341300D01*
X18700040Y-12306300D02*
X18770040Y-12306300D01*
X19022060Y-12276380D02*
X19022060Y-12346380D01*
X18987060Y-12311380D02*
X19057060Y-12311380D01*
X19022060Y-12538000D02*
X19022060Y-12608000D01*
X18987060Y-12573000D02*
X19057060Y-12573000D01*
X19530060Y-12276380D02*
X19530060Y-12346380D01*
X19495060Y-12311380D02*
X19565060Y-12311380D01*
X19530060Y-12538000D02*
X19530060Y-12608000D01*
X19495060Y-12573000D02*
X19565060Y-12573000D01*
X19720560Y-14173760D02*
X19720560Y-14243760D01*
X19685560Y-14208760D02*
X19755560Y-14208760D01*
X19720560Y-14681760D02*
X19720560Y-14751760D01*
X19685560Y-14716760D02*
X19755560Y-14716760D01*
X19725640Y-13381280D02*
X19725640Y-13451280D01*
X19690640Y-13416280D02*
X19760640Y-13416280D01*
X19725640Y-13889280D02*
X19725640Y-13959280D01*
X19690640Y-13924280D02*
X19760640Y-13924280D01*
D15*
X10645485Y-10746005D02*
X10645485Y-10689436D01*
X10588916Y-10689436D01*
X10588916Y-10746005D01*
X10645485Y-10746005D01*
X10645485Y-10996005D02*
X10645485Y-10939436D01*
X10588916Y-10939436D01*
X10588916Y-10996005D01*
X10645485Y-10996005D01*
X10701365Y-12354364D02*
X10701365Y-12297795D01*
X10644796Y-12297795D01*
X10644796Y-12354364D01*
X10701365Y-12354364D01*
X10701365Y-12604364D02*
X10701365Y-12547795D01*
X10644796Y-12547795D01*
X10644796Y-12604364D01*
X10701365Y-12604364D01*
X10945205Y-11404404D02*
X10945205Y-11347835D01*
X10888636Y-11347835D01*
X10888636Y-11404404D01*
X10945205Y-11404404D01*
X10945205Y-11654404D02*
X10945205Y-11597835D01*
X10888636Y-11597835D01*
X10888636Y-11654404D01*
X10945205Y-11654404D01*
X11178345Y-10996005D02*
X11178345Y-10939436D01*
X11121776Y-10939436D01*
X11121776Y-10996005D01*
X11178345Y-10996005D01*
X11428344Y-10996005D02*
X11428344Y-10939436D01*
X11371775Y-10939436D01*
X11371775Y-10996005D01*
X11428344Y-10996005D01*
X12067884Y-10871005D02*
X12067884Y-10814436D01*
X12011315Y-10814436D01*
X12011315Y-10871005D01*
X12067884Y-10871005D01*
X12067884Y-11121005D02*
X12067884Y-11064436D01*
X12011315Y-11064436D01*
X12011315Y-11121005D01*
X12067884Y-11121005D01*
X12085124Y-12105984D02*
X12085124Y-12049415D01*
X12028555Y-12049415D01*
X12028555Y-12105984D01*
X12085124Y-12105984D01*
X12335124Y-12105984D02*
X12335124Y-12049415D01*
X12278555Y-12049415D01*
X12278555Y-12105984D01*
X12335124Y-12105984D01*
X12433644Y-10484925D02*
X12433644Y-10428356D01*
X12377075Y-10428356D01*
X12377075Y-10484925D01*
X12433644Y-10484925D01*
X12433644Y-10734925D02*
X12433644Y-10678356D01*
X12377075Y-10678356D01*
X12377075Y-10734925D01*
X12433644Y-10734925D01*
X12479364Y-12776004D02*
X12479364Y-12719435D01*
X12422795Y-12719435D01*
X12422795Y-12776004D01*
X12479364Y-12776004D01*
X12479364Y-13026004D02*
X12479364Y-12969435D01*
X12422795Y-12969435D01*
X12422795Y-13026004D01*
X12479364Y-13026004D01*
X12588584Y-12107984D02*
X12588584Y-12051415D01*
X12532015Y-12051415D01*
X12532015Y-12107984D01*
X12588584Y-12107984D01*
X12588584Y-12357984D02*
X12588584Y-12301415D01*
X12532015Y-12301415D01*
X12532015Y-12357984D01*
X12588584Y-12357984D01*
X13127064Y-10738333D02*
X13127064Y-10681764D01*
X13070495Y-10681764D01*
X13070495Y-10738333D01*
X13127064Y-10738333D01*
X13127064Y-10988333D02*
X13127064Y-10931764D01*
X13070495Y-10931764D01*
X13070495Y-10988333D01*
X13127064Y-10988333D01*
X13165164Y-12339124D02*
X13165164Y-12282555D01*
X13108595Y-12282555D01*
X13108595Y-12339124D01*
X13165164Y-12339124D01*
X13165164Y-12589124D02*
X13165164Y-12532555D01*
X13108595Y-12532555D01*
X13108595Y-12589124D01*
X13165164Y-12589124D01*
X13360744Y-11409484D02*
X13360744Y-11352915D01*
X13304175Y-11352915D01*
X13304175Y-11409484D01*
X13360744Y-11409484D01*
X13360744Y-11659484D02*
X13360744Y-11602915D01*
X13304175Y-11602915D01*
X13304175Y-11659484D01*
X13360744Y-11659484D01*
X13604044Y-10990925D02*
X13604044Y-10934356D01*
X13547475Y-10934356D01*
X13547475Y-10990925D01*
X13604044Y-10990925D01*
X13854044Y-10990925D02*
X13854044Y-10934356D01*
X13797475Y-10934356D01*
X13797475Y-10990925D01*
X13854044Y-10990925D01*
X14488504Y-10860845D02*
X14488504Y-10804276D01*
X14431935Y-10804276D01*
X14431935Y-10860845D01*
X14488504Y-10860845D01*
X14488504Y-11110845D02*
X14488504Y-11054276D01*
X14431935Y-11054276D01*
X14431935Y-11110845D01*
X14488504Y-11110845D01*
X14513364Y-12095824D02*
X14513364Y-12039255D01*
X14456795Y-12039255D01*
X14456795Y-12095824D01*
X14513364Y-12095824D01*
X14763364Y-12095824D02*
X14763364Y-12039255D01*
X14706795Y-12039255D01*
X14706795Y-12095824D01*
X14763364Y-12095824D01*
X14854264Y-10474765D02*
X14854264Y-10418196D01*
X14797695Y-10418196D01*
X14797695Y-10474765D01*
X14854264Y-10474765D01*
X14854264Y-10724765D02*
X14854264Y-10668196D01*
X14797695Y-10668196D01*
X14797695Y-10724765D01*
X14854264Y-10724765D01*
X14922844Y-12778284D02*
X14922844Y-12721715D01*
X14866275Y-12721715D01*
X14866275Y-12778284D01*
X14922844Y-12778284D01*
X14922844Y-13028284D02*
X14922844Y-12971715D01*
X14866275Y-12971715D01*
X14866275Y-13028284D01*
X14922844Y-13028284D01*
X15021904Y-12080044D02*
X15021904Y-12023475D01*
X14965335Y-12023475D01*
X14965335Y-12080044D01*
X15021904Y-12080044D01*
X15021904Y-12330044D02*
X15021904Y-12273475D01*
X14965335Y-12273475D01*
X14965335Y-12330044D01*
X15021904Y-12330044D01*
X15575624Y-10763733D02*
X15575624Y-10707164D01*
X15519055Y-10707164D01*
X15519055Y-10763733D01*
X15575624Y-10763733D01*
X15575624Y-11013733D02*
X15575624Y-10957164D01*
X15519055Y-10957164D01*
X15519055Y-11013733D01*
X15575624Y-11013733D01*
X15631504Y-12351824D02*
X15631504Y-12295255D01*
X15574935Y-12295255D01*
X15574935Y-12351824D01*
X15631504Y-12351824D01*
X15631504Y-12601824D02*
X15631504Y-12545255D01*
X15574935Y-12545255D01*
X15574935Y-12601824D01*
X15631504Y-12601824D01*
X15801684Y-11424724D02*
X15801684Y-11368155D01*
X15745115Y-11368155D01*
X15745115Y-11424724D01*
X15801684Y-11424724D01*
X15801684Y-11674724D02*
X15801684Y-11618155D01*
X15745115Y-11618155D01*
X15745115Y-11674724D01*
X15801684Y-11674724D01*
X16039904Y-11017265D02*
X16039904Y-10960696D01*
X15983335Y-10960696D01*
X15983335Y-11017265D01*
X16039904Y-11017265D01*
X16289904Y-11017265D02*
X16289904Y-10960696D01*
X16233335Y-10960696D01*
X16233335Y-11017265D01*
X16289904Y-11017265D01*
X16924365Y-10882645D02*
X16924365Y-10826076D01*
X16867796Y-10826076D01*
X16867796Y-10882645D01*
X16924365Y-10882645D01*
X16924365Y-11132645D02*
X16924365Y-11076076D01*
X16867796Y-11076076D01*
X16867796Y-11132645D01*
X16924365Y-11132645D01*
X16954305Y-12109464D02*
X16954305Y-12052895D01*
X16897736Y-12052895D01*
X16897736Y-12109464D01*
X16954305Y-12109464D01*
X17204305Y-12109464D02*
X17204305Y-12052895D01*
X17147736Y-12052895D01*
X17147736Y-12109464D01*
X17204305Y-12109464D01*
X17262185Y-10515405D02*
X17262185Y-10458836D01*
X17205616Y-10458836D01*
X17205616Y-10515405D01*
X17262185Y-10515405D01*
X17262185Y-10765405D02*
X17262185Y-10708836D01*
X17205616Y-10708836D01*
X17205616Y-10765405D01*
X17262185Y-10765405D01*
X17366325Y-12778284D02*
X17366325Y-12721715D01*
X17309756Y-12721715D01*
X17309756Y-12778284D01*
X17366325Y-12778284D01*
X17366325Y-13028284D02*
X17366325Y-12971715D01*
X17309756Y-12971715D01*
X17309756Y-13028284D01*
X17366325Y-13028284D01*
X17442525Y-12113064D02*
X17442525Y-12056495D01*
X17385956Y-12056495D01*
X17385956Y-12113064D01*
X17442525Y-12113064D01*
X17442525Y-12363064D02*
X17442525Y-12306495D01*
X17385956Y-12306495D01*
X17385956Y-12363064D01*
X17442525Y-12363064D01*
X18006405Y-12334044D02*
X18006405Y-12277475D01*
X17949836Y-12277475D01*
X17949836Y-12334044D01*
X18006405Y-12334044D01*
X18006405Y-12584044D02*
X18006405Y-12527475D01*
X17949836Y-12527475D01*
X17949836Y-12584044D01*
X18006405Y-12584044D01*
X18031805Y-10763733D02*
X18031805Y-10707164D01*
X17975236Y-10707164D01*
X17975236Y-10763733D01*
X18031805Y-10763733D01*
X18031805Y-11013733D02*
X18031805Y-10957164D01*
X17975236Y-10957164D01*
X17975236Y-11013733D01*
X18031805Y-11013733D01*
X18227385Y-11394784D02*
X18227385Y-11338215D01*
X18170816Y-11338215D01*
X18170816Y-11394784D01*
X18227385Y-11394784D01*
X18227385Y-11644784D02*
X18227385Y-11588215D01*
X18170816Y-11588215D01*
X18170816Y-11644784D01*
X18227385Y-11644784D01*
X18470685Y-11013785D02*
X18470685Y-10957216D01*
X18414116Y-10957216D01*
X18414116Y-11013785D01*
X18470685Y-11013785D01*
X18720685Y-11013785D02*
X18720685Y-10957216D01*
X18664116Y-10957216D01*
X18664116Y-11013785D01*
X18720685Y-11013785D01*
X19344985Y-10886785D02*
X19344985Y-10830216D01*
X19288416Y-10830216D01*
X19288416Y-10886785D01*
X19344985Y-10886785D01*
X19344985Y-11136785D02*
X19344985Y-11080216D01*
X19288416Y-11080216D01*
X19288416Y-11136785D01*
X19344985Y-11136785D01*
X19374925Y-12118684D02*
X19374925Y-12062115D01*
X19318356Y-12062115D01*
X19318356Y-12118684D01*
X19374925Y-12118684D01*
X19624925Y-12118684D02*
X19624925Y-12062115D01*
X19568356Y-12062115D01*
X19568356Y-12118684D01*
X19624925Y-12118684D01*
X19731065Y-10451905D02*
X19731065Y-10395336D01*
X19674496Y-10395336D01*
X19674496Y-10451905D01*
X19731065Y-10451905D01*
X19731065Y-10701905D02*
X19731065Y-10645336D01*
X19674496Y-10645336D01*
X19674496Y-10701905D01*
X19731065Y-10701905D01*
X19764085Y-12778284D02*
X19764085Y-12721715D01*
X19707516Y-12721715D01*
X19707516Y-12778284D01*
X19764085Y-12778284D01*
X19764085Y-13028284D02*
X19764085Y-12971715D01*
X19707516Y-12971715D01*
X19707516Y-13028284D01*
X19764085Y-13028284D01*
X19827585Y-12123224D02*
X19827585Y-12066655D01*
X19771016Y-12066655D01*
X19771016Y-12123224D01*
X19827585Y-12123224D01*
X19827585Y-12373224D02*
X19827585Y-12316655D01*
X19771016Y-12316655D01*
X19771016Y-12373224D01*
X19827585Y-12373224D01*
D16*
X10581600Y-14387200D02*
X10626100Y-14342700D01*
X10581600Y-14298200D01*
X10537100Y-14342700D01*
X10581600Y-14387200D01*
X10835600Y-14235200D02*
X10880100Y-14190700D01*
X10835600Y-14146200D01*
X10791100Y-14190700D01*
X10835600Y-14235200D01*
X11592600Y-14387200D02*
X11637100Y-14342700D01*
X11592600Y-14298200D01*
X11548100Y-14342700D01*
X11592600Y-14387200D01*
X11846600Y-14235200D02*
X11891100Y-14190700D01*
X11846600Y-14146200D01*
X11802100Y-14190700D01*
X11846600Y-14235200D01*
X13060640Y-14364340D02*
X13105140Y-14319840D01*
X13060640Y-14275340D01*
X13016140Y-14319840D01*
X13060640Y-14364340D01*
X13314640Y-14212340D02*
X13359140Y-14167840D01*
X13314640Y-14123340D01*
X13270140Y-14167840D01*
X13314640Y-14212340D01*
X14071640Y-14364340D02*
X14116140Y-14319840D01*
X14071640Y-14275340D01*
X14027140Y-14319840D01*
X14071640Y-14364340D01*
X14325640Y-14212340D02*
X14370140Y-14167840D01*
X14325640Y-14123340D01*
X14281140Y-14167840D01*
X14325640Y-14212340D01*
X15501580Y-14370360D02*
X15546080Y-14325860D01*
X15501580Y-14281360D01*
X15457080Y-14325860D01*
X15501580Y-14370360D01*
X15755580Y-14218360D02*
X15800080Y-14173860D01*
X15755580Y-14129360D01*
X15711080Y-14173860D01*
X15755580Y-14218360D01*
X16512580Y-14370360D02*
X16557080Y-14325860D01*
X16512580Y-14281360D01*
X16468080Y-14325860D01*
X16512580Y-14370360D01*
X16766580Y-14218360D02*
X16811080Y-14173860D01*
X16766580Y-14129360D01*
X16722080Y-14173860D01*
X16766580Y-14218360D01*
X17947600Y-14374500D02*
X17992100Y-14330000D01*
X17947600Y-14285500D01*
X17903100Y-14330000D01*
X17947600Y-14374500D01*
X18201600Y-14222500D02*
X18246100Y-14178000D01*
X18201600Y-14133500D01*
X18157100Y-14178000D01*
X18201600Y-14222500D01*
X18958600Y-14374500D02*
X19003100Y-14330000D01*
X18958600Y-14285500D01*
X18914100Y-14330000D01*
X18958600Y-14374500D01*
X19212600Y-14222500D02*
X19257100Y-14178000D01*
X19212600Y-14133500D01*
X19168100Y-14178000D01*
X19212600Y-14222500D01*
D17*
X10724600Y-13173700D02*
X10814600Y-13263700D01*
X10814600Y-13173700D02*
X10724600Y-13263700D01*
X10814600Y-13218700D02*
G75*
G03*
X10814600Y-13218700I-45000J0D01*
G01*
X10851600Y-12919700D02*
X10941600Y-13009700D01*
X10941600Y-12919700D02*
X10851600Y-13009700D01*
X10941600Y-12964700D02*
G75*
G03*
X10941600Y-12964700I-45000J0D01*
G01*
X10978600Y-13173700D02*
X11068600Y-13263700D01*
X11068600Y-13173700D02*
X10978600Y-13263700D01*
X11068600Y-13218700D02*
G75*
G03*
X11068600Y-13218700I-45000J0D01*
G01*
X11105600Y-12919700D02*
X11195600Y-13009700D01*
X11195600Y-12919700D02*
X11105600Y-13009700D01*
X11195600Y-12964700D02*
G75*
G03*
X11195600Y-12964700I-45000J0D01*
G01*
X11232600Y-13173700D02*
X11322600Y-13263700D01*
X11322600Y-13173700D02*
X11232600Y-13263700D01*
X11322600Y-13218700D02*
G75*
G03*
X11322600Y-13218700I-45000J0D01*
G01*
X11359600Y-12919700D02*
X11449600Y-13009700D01*
X11449600Y-12919700D02*
X11359600Y-13009700D01*
X11449600Y-12964700D02*
G75*
G03*
X11449600Y-12964700I-45000J0D01*
G01*
X11486600Y-13173700D02*
X11576600Y-13263700D01*
X11576600Y-13173700D02*
X11486600Y-13263700D01*
X11576600Y-13218700D02*
G75*
G03*
X11576600Y-13218700I-45000J0D01*
G01*
X11613600Y-12919700D02*
X11703600Y-13009700D01*
X11703600Y-12919700D02*
X11613600Y-13009700D01*
X11703600Y-12964700D02*
G75*
G03*
X11703600Y-12964700I-45000J0D01*
G01*
X13203640Y-13150840D02*
X13293640Y-13240840D01*
X13293640Y-13150840D02*
X13203640Y-13240840D01*
X13293640Y-13195840D02*
G75*
G03*
X13293640Y-13195840I-45000J0D01*
G01*
X13330640Y-12896840D02*
X13420640Y-12986840D01*
X13420640Y-12896840D02*
X13330640Y-12986840D01*
X13420640Y-12941840D02*
G75*
G03*
X13420640Y-12941840I-45000J0D01*
G01*
X13457640Y-13150840D02*
X13547640Y-13240840D01*
X13547640Y-13150840D02*
X13457640Y-13240840D01*
X13547640Y-13195840D02*
G75*
G03*
X13547640Y-13195840I-45000J0D01*
G01*
X13584640Y-12896840D02*
X13674640Y-12986840D01*
X13674640Y-12896840D02*
X13584640Y-12986840D01*
X13674640Y-12941840D02*
G75*
G03*
X13674640Y-12941840I-45000J0D01*
G01*
X13711640Y-13150840D02*
X13801640Y-13240840D01*
X13801640Y-13150840D02*
X13711640Y-13240840D01*
X13801640Y-13195840D02*
G75*
G03*
X13801640Y-13195840I-45000J0D01*
G01*
X13838640Y-12896840D02*
X13928640Y-12986840D01*
X13928640Y-12896840D02*
X13838640Y-12986840D01*
X13928640Y-12941840D02*
G75*
G03*
X13928640Y-12941840I-45000J0D01*
G01*
X13965640Y-13150840D02*
X14055640Y-13240840D01*
X14055640Y-13150840D02*
X13965640Y-13240840D01*
X14055640Y-13195840D02*
G75*
G03*
X14055640Y-13195840I-45000J0D01*
G01*
X14092640Y-12896840D02*
X14182640Y-12986840D01*
X14182640Y-12896840D02*
X14092640Y-12986840D01*
X14182640Y-12941840D02*
G75*
G03*
X14182640Y-12941840I-45000J0D01*
G01*
X15644580Y-13156860D02*
X15734580Y-13246860D01*
X15734580Y-13156860D02*
X15644580Y-13246860D01*
X15734580Y-13201860D02*
G75*
G03*
X15734580Y-13201860I-45000J0D01*
G01*
X15771580Y-12902860D02*
X15861580Y-12992860D01*
X15861580Y-12902860D02*
X15771580Y-12992860D01*
X15861580Y-12947860D02*
G75*
G03*
X15861580Y-12947860I-45000J0D01*
G01*
X15898580Y-13156860D02*
X15988580Y-13246860D01*
X15988580Y-13156860D02*
X15898580Y-13246860D01*
X15988580Y-13201860D02*
G75*
G03*
X15988580Y-13201860I-45000J0D01*
G01*
X16025580Y-12902860D02*
X16115580Y-12992860D01*
X16115580Y-12902860D02*
X16025580Y-12992860D01*
X16115580Y-12947860D02*
G75*
G03*
X16115580Y-12947860I-45000J0D01*
G01*
X16152580Y-13156860D02*
X16242580Y-13246860D01*
X16242580Y-13156860D02*
X16152580Y-13246860D01*
X16242580Y-13201860D02*
G75*
G03*
X16242580Y-13201860I-45000J0D01*
G01*
X16279580Y-12902860D02*
X16369580Y-12992860D01*
X16369580Y-12902860D02*
X16279580Y-12992860D01*
X16369580Y-12947860D02*
G75*
G03*
X16369580Y-12947860I-45000J0D01*
G01*
X16406580Y-13156860D02*
X16496580Y-13246860D01*
X16496580Y-13156860D02*
X16406580Y-13246860D01*
X16496580Y-13201860D02*
G75*
G03*
X16496580Y-13201860I-45000J0D01*
G01*
X16533580Y-12902860D02*
X16623580Y-12992860D01*
X16623580Y-12902860D02*
X16533580Y-12992860D01*
X16623580Y-12947860D02*
G75*
G03*
X16623580Y-12947860I-45000J0D01*
G01*
X17732460Y-6175460D02*
X17822460Y-6265460D01*
X17822460Y-6175460D02*
X17732460Y-6265460D01*
X17822460Y-6220460D02*
G75*
G03*
X17822460Y-6220460I-45000J0D01*
G01*
X17986460Y-6175460D02*
X18076460Y-6265460D01*
X18076460Y-6175460D02*
X17986460Y-6265460D01*
X18076460Y-6220460D02*
G75*
G03*
X18076460Y-6220460I-45000J0D01*
G01*
X18090600Y-13161000D02*
X18180600Y-13251000D01*
X18180600Y-13161000D02*
X18090600Y-13251000D01*
X18180600Y-13206000D02*
G75*
G03*
X18180600Y-13206000I-45000J0D01*
G01*
X18217600Y-12907000D02*
X18307600Y-12997000D01*
X18307600Y-12907000D02*
X18217600Y-12997000D01*
X18307600Y-12952000D02*
G75*
G03*
X18307600Y-12952000I-45000J0D01*
G01*
X18344600Y-13161000D02*
X18434600Y-13251000D01*
X18434600Y-13161000D02*
X18344600Y-13251000D01*
X18434600Y-13206000D02*
G75*
G03*
X18434600Y-13206000I-45000J0D01*
G01*
X18471600Y-12907000D02*
X18561600Y-12997000D01*
X18561600Y-12907000D02*
X18471600Y-12997000D01*
X18561600Y-12952000D02*
G75*
G03*
X18561600Y-12952000I-45000J0D01*
G01*
X18598600Y-13161000D02*
X18688600Y-13251000D01*
X18688600Y-13161000D02*
X18598600Y-13251000D01*
X18688600Y-13206000D02*
G75*
G03*
X18688600Y-13206000I-45000J0D01*
G01*
X18725600Y-12907000D02*
X18815600Y-12997000D01*
X18815600Y-12907000D02*
X18725600Y-12997000D01*
X18815600Y-12952000D02*
G75*
G03*
X18815600Y-12952000I-45000J0D01*
G01*
X18852600Y-13161000D02*
X18942600Y-13251000D01*
X18942600Y-13161000D02*
X18852600Y-13251000D01*
X18942600Y-13206000D02*
G75*
G03*
X18942600Y-13206000I-45000J0D01*
G01*
X18979600Y-12907000D02*
X19069600Y-12997000D01*
X19069600Y-12907000D02*
X18979600Y-12997000D01*
X19069600Y-12952000D02*
G75*
G03*
X19069600Y-12952000I-45000J0D01*
G01*
D18*
X16350780Y-7270280D02*
X16450780Y-7370280D01*
X16450780Y-7270280D02*
X16350780Y-7370280D01*
X16400780Y-7270280D02*
X16400780Y-7370280D01*
X16350780Y-7320280D02*
X16450780Y-7320280D01*
X16350780Y-7524280D02*
X16450780Y-7624280D01*
X16450780Y-7524280D02*
X16350780Y-7624280D01*
X16400780Y-7524280D02*
X16400780Y-7624280D01*
X16350780Y-7574280D02*
X16450780Y-7574280D01*
X16350780Y-7778280D02*
X16450780Y-7878280D01*
X16450780Y-7778280D02*
X16350780Y-7878280D01*
X16400780Y-7778280D02*
X16400780Y-7878280D01*
X16350780Y-7828280D02*
X16450780Y-7828280D01*
X16350780Y-8032280D02*
X16450780Y-8132280D01*
X16450780Y-8032280D02*
X16350780Y-8132280D01*
X16400780Y-8032280D02*
X16400780Y-8132280D01*
X16350780Y-8082280D02*
X16450780Y-8082280D01*
X16350780Y-8286280D02*
X16450780Y-8386280D01*
X16450780Y-8286280D02*
X16350780Y-8386280D01*
X16400780Y-8286280D02*
X16400780Y-8386280D01*
X16350780Y-8336280D02*
X16450780Y-8336280D01*
X16350780Y-8540280D02*
X16450780Y-8640280D01*
X16450780Y-8540280D02*
X16350780Y-8640280D01*
X16400780Y-8540280D02*
X16400780Y-8640280D01*
X16350780Y-8590280D02*
X16450780Y-8590280D01*
X16350780Y-8794280D02*
X16450780Y-8894280D01*
X16450780Y-8794280D02*
X16350780Y-8894280D01*
X16400780Y-8794280D02*
X16400780Y-8894280D01*
X16350780Y-8844280D02*
X16450780Y-8844280D01*
X16350780Y-9048280D02*
X16450780Y-9148280D01*
X16450780Y-9048280D02*
X16350780Y-9148280D01*
X16400780Y-9048280D02*
X16400780Y-9148280D01*
X16350780Y-9098280D02*
X16450780Y-9098280D01*
X16350780Y-9302280D02*
X16450780Y-9402280D01*
X16450780Y-9302280D02*
X16350780Y-9402280D01*
X16400780Y-9302280D02*
X16400780Y-9402280D01*
X16350780Y-9352280D02*
X16450780Y-9352280D01*
X18431040Y-5680240D02*
X18531040Y-5780240D01*
X18531040Y-5680240D02*
X18431040Y-5780240D01*
X18481040Y-5680240D02*
X18481040Y-5780240D01*
X18431040Y-5730240D02*
X18531040Y-5730240D01*
D11*
X18521040Y-5860240D02*
X18521040Y-5600240D01*
X18441040Y-5860240D02*
X18441040Y-5600240D01*
X18521040Y-5600240D02*
G75*
G03*
X18441040Y-5600240I-40000J0D01*
G01*
X18441040Y-5860240D02*
G75*
G03*
X18521040Y-5860240I40000J0D01*
G01*
D18*
X18721040Y-5200240D02*
X18821040Y-5300240D01*
X18821040Y-5200240D02*
X18721040Y-5300240D01*
X18771040Y-5200240D02*
X18771040Y-5300240D01*
X18721040Y-5250240D02*
X18821040Y-5250240D01*
D11*
X18661040Y-5290240D02*
X18881040Y-5290240D01*
X18661040Y-5210240D02*
X18881040Y-5210240D01*
X18881040Y-5290240D02*
G75*
G03*
X18881040Y-5210240I0J40000D01*
G01*
X18661040Y-5210240D02*
G75*
G03*
X18661040Y-5290240I0J-40000D01*
G01*
D18*
X19061040Y-5680240D02*
X19161040Y-5780240D01*
X19161040Y-5680240D02*
X19061040Y-5780240D01*
X19111040Y-5680240D02*
X19111040Y-5780240D01*
X19061040Y-5730240D02*
X19161040Y-5730240D01*
D11*
X19151040Y-5840240D02*
X19151040Y-5620240D01*
X19071040Y-5840240D02*
X19071040Y-5620240D01*
X19151040Y-5620240D02*
G75*
G03*
X19071040Y-5620240I-40000J0D01*
G01*
X19071040Y-5840240D02*
G75*
G03*
X19151040Y-5840240I40000J0D01*
G01*
D19*
X15037680Y-5568560D02*
X15147680Y-5678560D01*
X15147680Y-5568560D02*
X15037680Y-5678560D01*
X15131571Y-5662451D02*
X15131571Y-5584669D01*
X15053789Y-5584669D01*
X15053789Y-5662451D01*
X15131571Y-5662451D01*
X15291680Y-5568560D02*
X15401680Y-5678560D01*
X15401680Y-5568560D02*
X15291680Y-5678560D01*
X15385571Y-5662451D02*
X15385571Y-5584669D01*
X15307789Y-5584669D01*
X15307789Y-5662451D01*
X15385571Y-5662451D01*
X15545680Y-5568560D02*
X15655680Y-5678560D01*
X15655680Y-5568560D02*
X15545680Y-5678560D01*
X15639571Y-5662451D02*
X15639571Y-5584669D01*
X15561789Y-5584669D01*
X15561789Y-5662451D01*
X15639571Y-5662451D01*
D20*
X16850820Y-5604200D02*
X16970820Y-5724200D01*
X16970820Y-5604200D02*
X16850820Y-5724200D01*
X16910820Y-5724200D02*
X16970820Y-5664200D01*
X16910820Y-5604200D01*
X16850820Y-5664200D01*
X16910820Y-5724200D01*
X17866820Y-5604200D02*
X17986820Y-5724200D01*
X17986820Y-5604200D02*
X17866820Y-5724200D01*
X17926820Y-5724200D02*
X17986820Y-5664200D01*
X17926820Y-5604200D01*
X17866820Y-5664200D01*
X17926820Y-5724200D01*
D21*
X12405360Y-11087140D02*
X12405360Y-11237140D01*
X12330360Y-11162140D02*
X12480360Y-11162140D01*
X12480360Y-11162140D02*
G75*
G03*
X12480360Y-11162140I-75000J0D01*
G01*
X12405360Y-11577140D02*
X12405360Y-11727140D01*
X12330360Y-11652140D02*
X12480360Y-11652140D01*
X12480360Y-11652140D02*
G75*
G03*
X12480360Y-11652140I-75000J0D01*
G01*
X14836140Y-11064280D02*
X14836140Y-11214280D01*
X14761140Y-11139280D02*
X14911140Y-11139280D01*
X14911140Y-11139280D02*
G75*
G03*
X14911140Y-11139280I-75000J0D01*
G01*
X14836140Y-11554280D02*
X14836140Y-11704280D01*
X14761140Y-11629280D02*
X14911140Y-11629280D01*
X14911140Y-11629280D02*
G75*
G03*
X14911140Y-11629280I-75000J0D01*
G01*
X17251680Y-11097300D02*
X17251680Y-11247300D01*
X17176680Y-11172300D02*
X17326680Y-11172300D01*
X17326680Y-11172300D02*
G75*
G03*
X17326680Y-11172300I-75000J0D01*
G01*
X17251680Y-11587300D02*
X17251680Y-11737300D01*
X17176680Y-11662300D02*
X17326680Y-11662300D01*
X17326680Y-11662300D02*
G75*
G03*
X17326680Y-11662300I-75000J0D01*
G01*
X19702780Y-11064280D02*
X19702780Y-11214280D01*
X19627780Y-11139280D02*
X19777780Y-11139280D01*
X19777780Y-11139280D02*
G75*
G03*
X19777780Y-11139280I-75000J0D01*
G01*
X19702780Y-11554280D02*
X19702780Y-11704280D01*
X19627780Y-11629280D02*
X19777780Y-11629280D01*
X19777780Y-11629280D02*
G75*
G03*
X19777780Y-11629280I-75000J0D01*
G01*
D22*
X10493169Y-13604269D02*
X10493169Y-13491131D01*
X10380031Y-13491131D01*
X10380031Y-13604269D01*
X10493169Y-13604269D01*
X10516600Y-13547700D02*
G75*
G03*
X10516600Y-13547700I-80000J0D01*
G01*
X12048169Y-13604269D02*
X12048169Y-13491131D01*
X11935031Y-13491131D01*
X11935031Y-13604269D01*
X12048169Y-13604269D01*
X12071600Y-13547700D02*
G75*
G03*
X12071600Y-13547700I-80000J0D01*
G01*
X12972209Y-13581409D02*
X12972209Y-13468271D01*
X12859071Y-13468271D01*
X12859071Y-13581409D01*
X12972209Y-13581409D01*
X12995640Y-13524840D02*
G75*
G03*
X12995640Y-13524840I-80000J0D01*
G01*
X14527209Y-13581409D02*
X14527209Y-13468271D01*
X14414071Y-13468271D01*
X14414071Y-13581409D01*
X14527209Y-13581409D01*
X14550640Y-13524840D02*
G75*
G03*
X14550640Y-13524840I-80000J0D01*
G01*
X15413149Y-13587429D02*
X15413149Y-13474291D01*
X15300011Y-13474291D01*
X15300011Y-13587429D01*
X15413149Y-13587429D01*
X15436580Y-13530860D02*
G75*
G03*
X15436580Y-13530860I-80000J0D01*
G01*
X16968149Y-13587429D02*
X16968149Y-13474291D01*
X16855011Y-13474291D01*
X16855011Y-13587429D01*
X16968149Y-13587429D01*
X16991580Y-13530860D02*
G75*
G03*
X16991580Y-13530860I-80000J0D01*
G01*
X17859169Y-13591569D02*
X17859169Y-13478431D01*
X17746031Y-13478431D01*
X17746031Y-13591569D01*
X17859169Y-13591569D01*
X17882600Y-13535000D02*
G75*
G03*
X17882600Y-13535000I-80000J0D01*
G01*
X19414169Y-13591569D02*
X19414169Y-13478431D01*
X19301031Y-13478431D01*
X19301031Y-13591569D01*
X19414169Y-13591569D01*
X19437600Y-13535000D02*
G75*
G03*
X19437600Y-13535000I-80000J0D01*
G01*
D11*
X10252619Y-15315476D02*
X10252619Y-15115476D01*
X10300238Y-15115476D01*
X10328810Y-15125000D01*
X10347857Y-15144048D01*
X10357381Y-15163095D01*
X10366905Y-15201190D01*
X10366905Y-15229762D01*
X10357381Y-15267857D01*
X10347857Y-15286905D01*
X10328810Y-15305952D01*
X10300238Y-15315476D01*
X10252619Y-15315476D01*
X10452619Y-15315476D02*
X10452619Y-15182143D01*
X10452619Y-15220238D02*
X10462143Y-15201190D01*
X10471667Y-15191667D01*
X10490714Y-15182143D01*
X10509762Y-15182143D01*
X10576429Y-15315476D02*
X10576429Y-15182143D01*
X10576429Y-15115476D02*
X10566905Y-15125000D01*
X10576429Y-15134524D01*
X10585952Y-15125000D01*
X10576429Y-15115476D01*
X10576429Y-15134524D01*
X10700238Y-15315476D02*
X10681190Y-15305952D01*
X10671667Y-15286905D01*
X10671667Y-15115476D01*
X10805000Y-15315476D02*
X10785952Y-15305952D01*
X10776429Y-15286905D01*
X10776429Y-15115476D01*
X11033571Y-15315476D02*
X11033571Y-15115476D01*
X11100238Y-15258333D01*
X11166905Y-15115476D01*
X11166905Y-15315476D01*
X11347857Y-15315476D02*
X11347857Y-15210714D01*
X11338333Y-15191667D01*
X11319286Y-15182143D01*
X11281190Y-15182143D01*
X11262143Y-15191667D01*
X11347857Y-15305952D02*
X11328809Y-15315476D01*
X11281190Y-15315476D01*
X11262143Y-15305952D01*
X11252619Y-15286905D01*
X11252619Y-15267857D01*
X11262143Y-15248809D01*
X11281190Y-15239286D01*
X11328809Y-15239286D01*
X11347857Y-15229762D01*
X11443095Y-15182143D02*
X11443095Y-15382143D01*
X11443095Y-15191667D02*
X11462143Y-15182143D01*
X11500238Y-15182143D01*
X11519286Y-15191667D01*
X11528809Y-15201190D01*
X11538333Y-15220238D01*
X11538333Y-15277381D01*
X11528809Y-15296428D01*
X11519286Y-15305952D01*
X11500238Y-15315476D01*
X11462143Y-15315476D01*
X11443095Y-15305952D01*
X11624048Y-15296428D02*
X11633571Y-15305952D01*
X11624048Y-15315476D01*
X11614524Y-15305952D01*
X11624048Y-15296428D01*
X11624048Y-15315476D01*
X11624048Y-15191667D02*
X11633571Y-15201190D01*
X11624048Y-15210714D01*
X11614524Y-15201190D01*
X11624048Y-15191667D01*
X11624048Y-15210714D01*
D12*
X9955000Y-15625000D02*
X9995000Y-15665000D01*
X9995000Y-15625000D02*
X9955000Y-15665000D01*
D11*
X10290714Y-15535476D02*
X10309762Y-15535476D01*
X10328810Y-15545000D01*
X10338333Y-15554524D01*
X10347857Y-15573571D01*
X10357381Y-15611667D01*
X10357381Y-15659286D01*
X10347857Y-15697381D01*
X10338333Y-15716428D01*
X10328810Y-15725952D01*
X10309762Y-15735476D01*
X10290714Y-15735476D01*
X10271667Y-15725952D01*
X10262143Y-15716428D01*
X10252619Y-15697381D01*
X10243095Y-15659286D01*
X10243095Y-15611667D01*
X10252619Y-15573571D01*
X10262143Y-15554524D01*
X10271667Y-15545000D01*
X10290714Y-15535476D01*
X10443095Y-15716428D02*
X10452619Y-15725952D01*
X10443095Y-15735476D01*
X10433571Y-15725952D01*
X10443095Y-15716428D01*
X10443095Y-15735476D01*
X10624048Y-15602143D02*
X10624048Y-15735476D01*
X10576429Y-15525952D02*
X10528810Y-15668809D01*
X10652619Y-15668809D01*
X10766905Y-15535476D02*
X10785952Y-15535476D01*
X10805000Y-15545000D01*
X10814524Y-15554524D01*
X10824048Y-15573571D01*
X10833571Y-15611667D01*
X10833571Y-15659286D01*
X10824048Y-15697381D01*
X10814524Y-15716428D01*
X10805000Y-15725952D01*
X10785952Y-15735476D01*
X10766905Y-15735476D01*
X10747857Y-15725952D01*
X10738333Y-15716428D01*
X10728810Y-15697381D01*
X10719286Y-15659286D01*
X10719286Y-15611667D01*
X10728810Y-15573571D01*
X10738333Y-15554524D01*
X10747857Y-15545000D01*
X10766905Y-15535476D01*
X10957381Y-15535476D02*
X10976429Y-15535476D01*
X10995476Y-15545000D01*
X11005000Y-15554524D01*
X11014524Y-15573571D01*
X11024048Y-15611667D01*
X11024048Y-15659286D01*
X11014524Y-15697381D01*
X11005000Y-15716428D01*
X10995476Y-15725952D01*
X10976429Y-15735476D01*
X10957381Y-15735476D01*
X10938333Y-15725952D01*
X10928810Y-15716428D01*
X10919286Y-15697381D01*
X10909762Y-15659286D01*
X10909762Y-15611667D01*
X10919286Y-15573571D01*
X10928810Y-15554524D01*
X10938333Y-15545000D01*
X10957381Y-15535476D01*
X11109762Y-15735476D02*
X11109762Y-15602143D01*
X11109762Y-15621190D02*
X11119286Y-15611667D01*
X11138333Y-15602143D01*
X11166905Y-15602143D01*
X11185952Y-15611667D01*
X11195476Y-15630714D01*
X11195476Y-15735476D01*
X11195476Y-15630714D02*
X11205000Y-15611667D01*
X11224048Y-15602143D01*
X11252619Y-15602143D01*
X11271667Y-15611667D01*
X11281190Y-15630714D01*
X11281190Y-15735476D01*
X11376428Y-15735476D02*
X11376428Y-15602143D01*
X11376428Y-15621190D02*
X11385952Y-15611667D01*
X11405000Y-15602143D01*
X11433571Y-15602143D01*
X11452619Y-15611667D01*
X11462143Y-15630714D01*
X11462143Y-15735476D01*
X11462143Y-15630714D02*
X11471667Y-15611667D01*
X11490714Y-15602143D01*
X11519286Y-15602143D01*
X11538333Y-15611667D01*
X11547857Y-15630714D01*
X11547857Y-15735476D01*
X11938333Y-15525952D02*
X11766905Y-15783095D01*
X12195476Y-15535476D02*
X12214524Y-15535476D01*
X12233571Y-15545000D01*
X12243095Y-15554524D01*
X12252619Y-15573571D01*
X12262143Y-15611667D01*
X12262143Y-15659286D01*
X12252619Y-15697381D01*
X12243095Y-15716428D01*
X12233571Y-15725952D01*
X12214524Y-15735476D01*
X12195476Y-15735476D01*
X12176428Y-15725952D01*
X12166905Y-15716428D01*
X12157381Y-15697381D01*
X12147857Y-15659286D01*
X12147857Y-15611667D01*
X12157381Y-15573571D01*
X12166905Y-15554524D01*
X12176428Y-15545000D01*
X12195476Y-15535476D01*
X12347857Y-15716428D02*
X12357381Y-15725952D01*
X12347857Y-15735476D01*
X12338333Y-15725952D01*
X12347857Y-15716428D01*
X12347857Y-15735476D01*
X12481190Y-15535476D02*
X12500238Y-15535476D01*
X12519286Y-15545000D01*
X12528809Y-15554524D01*
X12538333Y-15573571D01*
X12547857Y-15611667D01*
X12547857Y-15659286D01*
X12538333Y-15697381D01*
X12528809Y-15716428D01*
X12519286Y-15725952D01*
X12500238Y-15735476D01*
X12481190Y-15735476D01*
X12462143Y-15725952D01*
X12452619Y-15716428D01*
X12443095Y-15697381D01*
X12433571Y-15659286D01*
X12433571Y-15611667D01*
X12443095Y-15573571D01*
X12452619Y-15554524D01*
X12462143Y-15545000D01*
X12481190Y-15535476D01*
X12738333Y-15735476D02*
X12624048Y-15735476D01*
X12681190Y-15735476D02*
X12681190Y-15535476D01*
X12662143Y-15564048D01*
X12643095Y-15583095D01*
X12624048Y-15592619D01*
X12919286Y-15535476D02*
X12824048Y-15535476D01*
X12814524Y-15630714D01*
X12824048Y-15621190D01*
X12843095Y-15611667D01*
X12890714Y-15611667D01*
X12909762Y-15621190D01*
X12919286Y-15630714D01*
X12928809Y-15649762D01*
X12928809Y-15697381D01*
X12919286Y-15716428D01*
X12909762Y-15725952D01*
X12890714Y-15735476D01*
X12843095Y-15735476D01*
X12824048Y-15725952D01*
X12814524Y-15716428D01*
X12995476Y-15535476D02*
X13128809Y-15535476D01*
X13043095Y-15735476D01*
X13195476Y-15535476D02*
X13195476Y-15573571D01*
X13271667Y-15535476D02*
X13271667Y-15573571D01*
X13566905Y-15811667D02*
X13557381Y-15802143D01*
X13538333Y-15773571D01*
X13528809Y-15754524D01*
X13519286Y-15725952D01*
X13509762Y-15678333D01*
X13509762Y-15640238D01*
X13519286Y-15592619D01*
X13528809Y-15564048D01*
X13538333Y-15545000D01*
X13557381Y-15516428D01*
X13566905Y-15506905D01*
X13633571Y-15554524D02*
X13643095Y-15545000D01*
X13662143Y-15535476D01*
X13709762Y-15535476D01*
X13728809Y-15545000D01*
X13738333Y-15554524D01*
X13747857Y-15573571D01*
X13747857Y-15592619D01*
X13738333Y-15621190D01*
X13624048Y-15735476D01*
X13747857Y-15735476D01*
X13814524Y-15535476D02*
X13947857Y-15535476D01*
X13862143Y-15735476D01*
X14062143Y-15535476D02*
X14081190Y-15535476D01*
X14100238Y-15545000D01*
X14109762Y-15554524D01*
X14119286Y-15573571D01*
X14128809Y-15611667D01*
X14128809Y-15659286D01*
X14119286Y-15697381D01*
X14109762Y-15716428D01*
X14100238Y-15725952D01*
X14081190Y-15735476D01*
X14062143Y-15735476D01*
X14043095Y-15725952D01*
X14033571Y-15716428D01*
X14024048Y-15697381D01*
X14014524Y-15659286D01*
X14014524Y-15611667D01*
X14024048Y-15573571D01*
X14033571Y-15554524D01*
X14043095Y-15545000D01*
X14062143Y-15535476D01*
X14366905Y-15735476D02*
X14366905Y-15535476D01*
X14452619Y-15735476D02*
X14452619Y-15630714D01*
X14443095Y-15611667D01*
X14424048Y-15602143D01*
X14395476Y-15602143D01*
X14376428Y-15611667D01*
X14366905Y-15621190D01*
X14576428Y-15735476D02*
X14557381Y-15725952D01*
X14547857Y-15716428D01*
X14538333Y-15697381D01*
X14538333Y-15640238D01*
X14547857Y-15621190D01*
X14557381Y-15611667D01*
X14576428Y-15602143D01*
X14605000Y-15602143D01*
X14624048Y-15611667D01*
X14633571Y-15621190D01*
X14643095Y-15640238D01*
X14643095Y-15697381D01*
X14633571Y-15716428D01*
X14624048Y-15725952D01*
X14605000Y-15735476D01*
X14576428Y-15735476D01*
X14757381Y-15735476D02*
X14738333Y-15725952D01*
X14728809Y-15706905D01*
X14728809Y-15535476D01*
X14909762Y-15725952D02*
X14890714Y-15735476D01*
X14852619Y-15735476D01*
X14833571Y-15725952D01*
X14824048Y-15706905D01*
X14824048Y-15630714D01*
X14833571Y-15611667D01*
X14852619Y-15602143D01*
X14890714Y-15602143D01*
X14909762Y-15611667D01*
X14919286Y-15630714D01*
X14919286Y-15649762D01*
X14824048Y-15668809D01*
X14995476Y-15725952D02*
X15014524Y-15735476D01*
X15052619Y-15735476D01*
X15071667Y-15725952D01*
X15081190Y-15706905D01*
X15081190Y-15697381D01*
X15071667Y-15678333D01*
X15052619Y-15668809D01*
X15024048Y-15668809D01*
X15005000Y-15659286D01*
X14995476Y-15640238D01*
X14995476Y-15630714D01*
X15005000Y-15611667D01*
X15024048Y-15602143D01*
X15052619Y-15602143D01*
X15071667Y-15611667D01*
X15147857Y-15811667D02*
X15157381Y-15802143D01*
X15176428Y-15773571D01*
X15185952Y-15754524D01*
X15195476Y-15725952D01*
X15205000Y-15678333D01*
X15205000Y-15640238D01*
X15195476Y-15592619D01*
X15185952Y-15564048D01*
X15176428Y-15545000D01*
X15157381Y-15516428D01*
X15147857Y-15506905D01*
D13*
X9995000Y-15909000D02*
G75*
G03*
X9995000Y-15909000I-30000J0D01*
G01*
D11*
X10290714Y-15799476D02*
X10309762Y-15799476D01*
X10328810Y-15809000D01*
X10338333Y-15818524D01*
X10347857Y-15837571D01*
X10357381Y-15875667D01*
X10357381Y-15923286D01*
X10347857Y-15961381D01*
X10338333Y-15980428D01*
X10328810Y-15989952D01*
X10309762Y-15999476D01*
X10290714Y-15999476D01*
X10271667Y-15989952D01*
X10262143Y-15980428D01*
X10252619Y-15961381D01*
X10243095Y-15923286D01*
X10243095Y-15875667D01*
X10252619Y-15837571D01*
X10262143Y-15818524D01*
X10271667Y-15809000D01*
X10290714Y-15799476D01*
X10443095Y-15980428D02*
X10452619Y-15989952D01*
X10443095Y-15999476D01*
X10433571Y-15989952D01*
X10443095Y-15980428D01*
X10443095Y-15999476D01*
X10624048Y-15799476D02*
X10585952Y-15799476D01*
X10566905Y-15809000D01*
X10557381Y-15818524D01*
X10538333Y-15847095D01*
X10528810Y-15885190D01*
X10528810Y-15961381D01*
X10538333Y-15980428D01*
X10547857Y-15989952D01*
X10566905Y-15999476D01*
X10605000Y-15999476D01*
X10624048Y-15989952D01*
X10633571Y-15980428D01*
X10643095Y-15961381D01*
X10643095Y-15913762D01*
X10633571Y-15894714D01*
X10624048Y-15885190D01*
X10605000Y-15875667D01*
X10566905Y-15875667D01*
X10547857Y-15885190D01*
X10538333Y-15894714D01*
X10528810Y-15913762D01*
X10766905Y-15799476D02*
X10785952Y-15799476D01*
X10805000Y-15809000D01*
X10814524Y-15818524D01*
X10824048Y-15837571D01*
X10833571Y-15875667D01*
X10833571Y-15923286D01*
X10824048Y-15961381D01*
X10814524Y-15980428D01*
X10805000Y-15989952D01*
X10785952Y-15999476D01*
X10766905Y-15999476D01*
X10747857Y-15989952D01*
X10738333Y-15980428D01*
X10728810Y-15961381D01*
X10719286Y-15923286D01*
X10719286Y-15875667D01*
X10728810Y-15837571D01*
X10738333Y-15818524D01*
X10747857Y-15809000D01*
X10766905Y-15799476D01*
X10957381Y-15799476D02*
X10976429Y-15799476D01*
X10995476Y-15809000D01*
X11005000Y-15818524D01*
X11014524Y-15837571D01*
X11024048Y-15875667D01*
X11024048Y-15923286D01*
X11014524Y-15961381D01*
X11005000Y-15980428D01*
X10995476Y-15989952D01*
X10976429Y-15999476D01*
X10957381Y-15999476D01*
X10938333Y-15989952D01*
X10928810Y-15980428D01*
X10919286Y-15961381D01*
X10909762Y-15923286D01*
X10909762Y-15875667D01*
X10919286Y-15837571D01*
X10928810Y-15818524D01*
X10938333Y-15809000D01*
X10957381Y-15799476D01*
X11109762Y-15999476D02*
X11109762Y-15866143D01*
X11109762Y-15885190D02*
X11119286Y-15875667D01*
X11138333Y-15866143D01*
X11166905Y-15866143D01*
X11185952Y-15875667D01*
X11195476Y-15894714D01*
X11195476Y-15999476D01*
X11195476Y-15894714D02*
X11205000Y-15875667D01*
X11224048Y-15866143D01*
X11252619Y-15866143D01*
X11271667Y-15875667D01*
X11281190Y-15894714D01*
X11281190Y-15999476D01*
X11376428Y-15999476D02*
X11376428Y-15866143D01*
X11376428Y-15885190D02*
X11385952Y-15875667D01*
X11405000Y-15866143D01*
X11433571Y-15866143D01*
X11452619Y-15875667D01*
X11462143Y-15894714D01*
X11462143Y-15999476D01*
X11462143Y-15894714D02*
X11471667Y-15875667D01*
X11490714Y-15866143D01*
X11519286Y-15866143D01*
X11538333Y-15875667D01*
X11547857Y-15894714D01*
X11547857Y-15999476D01*
X11938333Y-15789952D02*
X11766905Y-16047095D01*
X12195476Y-15799476D02*
X12214524Y-15799476D01*
X12233571Y-15809000D01*
X12243095Y-15818524D01*
X12252619Y-15837571D01*
X12262143Y-15875667D01*
X12262143Y-15923286D01*
X12252619Y-15961381D01*
X12243095Y-15980428D01*
X12233571Y-15989952D01*
X12214524Y-15999476D01*
X12195476Y-15999476D01*
X12176428Y-15989952D01*
X12166905Y-15980428D01*
X12157381Y-15961381D01*
X12147857Y-15923286D01*
X12147857Y-15875667D01*
X12157381Y-15837571D01*
X12166905Y-15818524D01*
X12176428Y-15809000D01*
X12195476Y-15799476D01*
X12347857Y-15980428D02*
X12357381Y-15989952D01*
X12347857Y-15999476D01*
X12338333Y-15989952D01*
X12347857Y-15980428D01*
X12347857Y-15999476D01*
X12481190Y-15799476D02*
X12500238Y-15799476D01*
X12519286Y-15809000D01*
X12528809Y-15818524D01*
X12538333Y-15837571D01*
X12547857Y-15875667D01*
X12547857Y-15923286D01*
X12538333Y-15961381D01*
X12528809Y-15980428D01*
X12519286Y-15989952D01*
X12500238Y-15999476D01*
X12481190Y-15999476D01*
X12462143Y-15989952D01*
X12452619Y-15980428D01*
X12443095Y-15961381D01*
X12433571Y-15923286D01*
X12433571Y-15875667D01*
X12443095Y-15837571D01*
X12452619Y-15818524D01*
X12462143Y-15809000D01*
X12481190Y-15799476D01*
X12624048Y-15818524D02*
X12633571Y-15809000D01*
X12652619Y-15799476D01*
X12700238Y-15799476D01*
X12719286Y-15809000D01*
X12728809Y-15818524D01*
X12738333Y-15837571D01*
X12738333Y-15856619D01*
X12728809Y-15885190D01*
X12614524Y-15999476D01*
X12738333Y-15999476D01*
X12805000Y-15799476D02*
X12928809Y-15799476D01*
X12862143Y-15875667D01*
X12890714Y-15875667D01*
X12909762Y-15885190D01*
X12919286Y-15894714D01*
X12928809Y-15913762D01*
X12928809Y-15961381D01*
X12919286Y-15980428D01*
X12909762Y-15989952D01*
X12890714Y-15999476D01*
X12833571Y-15999476D01*
X12814524Y-15989952D01*
X12805000Y-15980428D01*
X13100238Y-15799476D02*
X13062143Y-15799476D01*
X13043095Y-15809000D01*
X13033571Y-15818524D01*
X13014524Y-15847095D01*
X13005000Y-15885190D01*
X13005000Y-15961381D01*
X13014524Y-15980428D01*
X13024048Y-15989952D01*
X13043095Y-15999476D01*
X13081190Y-15999476D01*
X13100238Y-15989952D01*
X13109762Y-15980428D01*
X13119286Y-15961381D01*
X13119286Y-15913762D01*
X13109762Y-15894714D01*
X13100238Y-15885190D01*
X13081190Y-15875667D01*
X13043095Y-15875667D01*
X13024048Y-15885190D01*
X13014524Y-15894714D01*
X13005000Y-15913762D01*
X13195476Y-15799476D02*
X13195476Y-15837571D01*
X13271667Y-15799476D02*
X13271667Y-15837571D01*
X13566905Y-16075667D02*
X13557381Y-16066143D01*
X13538333Y-16037571D01*
X13528809Y-16018524D01*
X13519286Y-15989952D01*
X13509762Y-15942333D01*
X13509762Y-15904238D01*
X13519286Y-15856619D01*
X13528809Y-15828048D01*
X13538333Y-15809000D01*
X13557381Y-15780428D01*
X13566905Y-15770905D01*
X13728809Y-15866143D02*
X13728809Y-15999476D01*
X13681190Y-15789952D02*
X13633571Y-15932809D01*
X13757381Y-15932809D01*
X13985952Y-15999476D02*
X13985952Y-15799476D01*
X14071667Y-15999476D02*
X14071667Y-15894714D01*
X14062143Y-15875667D01*
X14043095Y-15866143D01*
X14014524Y-15866143D01*
X13995476Y-15875667D01*
X13985952Y-15885190D01*
X14195476Y-15999476D02*
X14176428Y-15989952D01*
X14166905Y-15980428D01*
X14157381Y-15961381D01*
X14157381Y-15904238D01*
X14166905Y-15885190D01*
X14176428Y-15875667D01*
X14195476Y-15866143D01*
X14224048Y-15866143D01*
X14243095Y-15875667D01*
X14252619Y-15885190D01*
X14262143Y-15904238D01*
X14262143Y-15961381D01*
X14252619Y-15980428D01*
X14243095Y-15989952D01*
X14224048Y-15999476D01*
X14195476Y-15999476D01*
X14376428Y-15999476D02*
X14357381Y-15989952D01*
X14347857Y-15970905D01*
X14347857Y-15799476D01*
X14528809Y-15989952D02*
X14509762Y-15999476D01*
X14471667Y-15999476D01*
X14452619Y-15989952D01*
X14443095Y-15970905D01*
X14443095Y-15894714D01*
X14452619Y-15875667D01*
X14471667Y-15866143D01*
X14509762Y-15866143D01*
X14528809Y-15875667D01*
X14538333Y-15894714D01*
X14538333Y-15913762D01*
X14443095Y-15932809D01*
X14614524Y-15989952D02*
X14633571Y-15999476D01*
X14671667Y-15999476D01*
X14690714Y-15989952D01*
X14700238Y-15970905D01*
X14700238Y-15961381D01*
X14690714Y-15942333D01*
X14671667Y-15932809D01*
X14643095Y-15932809D01*
X14624048Y-15923286D01*
X14614524Y-15904238D01*
X14614524Y-15894714D01*
X14624048Y-15875667D01*
X14643095Y-15866143D01*
X14671667Y-15866143D01*
X14690714Y-15875667D01*
X14766905Y-16075667D02*
X14776428Y-16066143D01*
X14795476Y-16037571D01*
X14805000Y-16018524D01*
X14814524Y-15989952D01*
X14824048Y-15942333D01*
X14824048Y-15904238D01*
X14814524Y-15856619D01*
X14805000Y-15828048D01*
X14795476Y-15809000D01*
X14776428Y-15780428D01*
X14766905Y-15770905D01*
D14*
X9960000Y-16138000D02*
X9960000Y-16208000D01*
X9925000Y-16173000D02*
X9995000Y-16173000D01*
D11*
X10290714Y-16063476D02*
X10309762Y-16063476D01*
X10328810Y-16073000D01*
X10338333Y-16082524D01*
X10347857Y-16101571D01*
X10357381Y-16139667D01*
X10357381Y-16187286D01*
X10347857Y-16225381D01*
X10338333Y-16244428D01*
X10328810Y-16253952D01*
X10309762Y-16263476D01*
X10290714Y-16263476D01*
X10271667Y-16253952D01*
X10262143Y-16244428D01*
X10252619Y-16225381D01*
X10243095Y-16187286D01*
X10243095Y-16139667D01*
X10252619Y-16101571D01*
X10262143Y-16082524D01*
X10271667Y-16073000D01*
X10290714Y-16063476D01*
X10443095Y-16244428D02*
X10452619Y-16253952D01*
X10443095Y-16263476D01*
X10433571Y-16253952D01*
X10443095Y-16244428D01*
X10443095Y-16263476D01*
X10519286Y-16063476D02*
X10652619Y-16063476D01*
X10566905Y-16263476D01*
X10766905Y-16063476D02*
X10785952Y-16063476D01*
X10805000Y-16073000D01*
X10814524Y-16082524D01*
X10824048Y-16101571D01*
X10833571Y-16139667D01*
X10833571Y-16187286D01*
X10824048Y-16225381D01*
X10814524Y-16244428D01*
X10805000Y-16253952D01*
X10785952Y-16263476D01*
X10766905Y-16263476D01*
X10747857Y-16253952D01*
X10738333Y-16244428D01*
X10728810Y-16225381D01*
X10719286Y-16187286D01*
X10719286Y-16139667D01*
X10728810Y-16101571D01*
X10738333Y-16082524D01*
X10747857Y-16073000D01*
X10766905Y-16063476D01*
X10957381Y-16063476D02*
X10976429Y-16063476D01*
X10995476Y-16073000D01*
X11005000Y-16082524D01*
X11014524Y-16101571D01*
X11024048Y-16139667D01*
X11024048Y-16187286D01*
X11014524Y-16225381D01*
X11005000Y-16244428D01*
X10995476Y-16253952D01*
X10976429Y-16263476D01*
X10957381Y-16263476D01*
X10938333Y-16253952D01*
X10928810Y-16244428D01*
X10919286Y-16225381D01*
X10909762Y-16187286D01*
X10909762Y-16139667D01*
X10919286Y-16101571D01*
X10928810Y-16082524D01*
X10938333Y-16073000D01*
X10957381Y-16063476D01*
X11109762Y-16263476D02*
X11109762Y-16130143D01*
X11109762Y-16149190D02*
X11119286Y-16139667D01*
X11138333Y-16130143D01*
X11166905Y-16130143D01*
X11185952Y-16139667D01*
X11195476Y-16158714D01*
X11195476Y-16263476D01*
X11195476Y-16158714D02*
X11205000Y-16139667D01*
X11224048Y-16130143D01*
X11252619Y-16130143D01*
X11271667Y-16139667D01*
X11281190Y-16158714D01*
X11281190Y-16263476D01*
X11376428Y-16263476D02*
X11376428Y-16130143D01*
X11376428Y-16149190D02*
X11385952Y-16139667D01*
X11405000Y-16130143D01*
X11433571Y-16130143D01*
X11452619Y-16139667D01*
X11462143Y-16158714D01*
X11462143Y-16263476D01*
X11462143Y-16158714D02*
X11471667Y-16139667D01*
X11490714Y-16130143D01*
X11519286Y-16130143D01*
X11538333Y-16139667D01*
X11547857Y-16158714D01*
X11547857Y-16263476D01*
X11938333Y-16053952D02*
X11766905Y-16311095D01*
X12195476Y-16063476D02*
X12214524Y-16063476D01*
X12233571Y-16073000D01*
X12243095Y-16082524D01*
X12252619Y-16101571D01*
X12262143Y-16139667D01*
X12262143Y-16187286D01*
X12252619Y-16225381D01*
X12243095Y-16244428D01*
X12233571Y-16253952D01*
X12214524Y-16263476D01*
X12195476Y-16263476D01*
X12176428Y-16253952D01*
X12166905Y-16244428D01*
X12157381Y-16225381D01*
X12147857Y-16187286D01*
X12147857Y-16139667D01*
X12157381Y-16101571D01*
X12166905Y-16082524D01*
X12176428Y-16073000D01*
X12195476Y-16063476D01*
X12347857Y-16244428D02*
X12357381Y-16253952D01*
X12347857Y-16263476D01*
X12338333Y-16253952D01*
X12347857Y-16244428D01*
X12347857Y-16263476D01*
X12481190Y-16063476D02*
X12500238Y-16063476D01*
X12519286Y-16073000D01*
X12528809Y-16082524D01*
X12538333Y-16101571D01*
X12547857Y-16139667D01*
X12547857Y-16187286D01*
X12538333Y-16225381D01*
X12528809Y-16244428D01*
X12519286Y-16253952D01*
X12500238Y-16263476D01*
X12481190Y-16263476D01*
X12462143Y-16253952D01*
X12452619Y-16244428D01*
X12443095Y-16225381D01*
X12433571Y-16187286D01*
X12433571Y-16139667D01*
X12443095Y-16101571D01*
X12452619Y-16082524D01*
X12462143Y-16073000D01*
X12481190Y-16063476D01*
X12624048Y-16082524D02*
X12633571Y-16073000D01*
X12652619Y-16063476D01*
X12700238Y-16063476D01*
X12719286Y-16073000D01*
X12728809Y-16082524D01*
X12738333Y-16101571D01*
X12738333Y-16120619D01*
X12728809Y-16149190D01*
X12614524Y-16263476D01*
X12738333Y-16263476D01*
X12805000Y-16063476D02*
X12938333Y-16063476D01*
X12852619Y-16263476D01*
X13100238Y-16063476D02*
X13062143Y-16063476D01*
X13043095Y-16073000D01*
X13033571Y-16082524D01*
X13014524Y-16111095D01*
X13005000Y-16149190D01*
X13005000Y-16225381D01*
X13014524Y-16244428D01*
X13024048Y-16253952D01*
X13043095Y-16263476D01*
X13081190Y-16263476D01*
X13100238Y-16253952D01*
X13109762Y-16244428D01*
X13119286Y-16225381D01*
X13119286Y-16177762D01*
X13109762Y-16158714D01*
X13100238Y-16149190D01*
X13081190Y-16139667D01*
X13043095Y-16139667D01*
X13024048Y-16149190D01*
X13014524Y-16158714D01*
X13005000Y-16177762D01*
X13195476Y-16063476D02*
X13195476Y-16101571D01*
X13271667Y-16063476D02*
X13271667Y-16101571D01*
X13566905Y-16339667D02*
X13557381Y-16330143D01*
X13538333Y-16301571D01*
X13528809Y-16282524D01*
X13519286Y-16253952D01*
X13509762Y-16206333D01*
X13509762Y-16168238D01*
X13519286Y-16120619D01*
X13528809Y-16092048D01*
X13538333Y-16073000D01*
X13557381Y-16044428D01*
X13566905Y-16034905D01*
X13738333Y-16063476D02*
X13643095Y-16063476D01*
X13633571Y-16158714D01*
X13643095Y-16149190D01*
X13662143Y-16139667D01*
X13709762Y-16139667D01*
X13728809Y-16149190D01*
X13738333Y-16158714D01*
X13747857Y-16177762D01*
X13747857Y-16225381D01*
X13738333Y-16244428D01*
X13728809Y-16253952D01*
X13709762Y-16263476D01*
X13662143Y-16263476D01*
X13643095Y-16253952D01*
X13633571Y-16244428D01*
X13862143Y-16149190D02*
X13843095Y-16139667D01*
X13833571Y-16130143D01*
X13824048Y-16111095D01*
X13824048Y-16101571D01*
X13833571Y-16082524D01*
X13843095Y-16073000D01*
X13862143Y-16063476D01*
X13900238Y-16063476D01*
X13919286Y-16073000D01*
X13928809Y-16082524D01*
X13938333Y-16101571D01*
X13938333Y-16111095D01*
X13928809Y-16130143D01*
X13919286Y-16139667D01*
X13900238Y-16149190D01*
X13862143Y-16149190D01*
X13843095Y-16158714D01*
X13833571Y-16168238D01*
X13824048Y-16187286D01*
X13824048Y-16225381D01*
X13833571Y-16244428D01*
X13843095Y-16253952D01*
X13862143Y-16263476D01*
X13900238Y-16263476D01*
X13919286Y-16253952D01*
X13928809Y-16244428D01*
X13938333Y-16225381D01*
X13938333Y-16187286D01*
X13928809Y-16168238D01*
X13919286Y-16158714D01*
X13900238Y-16149190D01*
X14176428Y-16263476D02*
X14176428Y-16063476D01*
X14262143Y-16263476D02*
X14262143Y-16158714D01*
X14252619Y-16139667D01*
X14233571Y-16130143D01*
X14205000Y-16130143D01*
X14185952Y-16139667D01*
X14176428Y-16149190D01*
X14385952Y-16263476D02*
X14366905Y-16253952D01*
X14357381Y-16244428D01*
X14347857Y-16225381D01*
X14347857Y-16168238D01*
X14357381Y-16149190D01*
X14366905Y-16139667D01*
X14385952Y-16130143D01*
X14414524Y-16130143D01*
X14433571Y-16139667D01*
X14443095Y-16149190D01*
X14452619Y-16168238D01*
X14452619Y-16225381D01*
X14443095Y-16244428D01*
X14433571Y-16253952D01*
X14414524Y-16263476D01*
X14385952Y-16263476D01*
X14566905Y-16263476D02*
X14547857Y-16253952D01*
X14538333Y-16234905D01*
X14538333Y-16063476D01*
X14719286Y-16253952D02*
X14700238Y-16263476D01*
X14662143Y-16263476D01*
X14643095Y-16253952D01*
X14633571Y-16234905D01*
X14633571Y-16158714D01*
X14643095Y-16139667D01*
X14662143Y-16130143D01*
X14700238Y-16130143D01*
X14719286Y-16139667D01*
X14728809Y-16158714D01*
X14728809Y-16177762D01*
X14633571Y-16196809D01*
X14805000Y-16253952D02*
X14824048Y-16263476D01*
X14862143Y-16263476D01*
X14881190Y-16253952D01*
X14890714Y-16234905D01*
X14890714Y-16225381D01*
X14881190Y-16206333D01*
X14862143Y-16196809D01*
X14833571Y-16196809D01*
X14814524Y-16187286D01*
X14805000Y-16168238D01*
X14805000Y-16158714D01*
X14814524Y-16139667D01*
X14833571Y-16130143D01*
X14862143Y-16130143D01*
X14881190Y-16139667D01*
X14957381Y-16339667D02*
X14966905Y-16330143D01*
X14985952Y-16301571D01*
X14995476Y-16282524D01*
X15005000Y-16253952D01*
X15014524Y-16206333D01*
X15014524Y-16168238D01*
X15005000Y-16120619D01*
X14995476Y-16092048D01*
X14985952Y-16073000D01*
X14966905Y-16044428D01*
X14957381Y-16034905D01*
D15*
X9983285Y-16465284D02*
X9983285Y-16408715D01*
X9926716Y-16408715D01*
X9926716Y-16465284D01*
X9983285Y-16465284D01*
D11*
X10290714Y-16327476D02*
X10309762Y-16327476D01*
X10328810Y-16337000D01*
X10338333Y-16346524D01*
X10347857Y-16365571D01*
X10357381Y-16403667D01*
X10357381Y-16451286D01*
X10347857Y-16489381D01*
X10338333Y-16508428D01*
X10328810Y-16517952D01*
X10309762Y-16527476D01*
X10290714Y-16527476D01*
X10271667Y-16517952D01*
X10262143Y-16508428D01*
X10252619Y-16489381D01*
X10243095Y-16451286D01*
X10243095Y-16403667D01*
X10252619Y-16365571D01*
X10262143Y-16346524D01*
X10271667Y-16337000D01*
X10290714Y-16327476D01*
X10443095Y-16508428D02*
X10452619Y-16517952D01*
X10443095Y-16527476D01*
X10433571Y-16517952D01*
X10443095Y-16508428D01*
X10443095Y-16527476D01*
X10566905Y-16413190D02*
X10547857Y-16403667D01*
X10538333Y-16394143D01*
X10528810Y-16375095D01*
X10528810Y-16365571D01*
X10538333Y-16346524D01*
X10547857Y-16337000D01*
X10566905Y-16327476D01*
X10605000Y-16327476D01*
X10624048Y-16337000D01*
X10633571Y-16346524D01*
X10643095Y-16365571D01*
X10643095Y-16375095D01*
X10633571Y-16394143D01*
X10624048Y-16403667D01*
X10605000Y-16413190D01*
X10566905Y-16413190D01*
X10547857Y-16422714D01*
X10538333Y-16432238D01*
X10528810Y-16451286D01*
X10528810Y-16489381D01*
X10538333Y-16508428D01*
X10547857Y-16517952D01*
X10566905Y-16527476D01*
X10605000Y-16527476D01*
X10624048Y-16517952D01*
X10633571Y-16508428D01*
X10643095Y-16489381D01*
X10643095Y-16451286D01*
X10633571Y-16432238D01*
X10624048Y-16422714D01*
X10605000Y-16413190D01*
X10766905Y-16327476D02*
X10785952Y-16327476D01*
X10805000Y-16337000D01*
X10814524Y-16346524D01*
X10824048Y-16365571D01*
X10833571Y-16403667D01*
X10833571Y-16451286D01*
X10824048Y-16489381D01*
X10814524Y-16508428D01*
X10805000Y-16517952D01*
X10785952Y-16527476D01*
X10766905Y-16527476D01*
X10747857Y-16517952D01*
X10738333Y-16508428D01*
X10728810Y-16489381D01*
X10719286Y-16451286D01*
X10719286Y-16403667D01*
X10728810Y-16365571D01*
X10738333Y-16346524D01*
X10747857Y-16337000D01*
X10766905Y-16327476D01*
X10957381Y-16327476D02*
X10976429Y-16327476D01*
X10995476Y-16337000D01*
X11005000Y-16346524D01*
X11014524Y-16365571D01*
X11024048Y-16403667D01*
X11024048Y-16451286D01*
X11014524Y-16489381D01*
X11005000Y-16508428D01*
X10995476Y-16517952D01*
X10976429Y-16527476D01*
X10957381Y-16527476D01*
X10938333Y-16517952D01*
X10928810Y-16508428D01*
X10919286Y-16489381D01*
X10909762Y-16451286D01*
X10909762Y-16403667D01*
X10919286Y-16365571D01*
X10928810Y-16346524D01*
X10938333Y-16337000D01*
X10957381Y-16327476D01*
X11109762Y-16527476D02*
X11109762Y-16394143D01*
X11109762Y-16413190D02*
X11119286Y-16403667D01*
X11138333Y-16394143D01*
X11166905Y-16394143D01*
X11185952Y-16403667D01*
X11195476Y-16422714D01*
X11195476Y-16527476D01*
X11195476Y-16422714D02*
X11205000Y-16403667D01*
X11224048Y-16394143D01*
X11252619Y-16394143D01*
X11271667Y-16403667D01*
X11281190Y-16422714D01*
X11281190Y-16527476D01*
X11376428Y-16527476D02*
X11376428Y-16394143D01*
X11376428Y-16413190D02*
X11385952Y-16403667D01*
X11405000Y-16394143D01*
X11433571Y-16394143D01*
X11452619Y-16403667D01*
X11462143Y-16422714D01*
X11462143Y-16527476D01*
X11462143Y-16422714D02*
X11471667Y-16403667D01*
X11490714Y-16394143D01*
X11519286Y-16394143D01*
X11538333Y-16403667D01*
X11547857Y-16422714D01*
X11547857Y-16527476D01*
X11938333Y-16317952D02*
X11766905Y-16575095D01*
X12195476Y-16327476D02*
X12214524Y-16327476D01*
X12233571Y-16337000D01*
X12243095Y-16346524D01*
X12252619Y-16365571D01*
X12262143Y-16403667D01*
X12262143Y-16451286D01*
X12252619Y-16489381D01*
X12243095Y-16508428D01*
X12233571Y-16517952D01*
X12214524Y-16527476D01*
X12195476Y-16527476D01*
X12176428Y-16517952D01*
X12166905Y-16508428D01*
X12157381Y-16489381D01*
X12147857Y-16451286D01*
X12147857Y-16403667D01*
X12157381Y-16365571D01*
X12166905Y-16346524D01*
X12176428Y-16337000D01*
X12195476Y-16327476D01*
X12347857Y-16508428D02*
X12357381Y-16517952D01*
X12347857Y-16527476D01*
X12338333Y-16517952D01*
X12347857Y-16508428D01*
X12347857Y-16527476D01*
X12481190Y-16327476D02*
X12500238Y-16327476D01*
X12519286Y-16337000D01*
X12528809Y-16346524D01*
X12538333Y-16365571D01*
X12547857Y-16403667D01*
X12547857Y-16451286D01*
X12538333Y-16489381D01*
X12528809Y-16508428D01*
X12519286Y-16517952D01*
X12500238Y-16527476D01*
X12481190Y-16527476D01*
X12462143Y-16517952D01*
X12452619Y-16508428D01*
X12443095Y-16489381D01*
X12433571Y-16451286D01*
X12433571Y-16403667D01*
X12443095Y-16365571D01*
X12452619Y-16346524D01*
X12462143Y-16337000D01*
X12481190Y-16327476D01*
X12614524Y-16327476D02*
X12738333Y-16327476D01*
X12671667Y-16403667D01*
X12700238Y-16403667D01*
X12719286Y-16413190D01*
X12728809Y-16422714D01*
X12738333Y-16441762D01*
X12738333Y-16489381D01*
X12728809Y-16508428D01*
X12719286Y-16517952D01*
X12700238Y-16527476D01*
X12643095Y-16527476D01*
X12624048Y-16517952D01*
X12614524Y-16508428D01*
X12928809Y-16527476D02*
X12814524Y-16527476D01*
X12871667Y-16527476D02*
X12871667Y-16327476D01*
X12852619Y-16356048D01*
X12833571Y-16375095D01*
X12814524Y-16384619D01*
X13109762Y-16327476D02*
X13014524Y-16327476D01*
X13005000Y-16422714D01*
X13014524Y-16413190D01*
X13033571Y-16403667D01*
X13081190Y-16403667D01*
X13100238Y-16413190D01*
X13109762Y-16422714D01*
X13119286Y-16441762D01*
X13119286Y-16489381D01*
X13109762Y-16508428D01*
X13100238Y-16517952D01*
X13081190Y-16527476D01*
X13033571Y-16527476D01*
X13014524Y-16517952D01*
X13005000Y-16508428D01*
X13195476Y-16327476D02*
X13195476Y-16365571D01*
X13271667Y-16327476D02*
X13271667Y-16365571D01*
X13566905Y-16603667D02*
X13557381Y-16594143D01*
X13538333Y-16565571D01*
X13528809Y-16546524D01*
X13519286Y-16517952D01*
X13509762Y-16470333D01*
X13509762Y-16432238D01*
X13519286Y-16384619D01*
X13528809Y-16356048D01*
X13538333Y-16337000D01*
X13557381Y-16308428D01*
X13566905Y-16298905D01*
X13624048Y-16327476D02*
X13757381Y-16327476D01*
X13671667Y-16527476D01*
X13824048Y-16346524D02*
X13833571Y-16337000D01*
X13852619Y-16327476D01*
X13900238Y-16327476D01*
X13919286Y-16337000D01*
X13928809Y-16346524D01*
X13938333Y-16365571D01*
X13938333Y-16384619D01*
X13928809Y-16413190D01*
X13814524Y-16527476D01*
X13938333Y-16527476D01*
X14176428Y-16527476D02*
X14176428Y-16327476D01*
X14262143Y-16527476D02*
X14262143Y-16422714D01*
X14252619Y-16403667D01*
X14233571Y-16394143D01*
X14205000Y-16394143D01*
X14185952Y-16403667D01*
X14176428Y-16413190D01*
X14385952Y-16527476D02*
X14366905Y-16517952D01*
X14357381Y-16508428D01*
X14347857Y-16489381D01*
X14347857Y-16432238D01*
X14357381Y-16413190D01*
X14366905Y-16403667D01*
X14385952Y-16394143D01*
X14414524Y-16394143D01*
X14433571Y-16403667D01*
X14443095Y-16413190D01*
X14452619Y-16432238D01*
X14452619Y-16489381D01*
X14443095Y-16508428D01*
X14433571Y-16517952D01*
X14414524Y-16527476D01*
X14385952Y-16527476D01*
X14566905Y-16527476D02*
X14547857Y-16517952D01*
X14538333Y-16498905D01*
X14538333Y-16327476D01*
X14719286Y-16517952D02*
X14700238Y-16527476D01*
X14662143Y-16527476D01*
X14643095Y-16517952D01*
X14633571Y-16498905D01*
X14633571Y-16422714D01*
X14643095Y-16403667D01*
X14662143Y-16394143D01*
X14700238Y-16394143D01*
X14719286Y-16403667D01*
X14728809Y-16422714D01*
X14728809Y-16441762D01*
X14633571Y-16460809D01*
X14805000Y-16517952D02*
X14824048Y-16527476D01*
X14862143Y-16527476D01*
X14881190Y-16517952D01*
X14890714Y-16498905D01*
X14890714Y-16489381D01*
X14881190Y-16470333D01*
X14862143Y-16460809D01*
X14833571Y-16460809D01*
X14814524Y-16451286D01*
X14805000Y-16432238D01*
X14805000Y-16422714D01*
X14814524Y-16403667D01*
X14833571Y-16394143D01*
X14862143Y-16394143D01*
X14881190Y-16403667D01*
X14957381Y-16603667D02*
X14966905Y-16594143D01*
X14985952Y-16565571D01*
X14995476Y-16546524D01*
X15005000Y-16517952D01*
X15014524Y-16470333D01*
X15014524Y-16432238D01*
X15005000Y-16384619D01*
X14995476Y-16356048D01*
X14985952Y-16337000D01*
X14966905Y-16308428D01*
X14957381Y-16298905D01*
D16*
X9950500Y-16745500D02*
X9995000Y-16701000D01*
X9950500Y-16656500D01*
X9906000Y-16701000D01*
X9950500Y-16745500D01*
D11*
X10290714Y-16591476D02*
X10309762Y-16591476D01*
X10328810Y-16601000D01*
X10338333Y-16610524D01*
X10347857Y-16629571D01*
X10357381Y-16667667D01*
X10357381Y-16715286D01*
X10347857Y-16753381D01*
X10338333Y-16772428D01*
X10328810Y-16781952D01*
X10309762Y-16791476D01*
X10290714Y-16791476D01*
X10271667Y-16781952D01*
X10262143Y-16772428D01*
X10252619Y-16753381D01*
X10243095Y-16715286D01*
X10243095Y-16667667D01*
X10252619Y-16629571D01*
X10262143Y-16610524D01*
X10271667Y-16601000D01*
X10290714Y-16591476D01*
X10443095Y-16772428D02*
X10452619Y-16781952D01*
X10443095Y-16791476D01*
X10433571Y-16781952D01*
X10443095Y-16772428D01*
X10443095Y-16791476D01*
X10566905Y-16677190D02*
X10547857Y-16667667D01*
X10538333Y-16658143D01*
X10528810Y-16639095D01*
X10528810Y-16629571D01*
X10538333Y-16610524D01*
X10547857Y-16601000D01*
X10566905Y-16591476D01*
X10605000Y-16591476D01*
X10624048Y-16601000D01*
X10633571Y-16610524D01*
X10643095Y-16629571D01*
X10643095Y-16639095D01*
X10633571Y-16658143D01*
X10624048Y-16667667D01*
X10605000Y-16677190D01*
X10566905Y-16677190D01*
X10547857Y-16686714D01*
X10538333Y-16696238D01*
X10528810Y-16715286D01*
X10528810Y-16753381D01*
X10538333Y-16772428D01*
X10547857Y-16781952D01*
X10566905Y-16791476D01*
X10605000Y-16791476D01*
X10624048Y-16781952D01*
X10633571Y-16772428D01*
X10643095Y-16753381D01*
X10643095Y-16715286D01*
X10633571Y-16696238D01*
X10624048Y-16686714D01*
X10605000Y-16677190D01*
X10738333Y-16791476D02*
X10776429Y-16791476D01*
X10795476Y-16781952D01*
X10805000Y-16772428D01*
X10824048Y-16743857D01*
X10833571Y-16705762D01*
X10833571Y-16629571D01*
X10824048Y-16610524D01*
X10814524Y-16601000D01*
X10795476Y-16591476D01*
X10757381Y-16591476D01*
X10738333Y-16601000D01*
X10728810Y-16610524D01*
X10719286Y-16629571D01*
X10719286Y-16677190D01*
X10728810Y-16696238D01*
X10738333Y-16705762D01*
X10757381Y-16715286D01*
X10795476Y-16715286D01*
X10814524Y-16705762D01*
X10824048Y-16696238D01*
X10833571Y-16677190D01*
X10957381Y-16591476D02*
X10976429Y-16591476D01*
X10995476Y-16601000D01*
X11005000Y-16610524D01*
X11014524Y-16629571D01*
X11024048Y-16667667D01*
X11024048Y-16715286D01*
X11014524Y-16753381D01*
X11005000Y-16772428D01*
X10995476Y-16781952D01*
X10976429Y-16791476D01*
X10957381Y-16791476D01*
X10938333Y-16781952D01*
X10928810Y-16772428D01*
X10919286Y-16753381D01*
X10909762Y-16715286D01*
X10909762Y-16667667D01*
X10919286Y-16629571D01*
X10928810Y-16610524D01*
X10938333Y-16601000D01*
X10957381Y-16591476D01*
X11109762Y-16791476D02*
X11109762Y-16658143D01*
X11109762Y-16677190D02*
X11119286Y-16667667D01*
X11138333Y-16658143D01*
X11166905Y-16658143D01*
X11185952Y-16667667D01*
X11195476Y-16686714D01*
X11195476Y-16791476D01*
X11195476Y-16686714D02*
X11205000Y-16667667D01*
X11224048Y-16658143D01*
X11252619Y-16658143D01*
X11271667Y-16667667D01*
X11281190Y-16686714D01*
X11281190Y-16791476D01*
X11376428Y-16791476D02*
X11376428Y-16658143D01*
X11376428Y-16677190D02*
X11385952Y-16667667D01*
X11405000Y-16658143D01*
X11433571Y-16658143D01*
X11452619Y-16667667D01*
X11462143Y-16686714D01*
X11462143Y-16791476D01*
X11462143Y-16686714D02*
X11471667Y-16667667D01*
X11490714Y-16658143D01*
X11519286Y-16658143D01*
X11538333Y-16667667D01*
X11547857Y-16686714D01*
X11547857Y-16791476D01*
X11938333Y-16581952D02*
X11766905Y-16839095D01*
X12195476Y-16591476D02*
X12214524Y-16591476D01*
X12233571Y-16601000D01*
X12243095Y-16610524D01*
X12252619Y-16629571D01*
X12262143Y-16667667D01*
X12262143Y-16715286D01*
X12252619Y-16753381D01*
X12243095Y-16772428D01*
X12233571Y-16781952D01*
X12214524Y-16791476D01*
X12195476Y-16791476D01*
X12176428Y-16781952D01*
X12166905Y-16772428D01*
X12157381Y-16753381D01*
X12147857Y-16715286D01*
X12147857Y-16667667D01*
X12157381Y-16629571D01*
X12166905Y-16610524D01*
X12176428Y-16601000D01*
X12195476Y-16591476D01*
X12347857Y-16772428D02*
X12357381Y-16781952D01*
X12347857Y-16791476D01*
X12338333Y-16781952D01*
X12347857Y-16772428D01*
X12347857Y-16791476D01*
X12481190Y-16591476D02*
X12500238Y-16591476D01*
X12519286Y-16601000D01*
X12528809Y-16610524D01*
X12538333Y-16629571D01*
X12547857Y-16667667D01*
X12547857Y-16715286D01*
X12538333Y-16753381D01*
X12528809Y-16772428D01*
X12519286Y-16781952D01*
X12500238Y-16791476D01*
X12481190Y-16791476D01*
X12462143Y-16781952D01*
X12452619Y-16772428D01*
X12443095Y-16753381D01*
X12433571Y-16715286D01*
X12433571Y-16667667D01*
X12443095Y-16629571D01*
X12452619Y-16610524D01*
X12462143Y-16601000D01*
X12481190Y-16591476D01*
X12614524Y-16591476D02*
X12738333Y-16591476D01*
X12671667Y-16667667D01*
X12700238Y-16667667D01*
X12719286Y-16677190D01*
X12728809Y-16686714D01*
X12738333Y-16705762D01*
X12738333Y-16753381D01*
X12728809Y-16772428D01*
X12719286Y-16781952D01*
X12700238Y-16791476D01*
X12643095Y-16791476D01*
X12624048Y-16781952D01*
X12614524Y-16772428D01*
X12919286Y-16591476D02*
X12824048Y-16591476D01*
X12814524Y-16686714D01*
X12824048Y-16677190D01*
X12843095Y-16667667D01*
X12890714Y-16667667D01*
X12909762Y-16677190D01*
X12919286Y-16686714D01*
X12928809Y-16705762D01*
X12928809Y-16753381D01*
X12919286Y-16772428D01*
X12909762Y-16781952D01*
X12890714Y-16791476D01*
X12843095Y-16791476D01*
X12824048Y-16781952D01*
X12814524Y-16772428D01*
X13052619Y-16591476D02*
X13071667Y-16591476D01*
X13090714Y-16601000D01*
X13100238Y-16610524D01*
X13109762Y-16629571D01*
X13119286Y-16667667D01*
X13119286Y-16715286D01*
X13109762Y-16753381D01*
X13100238Y-16772428D01*
X13090714Y-16781952D01*
X13071667Y-16791476D01*
X13052619Y-16791476D01*
X13033571Y-16781952D01*
X13024048Y-16772428D01*
X13014524Y-16753381D01*
X13005000Y-16715286D01*
X13005000Y-16667667D01*
X13014524Y-16629571D01*
X13024048Y-16610524D01*
X13033571Y-16601000D01*
X13052619Y-16591476D01*
X13195476Y-16591476D02*
X13195476Y-16629571D01*
X13271667Y-16591476D02*
X13271667Y-16629571D01*
X13566905Y-16867667D02*
X13557381Y-16858143D01*
X13538333Y-16829571D01*
X13528809Y-16810524D01*
X13519286Y-16781952D01*
X13509762Y-16734333D01*
X13509762Y-16696238D01*
X13519286Y-16648619D01*
X13528809Y-16620048D01*
X13538333Y-16601000D01*
X13557381Y-16572428D01*
X13566905Y-16562905D01*
X13747857Y-16791476D02*
X13633571Y-16791476D01*
X13690714Y-16791476D02*
X13690714Y-16591476D01*
X13671667Y-16620048D01*
X13652619Y-16639095D01*
X13633571Y-16648619D01*
X13919286Y-16591476D02*
X13881190Y-16591476D01*
X13862143Y-16601000D01*
X13852619Y-16610524D01*
X13833571Y-16639095D01*
X13824048Y-16677190D01*
X13824048Y-16753381D01*
X13833571Y-16772428D01*
X13843095Y-16781952D01*
X13862143Y-16791476D01*
X13900238Y-16791476D01*
X13919286Y-16781952D01*
X13928809Y-16772428D01*
X13938333Y-16753381D01*
X13938333Y-16705762D01*
X13928809Y-16686714D01*
X13919286Y-16677190D01*
X13900238Y-16667667D01*
X13862143Y-16667667D01*
X13843095Y-16677190D01*
X13833571Y-16686714D01*
X13824048Y-16705762D01*
X14176428Y-16791476D02*
X14176428Y-16591476D01*
X14262143Y-16791476D02*
X14262143Y-16686714D01*
X14252619Y-16667667D01*
X14233571Y-16658143D01*
X14205000Y-16658143D01*
X14185952Y-16667667D01*
X14176428Y-16677190D01*
X14385952Y-16791476D02*
X14366905Y-16781952D01*
X14357381Y-16772428D01*
X14347857Y-16753381D01*
X14347857Y-16696238D01*
X14357381Y-16677190D01*
X14366905Y-16667667D01*
X14385952Y-16658143D01*
X14414524Y-16658143D01*
X14433571Y-16667667D01*
X14443095Y-16677190D01*
X14452619Y-16696238D01*
X14452619Y-16753381D01*
X14443095Y-16772428D01*
X14433571Y-16781952D01*
X14414524Y-16791476D01*
X14385952Y-16791476D01*
X14566905Y-16791476D02*
X14547857Y-16781952D01*
X14538333Y-16762905D01*
X14538333Y-16591476D01*
X14719286Y-16781952D02*
X14700238Y-16791476D01*
X14662143Y-16791476D01*
X14643095Y-16781952D01*
X14633571Y-16762905D01*
X14633571Y-16686714D01*
X14643095Y-16667667D01*
X14662143Y-16658143D01*
X14700238Y-16658143D01*
X14719286Y-16667667D01*
X14728809Y-16686714D01*
X14728809Y-16705762D01*
X14633571Y-16724809D01*
X14805000Y-16781952D02*
X14824048Y-16791476D01*
X14862143Y-16791476D01*
X14881190Y-16781952D01*
X14890714Y-16762905D01*
X14890714Y-16753381D01*
X14881190Y-16734333D01*
X14862143Y-16724809D01*
X14833571Y-16724809D01*
X14814524Y-16715286D01*
X14805000Y-16696238D01*
X14805000Y-16686714D01*
X14814524Y-16667667D01*
X14833571Y-16658143D01*
X14862143Y-16658143D01*
X14881190Y-16667667D01*
X14957381Y-16867667D02*
X14966905Y-16858143D01*
X14985952Y-16829571D01*
X14995476Y-16810524D01*
X15005000Y-16781952D01*
X15014524Y-16734333D01*
X15014524Y-16696238D01*
X15005000Y-16648619D01*
X14995476Y-16620048D01*
X14985952Y-16601000D01*
X14966905Y-16572428D01*
X14957381Y-16562905D01*
D17*
X9905000Y-16920000D02*
X9995000Y-17010000D01*
X9995000Y-16920000D02*
X9905000Y-17010000D01*
X9995000Y-16965000D02*
G75*
G03*
X9995000Y-16965000I-45000J0D01*
G01*
D11*
X10290714Y-16855476D02*
X10309762Y-16855476D01*
X10328810Y-16865000D01*
X10338333Y-16874524D01*
X10347857Y-16893571D01*
X10357381Y-16931667D01*
X10357381Y-16979286D01*
X10347857Y-17017381D01*
X10338333Y-17036429D01*
X10328810Y-17045952D01*
X10309762Y-17055476D01*
X10290714Y-17055476D01*
X10271667Y-17045952D01*
X10262143Y-17036429D01*
X10252619Y-17017381D01*
X10243095Y-16979286D01*
X10243095Y-16931667D01*
X10252619Y-16893571D01*
X10262143Y-16874524D01*
X10271667Y-16865000D01*
X10290714Y-16855476D01*
X10443095Y-17036429D02*
X10452619Y-17045952D01*
X10443095Y-17055476D01*
X10433571Y-17045952D01*
X10443095Y-17036429D01*
X10443095Y-17055476D01*
X10547857Y-17055476D02*
X10585952Y-17055476D01*
X10605000Y-17045952D01*
X10614524Y-17036429D01*
X10633571Y-17007857D01*
X10643095Y-16969762D01*
X10643095Y-16893571D01*
X10633571Y-16874524D01*
X10624048Y-16865000D01*
X10605000Y-16855476D01*
X10566905Y-16855476D01*
X10547857Y-16865000D01*
X10538333Y-16874524D01*
X10528810Y-16893571D01*
X10528810Y-16941190D01*
X10538333Y-16960238D01*
X10547857Y-16969762D01*
X10566905Y-16979286D01*
X10605000Y-16979286D01*
X10624048Y-16969762D01*
X10633571Y-16960238D01*
X10643095Y-16941190D01*
X10766905Y-16855476D02*
X10785952Y-16855476D01*
X10805000Y-16865000D01*
X10814524Y-16874524D01*
X10824048Y-16893571D01*
X10833571Y-16931667D01*
X10833571Y-16979286D01*
X10824048Y-17017381D01*
X10814524Y-17036429D01*
X10805000Y-17045952D01*
X10785952Y-17055476D01*
X10766905Y-17055476D01*
X10747857Y-17045952D01*
X10738333Y-17036429D01*
X10728810Y-17017381D01*
X10719286Y-16979286D01*
X10719286Y-16931667D01*
X10728810Y-16893571D01*
X10738333Y-16874524D01*
X10747857Y-16865000D01*
X10766905Y-16855476D01*
X10957381Y-16855476D02*
X10976429Y-16855476D01*
X10995476Y-16865000D01*
X11005000Y-16874524D01*
X11014524Y-16893571D01*
X11024048Y-16931667D01*
X11024048Y-16979286D01*
X11014524Y-17017381D01*
X11005000Y-17036429D01*
X10995476Y-17045952D01*
X10976429Y-17055476D01*
X10957381Y-17055476D01*
X10938333Y-17045952D01*
X10928810Y-17036429D01*
X10919286Y-17017381D01*
X10909762Y-16979286D01*
X10909762Y-16931667D01*
X10919286Y-16893571D01*
X10928810Y-16874524D01*
X10938333Y-16865000D01*
X10957381Y-16855476D01*
X11109762Y-17055476D02*
X11109762Y-16922143D01*
X11109762Y-16941190D02*
X11119286Y-16931667D01*
X11138333Y-16922143D01*
X11166905Y-16922143D01*
X11185952Y-16931667D01*
X11195476Y-16950714D01*
X11195476Y-17055476D01*
X11195476Y-16950714D02*
X11205000Y-16931667D01*
X11224048Y-16922143D01*
X11252619Y-16922143D01*
X11271667Y-16931667D01*
X11281190Y-16950714D01*
X11281190Y-17055476D01*
X11376428Y-17055476D02*
X11376428Y-16922143D01*
X11376428Y-16941190D02*
X11385952Y-16931667D01*
X11405000Y-16922143D01*
X11433571Y-16922143D01*
X11452619Y-16931667D01*
X11462143Y-16950714D01*
X11462143Y-17055476D01*
X11462143Y-16950714D02*
X11471667Y-16931667D01*
X11490714Y-16922143D01*
X11519286Y-16922143D01*
X11538333Y-16931667D01*
X11547857Y-16950714D01*
X11547857Y-17055476D01*
X11938333Y-16845952D02*
X11766905Y-17103095D01*
X12195476Y-16855476D02*
X12214524Y-16855476D01*
X12233571Y-16865000D01*
X12243095Y-16874524D01*
X12252619Y-16893571D01*
X12262143Y-16931667D01*
X12262143Y-16979286D01*
X12252619Y-17017381D01*
X12243095Y-17036429D01*
X12233571Y-17045952D01*
X12214524Y-17055476D01*
X12195476Y-17055476D01*
X12176428Y-17045952D01*
X12166905Y-17036429D01*
X12157381Y-17017381D01*
X12147857Y-16979286D01*
X12147857Y-16931667D01*
X12157381Y-16893571D01*
X12166905Y-16874524D01*
X12176428Y-16865000D01*
X12195476Y-16855476D01*
X12347857Y-17036429D02*
X12357381Y-17045952D01*
X12347857Y-17055476D01*
X12338333Y-17045952D01*
X12347857Y-17036429D01*
X12347857Y-17055476D01*
X12481190Y-16855476D02*
X12500238Y-16855476D01*
X12519286Y-16865000D01*
X12528809Y-16874524D01*
X12538333Y-16893571D01*
X12547857Y-16931667D01*
X12547857Y-16979286D01*
X12538333Y-17017381D01*
X12528809Y-17036429D01*
X12519286Y-17045952D01*
X12500238Y-17055476D01*
X12481190Y-17055476D01*
X12462143Y-17045952D01*
X12452619Y-17036429D01*
X12443095Y-17017381D01*
X12433571Y-16979286D01*
X12433571Y-16931667D01*
X12443095Y-16893571D01*
X12452619Y-16874524D01*
X12462143Y-16865000D01*
X12481190Y-16855476D01*
X12614524Y-16855476D02*
X12738333Y-16855476D01*
X12671667Y-16931667D01*
X12700238Y-16931667D01*
X12719286Y-16941190D01*
X12728809Y-16950714D01*
X12738333Y-16969762D01*
X12738333Y-17017381D01*
X12728809Y-17036429D01*
X12719286Y-17045952D01*
X12700238Y-17055476D01*
X12643095Y-17055476D01*
X12624048Y-17045952D01*
X12614524Y-17036429D01*
X12919286Y-16855476D02*
X12824048Y-16855476D01*
X12814524Y-16950714D01*
X12824048Y-16941190D01*
X12843095Y-16931667D01*
X12890714Y-16931667D01*
X12909762Y-16941190D01*
X12919286Y-16950714D01*
X12928809Y-16969762D01*
X12928809Y-17017381D01*
X12919286Y-17036429D01*
X12909762Y-17045952D01*
X12890714Y-17055476D01*
X12843095Y-17055476D01*
X12824048Y-17045952D01*
X12814524Y-17036429D01*
X13100238Y-16922143D02*
X13100238Y-17055476D01*
X13052619Y-16845952D02*
X13005000Y-16988810D01*
X13128809Y-16988810D01*
X13195476Y-16855476D02*
X13195476Y-16893571D01*
X13271667Y-16855476D02*
X13271667Y-16893571D01*
X13566905Y-17131667D02*
X13557381Y-17122143D01*
X13538333Y-17093571D01*
X13528809Y-17074524D01*
X13519286Y-17045952D01*
X13509762Y-16998333D01*
X13509762Y-16960238D01*
X13519286Y-16912619D01*
X13528809Y-16884048D01*
X13538333Y-16865000D01*
X13557381Y-16836429D01*
X13566905Y-16826905D01*
X13624048Y-16855476D02*
X13747857Y-16855476D01*
X13681190Y-16931667D01*
X13709762Y-16931667D01*
X13728809Y-16941190D01*
X13738333Y-16950714D01*
X13747857Y-16969762D01*
X13747857Y-17017381D01*
X13738333Y-17036429D01*
X13728809Y-17045952D01*
X13709762Y-17055476D01*
X13652619Y-17055476D01*
X13633571Y-17045952D01*
X13624048Y-17036429D01*
X13919286Y-16922143D02*
X13919286Y-17055476D01*
X13871667Y-16845952D02*
X13824048Y-16988810D01*
X13947857Y-16988810D01*
X14176428Y-17055476D02*
X14176428Y-16855476D01*
X14262143Y-17055476D02*
X14262143Y-16950714D01*
X14252619Y-16931667D01*
X14233571Y-16922143D01*
X14205000Y-16922143D01*
X14185952Y-16931667D01*
X14176428Y-16941190D01*
X14385952Y-17055476D02*
X14366905Y-17045952D01*
X14357381Y-17036429D01*
X14347857Y-17017381D01*
X14347857Y-16960238D01*
X14357381Y-16941190D01*
X14366905Y-16931667D01*
X14385952Y-16922143D01*
X14414524Y-16922143D01*
X14433571Y-16931667D01*
X14443095Y-16941190D01*
X14452619Y-16960238D01*
X14452619Y-17017381D01*
X14443095Y-17036429D01*
X14433571Y-17045952D01*
X14414524Y-17055476D01*
X14385952Y-17055476D01*
X14566905Y-17055476D02*
X14547857Y-17045952D01*
X14538333Y-17026905D01*
X14538333Y-16855476D01*
X14719286Y-17045952D02*
X14700238Y-17055476D01*
X14662143Y-17055476D01*
X14643095Y-17045952D01*
X14633571Y-17026905D01*
X14633571Y-16950714D01*
X14643095Y-16931667D01*
X14662143Y-16922143D01*
X14700238Y-16922143D01*
X14719286Y-16931667D01*
X14728809Y-16950714D01*
X14728809Y-16969762D01*
X14633571Y-16988810D01*
X14805000Y-17045952D02*
X14824048Y-17055476D01*
X14862143Y-17055476D01*
X14881190Y-17045952D01*
X14890714Y-17026905D01*
X14890714Y-17017381D01*
X14881190Y-16998333D01*
X14862143Y-16988810D01*
X14833571Y-16988810D01*
X14814524Y-16979286D01*
X14805000Y-16960238D01*
X14805000Y-16950714D01*
X14814524Y-16931667D01*
X14833571Y-16922143D01*
X14862143Y-16922143D01*
X14881190Y-16931667D01*
X14957381Y-17131667D02*
X14966905Y-17122143D01*
X14985952Y-17093571D01*
X14995476Y-17074524D01*
X15005000Y-17045952D01*
X15014524Y-16998333D01*
X15014524Y-16960238D01*
X15005000Y-16912619D01*
X14995476Y-16884048D01*
X14985952Y-16865000D01*
X14966905Y-16836429D01*
X14957381Y-16826905D01*
D18*
X9895000Y-17179000D02*
X9995000Y-17279000D01*
X9995000Y-17179000D02*
X9895000Y-17279000D01*
X9945000Y-17179000D02*
X9945000Y-17279000D01*
X9895000Y-17229000D02*
X9995000Y-17229000D01*
D11*
X10357381Y-17319476D02*
X10243095Y-17319476D01*
X10300238Y-17319476D02*
X10300238Y-17119476D01*
X10281190Y-17148048D01*
X10262143Y-17167095D01*
X10243095Y-17176619D01*
X10443095Y-17300429D02*
X10452619Y-17309952D01*
X10443095Y-17319476D01*
X10433571Y-17309952D01*
X10443095Y-17300429D01*
X10443095Y-17319476D01*
X10576429Y-17119476D02*
X10595476Y-17119476D01*
X10614524Y-17129000D01*
X10624048Y-17138524D01*
X10633571Y-17157571D01*
X10643095Y-17195667D01*
X10643095Y-17243286D01*
X10633571Y-17281381D01*
X10624048Y-17300429D01*
X10614524Y-17309952D01*
X10595476Y-17319476D01*
X10576429Y-17319476D01*
X10557381Y-17309952D01*
X10547857Y-17300429D01*
X10538333Y-17281381D01*
X10528810Y-17243286D01*
X10528810Y-17195667D01*
X10538333Y-17157571D01*
X10547857Y-17138524D01*
X10557381Y-17129000D01*
X10576429Y-17119476D01*
X10766905Y-17119476D02*
X10785952Y-17119476D01*
X10805000Y-17129000D01*
X10814524Y-17138524D01*
X10824048Y-17157571D01*
X10833571Y-17195667D01*
X10833571Y-17243286D01*
X10824048Y-17281381D01*
X10814524Y-17300429D01*
X10805000Y-17309952D01*
X10785952Y-17319476D01*
X10766905Y-17319476D01*
X10747857Y-17309952D01*
X10738333Y-17300429D01*
X10728810Y-17281381D01*
X10719286Y-17243286D01*
X10719286Y-17195667D01*
X10728810Y-17157571D01*
X10738333Y-17138524D01*
X10747857Y-17129000D01*
X10766905Y-17119476D01*
X10957381Y-17119476D02*
X10976429Y-17119476D01*
X10995476Y-17129000D01*
X11005000Y-17138524D01*
X11014524Y-17157571D01*
X11024048Y-17195667D01*
X11024048Y-17243286D01*
X11014524Y-17281381D01*
X11005000Y-17300429D01*
X10995476Y-17309952D01*
X10976429Y-17319476D01*
X10957381Y-17319476D01*
X10938333Y-17309952D01*
X10928810Y-17300429D01*
X10919286Y-17281381D01*
X10909762Y-17243286D01*
X10909762Y-17195667D01*
X10919286Y-17157571D01*
X10928810Y-17138524D01*
X10938333Y-17129000D01*
X10957381Y-17119476D01*
X11109762Y-17319476D02*
X11109762Y-17186143D01*
X11109762Y-17205190D02*
X11119286Y-17195667D01*
X11138333Y-17186143D01*
X11166905Y-17186143D01*
X11185952Y-17195667D01*
X11195476Y-17214714D01*
X11195476Y-17319476D01*
X11195476Y-17214714D02*
X11205000Y-17195667D01*
X11224048Y-17186143D01*
X11252619Y-17186143D01*
X11271667Y-17195667D01*
X11281190Y-17214714D01*
X11281190Y-17319476D01*
X11376428Y-17319476D02*
X11376428Y-17186143D01*
X11376428Y-17205190D02*
X11385952Y-17195667D01*
X11405000Y-17186143D01*
X11433571Y-17186143D01*
X11452619Y-17195667D01*
X11462143Y-17214714D01*
X11462143Y-17319476D01*
X11462143Y-17214714D02*
X11471667Y-17195667D01*
X11490714Y-17186143D01*
X11519286Y-17186143D01*
X11538333Y-17195667D01*
X11547857Y-17214714D01*
X11547857Y-17319476D01*
X11938333Y-17109952D02*
X11766905Y-17367095D01*
X12195476Y-17119476D02*
X12214524Y-17119476D01*
X12233571Y-17129000D01*
X12243095Y-17138524D01*
X12252619Y-17157571D01*
X12262143Y-17195667D01*
X12262143Y-17243286D01*
X12252619Y-17281381D01*
X12243095Y-17300429D01*
X12233571Y-17309952D01*
X12214524Y-17319476D01*
X12195476Y-17319476D01*
X12176428Y-17309952D01*
X12166905Y-17300429D01*
X12157381Y-17281381D01*
X12147857Y-17243286D01*
X12147857Y-17195667D01*
X12157381Y-17157571D01*
X12166905Y-17138524D01*
X12176428Y-17129000D01*
X12195476Y-17119476D01*
X12347857Y-17300429D02*
X12357381Y-17309952D01*
X12347857Y-17319476D01*
X12338333Y-17309952D01*
X12347857Y-17300429D01*
X12347857Y-17319476D01*
X12481190Y-17119476D02*
X12500238Y-17119476D01*
X12519286Y-17129000D01*
X12528809Y-17138524D01*
X12538333Y-17157571D01*
X12547857Y-17195667D01*
X12547857Y-17243286D01*
X12538333Y-17281381D01*
X12528809Y-17300429D01*
X12519286Y-17309952D01*
X12500238Y-17319476D01*
X12481190Y-17319476D01*
X12462143Y-17309952D01*
X12452619Y-17300429D01*
X12443095Y-17281381D01*
X12433571Y-17243286D01*
X12433571Y-17195667D01*
X12443095Y-17157571D01*
X12452619Y-17138524D01*
X12462143Y-17129000D01*
X12481190Y-17119476D01*
X12614524Y-17119476D02*
X12738333Y-17119476D01*
X12671667Y-17195667D01*
X12700238Y-17195667D01*
X12719286Y-17205190D01*
X12728809Y-17214714D01*
X12738333Y-17233762D01*
X12738333Y-17281381D01*
X12728809Y-17300429D01*
X12719286Y-17309952D01*
X12700238Y-17319476D01*
X12643095Y-17319476D01*
X12624048Y-17309952D01*
X12614524Y-17300429D01*
X12833571Y-17319476D02*
X12871667Y-17319476D01*
X12890714Y-17309952D01*
X12900238Y-17300429D01*
X12919286Y-17271857D01*
X12928809Y-17233762D01*
X12928809Y-17157571D01*
X12919286Y-17138524D01*
X12909762Y-17129000D01*
X12890714Y-17119476D01*
X12852619Y-17119476D01*
X12833571Y-17129000D01*
X12824048Y-17138524D01*
X12814524Y-17157571D01*
X12814524Y-17205190D01*
X12824048Y-17224238D01*
X12833571Y-17233762D01*
X12852619Y-17243286D01*
X12890714Y-17243286D01*
X12909762Y-17233762D01*
X12919286Y-17224238D01*
X12928809Y-17205190D01*
X13100238Y-17186143D02*
X13100238Y-17319476D01*
X13052619Y-17109952D02*
X13005000Y-17252810D01*
X13128809Y-17252810D01*
X13195476Y-17119476D02*
X13195476Y-17157571D01*
X13271667Y-17119476D02*
X13271667Y-17157571D01*
X13566905Y-17395667D02*
X13557381Y-17386143D01*
X13538333Y-17357571D01*
X13528809Y-17338524D01*
X13519286Y-17309952D01*
X13509762Y-17262333D01*
X13509762Y-17224238D01*
X13519286Y-17176619D01*
X13528809Y-17148048D01*
X13538333Y-17129000D01*
X13557381Y-17100429D01*
X13566905Y-17090905D01*
X13652619Y-17319476D02*
X13690714Y-17319476D01*
X13709762Y-17309952D01*
X13719286Y-17300429D01*
X13738333Y-17271857D01*
X13747857Y-17233762D01*
X13747857Y-17157571D01*
X13738333Y-17138524D01*
X13728809Y-17129000D01*
X13709762Y-17119476D01*
X13671667Y-17119476D01*
X13652619Y-17129000D01*
X13643095Y-17138524D01*
X13633571Y-17157571D01*
X13633571Y-17205190D01*
X13643095Y-17224238D01*
X13652619Y-17233762D01*
X13671667Y-17243286D01*
X13709762Y-17243286D01*
X13728809Y-17233762D01*
X13738333Y-17224238D01*
X13747857Y-17205190D01*
X13985952Y-17319476D02*
X13985952Y-17119476D01*
X14071667Y-17319476D02*
X14071667Y-17214714D01*
X14062143Y-17195667D01*
X14043095Y-17186143D01*
X14014524Y-17186143D01*
X13995476Y-17195667D01*
X13985952Y-17205190D01*
X14195476Y-17319476D02*
X14176428Y-17309952D01*
X14166905Y-17300429D01*
X14157381Y-17281381D01*
X14157381Y-17224238D01*
X14166905Y-17205190D01*
X14176428Y-17195667D01*
X14195476Y-17186143D01*
X14224048Y-17186143D01*
X14243095Y-17195667D01*
X14252619Y-17205190D01*
X14262143Y-17224238D01*
X14262143Y-17281381D01*
X14252619Y-17300429D01*
X14243095Y-17309952D01*
X14224048Y-17319476D01*
X14195476Y-17319476D01*
X14376428Y-17319476D02*
X14357381Y-17309952D01*
X14347857Y-17290905D01*
X14347857Y-17119476D01*
X14528809Y-17309952D02*
X14509762Y-17319476D01*
X14471667Y-17319476D01*
X14452619Y-17309952D01*
X14443095Y-17290905D01*
X14443095Y-17214714D01*
X14452619Y-17195667D01*
X14471667Y-17186143D01*
X14509762Y-17186143D01*
X14528809Y-17195667D01*
X14538333Y-17214714D01*
X14538333Y-17233762D01*
X14443095Y-17252810D01*
X14614524Y-17309952D02*
X14633571Y-17319476D01*
X14671667Y-17319476D01*
X14690714Y-17309952D01*
X14700238Y-17290905D01*
X14700238Y-17281381D01*
X14690714Y-17262333D01*
X14671667Y-17252810D01*
X14643095Y-17252810D01*
X14624048Y-17243286D01*
X14614524Y-17224238D01*
X14614524Y-17214714D01*
X14624048Y-17195667D01*
X14643095Y-17186143D01*
X14671667Y-17186143D01*
X14690714Y-17195667D01*
X14938333Y-17243286D02*
X15090714Y-17243286D01*
X15014524Y-17319476D02*
X15014524Y-17167095D01*
X15319286Y-17119476D02*
X15443095Y-17119476D01*
X15376428Y-17195667D01*
X15405000Y-17195667D01*
X15424048Y-17205190D01*
X15433571Y-17214714D01*
X15443095Y-17233762D01*
X15443095Y-17281381D01*
X15433571Y-17300429D01*
X15424048Y-17309952D01*
X15405000Y-17319476D01*
X15347857Y-17319476D01*
X15328809Y-17309952D01*
X15319286Y-17300429D01*
X15671667Y-17309952D02*
X15690714Y-17319476D01*
X15728809Y-17319476D01*
X15747857Y-17309952D01*
X15757381Y-17290905D01*
X15757381Y-17281381D01*
X15747857Y-17262333D01*
X15728809Y-17252810D01*
X15700238Y-17252810D01*
X15681190Y-17243286D01*
X15671667Y-17224238D01*
X15671667Y-17214714D01*
X15681190Y-17195667D01*
X15700238Y-17186143D01*
X15728809Y-17186143D01*
X15747857Y-17195667D01*
X15871667Y-17319476D02*
X15852619Y-17309952D01*
X15843095Y-17290905D01*
X15843095Y-17119476D01*
X15976428Y-17319476D02*
X15957381Y-17309952D01*
X15947857Y-17300429D01*
X15938333Y-17281381D01*
X15938333Y-17224238D01*
X15947857Y-17205190D01*
X15957381Y-17195667D01*
X15976428Y-17186143D01*
X16005000Y-17186143D01*
X16024048Y-17195667D01*
X16033571Y-17205190D01*
X16043095Y-17224238D01*
X16043095Y-17281381D01*
X16033571Y-17300429D01*
X16024048Y-17309952D01*
X16005000Y-17319476D01*
X15976428Y-17319476D01*
X16100238Y-17186143D02*
X16176428Y-17186143D01*
X16128809Y-17119476D02*
X16128809Y-17290905D01*
X16138333Y-17309952D01*
X16157381Y-17319476D01*
X16176428Y-17319476D01*
X16233571Y-17309952D02*
X16252619Y-17319476D01*
X16290714Y-17319476D01*
X16309762Y-17309952D01*
X16319286Y-17290905D01*
X16319286Y-17281381D01*
X16309762Y-17262333D01*
X16290714Y-17252810D01*
X16262143Y-17252810D01*
X16243095Y-17243286D01*
X16233571Y-17224238D01*
X16233571Y-17214714D01*
X16243095Y-17195667D01*
X16262143Y-17186143D01*
X16290714Y-17186143D01*
X16309762Y-17195667D01*
X16385952Y-17395667D02*
X16395476Y-17386143D01*
X16414524Y-17357571D01*
X16424048Y-17338524D01*
X16433571Y-17309952D01*
X16443095Y-17262333D01*
X16443095Y-17224238D01*
X16433571Y-17176619D01*
X16424048Y-17148048D01*
X16414524Y-17129000D01*
X16395476Y-17100429D01*
X16385952Y-17090905D01*
D19*
X9885000Y-17438000D02*
X9995000Y-17548000D01*
X9995000Y-17438000D02*
X9885000Y-17548000D01*
X9978891Y-17531891D02*
X9978891Y-17454109D01*
X9901109Y-17454109D01*
X9901109Y-17531891D01*
X9978891Y-17531891D01*
D11*
X10357381Y-17583476D02*
X10243095Y-17583476D01*
X10300238Y-17583476D02*
X10300238Y-17383476D01*
X10281190Y-17412048D01*
X10262143Y-17431095D01*
X10243095Y-17440619D01*
X10443095Y-17564429D02*
X10452619Y-17573952D01*
X10443095Y-17583476D01*
X10433571Y-17573952D01*
X10443095Y-17564429D01*
X10443095Y-17583476D01*
X10643095Y-17583476D02*
X10528810Y-17583476D01*
X10585952Y-17583476D02*
X10585952Y-17383476D01*
X10566905Y-17412048D01*
X10547857Y-17431095D01*
X10528810Y-17440619D01*
X10766905Y-17383476D02*
X10785952Y-17383476D01*
X10805000Y-17393000D01*
X10814524Y-17402524D01*
X10824048Y-17421571D01*
X10833571Y-17459667D01*
X10833571Y-17507286D01*
X10824048Y-17545381D01*
X10814524Y-17564429D01*
X10805000Y-17573952D01*
X10785952Y-17583476D01*
X10766905Y-17583476D01*
X10747857Y-17573952D01*
X10738333Y-17564429D01*
X10728810Y-17545381D01*
X10719286Y-17507286D01*
X10719286Y-17459667D01*
X10728810Y-17421571D01*
X10738333Y-17402524D01*
X10747857Y-17393000D01*
X10766905Y-17383476D01*
X10957381Y-17383476D02*
X10976429Y-17383476D01*
X10995476Y-17393000D01*
X11005000Y-17402524D01*
X11014524Y-17421571D01*
X11024048Y-17459667D01*
X11024048Y-17507286D01*
X11014524Y-17545381D01*
X11005000Y-17564429D01*
X10995476Y-17573952D01*
X10976429Y-17583476D01*
X10957381Y-17583476D01*
X10938333Y-17573952D01*
X10928810Y-17564429D01*
X10919286Y-17545381D01*
X10909762Y-17507286D01*
X10909762Y-17459667D01*
X10919286Y-17421571D01*
X10928810Y-17402524D01*
X10938333Y-17393000D01*
X10957381Y-17383476D01*
X11109762Y-17583476D02*
X11109762Y-17450143D01*
X11109762Y-17469190D02*
X11119286Y-17459667D01*
X11138333Y-17450143D01*
X11166905Y-17450143D01*
X11185952Y-17459667D01*
X11195476Y-17478714D01*
X11195476Y-17583476D01*
X11195476Y-17478714D02*
X11205000Y-17459667D01*
X11224048Y-17450143D01*
X11252619Y-17450143D01*
X11271667Y-17459667D01*
X11281190Y-17478714D01*
X11281190Y-17583476D01*
X11376428Y-17583476D02*
X11376428Y-17450143D01*
X11376428Y-17469190D02*
X11385952Y-17459667D01*
X11405000Y-17450143D01*
X11433571Y-17450143D01*
X11452619Y-17459667D01*
X11462143Y-17478714D01*
X11462143Y-17583476D01*
X11462143Y-17478714D02*
X11471667Y-17459667D01*
X11490714Y-17450143D01*
X11519286Y-17450143D01*
X11538333Y-17459667D01*
X11547857Y-17478714D01*
X11547857Y-17583476D01*
X11938333Y-17373952D02*
X11766905Y-17631095D01*
X12195476Y-17383476D02*
X12214524Y-17383476D01*
X12233571Y-17393000D01*
X12243095Y-17402524D01*
X12252619Y-17421571D01*
X12262143Y-17459667D01*
X12262143Y-17507286D01*
X12252619Y-17545381D01*
X12243095Y-17564429D01*
X12233571Y-17573952D01*
X12214524Y-17583476D01*
X12195476Y-17583476D01*
X12176428Y-17573952D01*
X12166905Y-17564429D01*
X12157381Y-17545381D01*
X12147857Y-17507286D01*
X12147857Y-17459667D01*
X12157381Y-17421571D01*
X12166905Y-17402524D01*
X12176428Y-17393000D01*
X12195476Y-17383476D01*
X12347857Y-17564429D02*
X12357381Y-17573952D01*
X12347857Y-17583476D01*
X12338333Y-17573952D01*
X12347857Y-17564429D01*
X12347857Y-17583476D01*
X12481190Y-17383476D02*
X12500238Y-17383476D01*
X12519286Y-17393000D01*
X12528809Y-17402524D01*
X12538333Y-17421571D01*
X12547857Y-17459667D01*
X12547857Y-17507286D01*
X12538333Y-17545381D01*
X12528809Y-17564429D01*
X12519286Y-17573952D01*
X12500238Y-17583476D01*
X12481190Y-17583476D01*
X12462143Y-17573952D01*
X12452619Y-17564429D01*
X12443095Y-17545381D01*
X12433571Y-17507286D01*
X12433571Y-17459667D01*
X12443095Y-17421571D01*
X12452619Y-17402524D01*
X12462143Y-17393000D01*
X12481190Y-17383476D01*
X12719286Y-17450143D02*
X12719286Y-17583476D01*
X12671667Y-17373952D02*
X12624048Y-17516810D01*
X12747857Y-17516810D01*
X12805000Y-17383476D02*
X12928809Y-17383476D01*
X12862143Y-17459667D01*
X12890714Y-17459667D01*
X12909762Y-17469190D01*
X12919286Y-17478714D01*
X12928809Y-17497762D01*
X12928809Y-17545381D01*
X12919286Y-17564429D01*
X12909762Y-17573952D01*
X12890714Y-17583476D01*
X12833571Y-17583476D01*
X12814524Y-17573952D01*
X12805000Y-17564429D01*
X12995476Y-17383476D02*
X13119286Y-17383476D01*
X13052619Y-17459667D01*
X13081190Y-17459667D01*
X13100238Y-17469190D01*
X13109762Y-17478714D01*
X13119286Y-17497762D01*
X13119286Y-17545381D01*
X13109762Y-17564429D01*
X13100238Y-17573952D01*
X13081190Y-17583476D01*
X13024048Y-17583476D01*
X13005000Y-17573952D01*
X12995476Y-17564429D01*
X13195476Y-17383476D02*
X13195476Y-17421571D01*
X13271667Y-17383476D02*
X13271667Y-17421571D01*
X13566905Y-17659667D02*
X13557381Y-17650143D01*
X13538333Y-17621571D01*
X13528809Y-17602524D01*
X13519286Y-17573952D01*
X13509762Y-17526333D01*
X13509762Y-17488238D01*
X13519286Y-17440619D01*
X13528809Y-17412048D01*
X13538333Y-17393000D01*
X13557381Y-17364429D01*
X13566905Y-17354905D01*
X13624048Y-17383476D02*
X13747857Y-17383476D01*
X13681190Y-17459667D01*
X13709762Y-17459667D01*
X13728809Y-17469190D01*
X13738333Y-17478714D01*
X13747857Y-17497762D01*
X13747857Y-17545381D01*
X13738333Y-17564429D01*
X13728809Y-17573952D01*
X13709762Y-17583476D01*
X13652619Y-17583476D01*
X13633571Y-17573952D01*
X13624048Y-17564429D01*
X13985952Y-17583476D02*
X13985952Y-17383476D01*
X14071667Y-17583476D02*
X14071667Y-17478714D01*
X14062143Y-17459667D01*
X14043095Y-17450143D01*
X14014524Y-17450143D01*
X13995476Y-17459667D01*
X13985952Y-17469190D01*
X14195476Y-17583476D02*
X14176428Y-17573952D01*
X14166905Y-17564429D01*
X14157381Y-17545381D01*
X14157381Y-17488238D01*
X14166905Y-17469190D01*
X14176428Y-17459667D01*
X14195476Y-17450143D01*
X14224048Y-17450143D01*
X14243095Y-17459667D01*
X14252619Y-17469190D01*
X14262143Y-17488238D01*
X14262143Y-17545381D01*
X14252619Y-17564429D01*
X14243095Y-17573952D01*
X14224048Y-17583476D01*
X14195476Y-17583476D01*
X14376428Y-17583476D02*
X14357381Y-17573952D01*
X14347857Y-17554905D01*
X14347857Y-17383476D01*
X14528809Y-17573952D02*
X14509762Y-17583476D01*
X14471667Y-17583476D01*
X14452619Y-17573952D01*
X14443095Y-17554905D01*
X14443095Y-17478714D01*
X14452619Y-17459667D01*
X14471667Y-17450143D01*
X14509762Y-17450143D01*
X14528809Y-17459667D01*
X14538333Y-17478714D01*
X14538333Y-17497762D01*
X14443095Y-17516810D01*
X14614524Y-17573952D02*
X14633571Y-17583476D01*
X14671667Y-17583476D01*
X14690714Y-17573952D01*
X14700238Y-17554905D01*
X14700238Y-17545381D01*
X14690714Y-17526333D01*
X14671667Y-17516810D01*
X14643095Y-17516810D01*
X14624048Y-17507286D01*
X14614524Y-17488238D01*
X14614524Y-17478714D01*
X14624048Y-17459667D01*
X14643095Y-17450143D01*
X14671667Y-17450143D01*
X14690714Y-17459667D01*
X14766905Y-17659667D02*
X14776428Y-17650143D01*
X14795476Y-17621571D01*
X14805000Y-17602524D01*
X14814524Y-17573952D01*
X14824048Y-17526333D01*
X14824048Y-17488238D01*
X14814524Y-17440619D01*
X14805000Y-17412048D01*
X14795476Y-17393000D01*
X14776428Y-17364429D01*
X14766905Y-17354905D01*
D20*
X9875000Y-17697000D02*
X9995000Y-17817000D01*
X9995000Y-17697000D02*
X9875000Y-17817000D01*
X9935000Y-17817000D02*
X9995000Y-17757000D01*
X9935000Y-17697000D01*
X9875000Y-17757000D01*
X9935000Y-17817000D01*
D11*
X10357381Y-17847476D02*
X10243095Y-17847476D01*
X10300238Y-17847476D02*
X10300238Y-17647476D01*
X10281190Y-17676048D01*
X10262143Y-17695095D01*
X10243095Y-17704619D01*
X10443095Y-17828429D02*
X10452619Y-17837952D01*
X10443095Y-17847476D01*
X10433571Y-17837952D01*
X10443095Y-17828429D01*
X10443095Y-17847476D01*
X10528810Y-17666524D02*
X10538333Y-17657000D01*
X10557381Y-17647476D01*
X10605000Y-17647476D01*
X10624048Y-17657000D01*
X10633571Y-17666524D01*
X10643095Y-17685571D01*
X10643095Y-17704619D01*
X10633571Y-17733190D01*
X10519286Y-17847476D01*
X10643095Y-17847476D01*
X10766905Y-17647476D02*
X10785952Y-17647476D01*
X10805000Y-17657000D01*
X10814524Y-17666524D01*
X10824048Y-17685571D01*
X10833571Y-17723667D01*
X10833571Y-17771286D01*
X10824048Y-17809381D01*
X10814524Y-17828429D01*
X10805000Y-17837952D01*
X10785952Y-17847476D01*
X10766905Y-17847476D01*
X10747857Y-17837952D01*
X10738333Y-17828429D01*
X10728810Y-17809381D01*
X10719286Y-17771286D01*
X10719286Y-17723667D01*
X10728810Y-17685571D01*
X10738333Y-17666524D01*
X10747857Y-17657000D01*
X10766905Y-17647476D01*
X10957381Y-17647476D02*
X10976429Y-17647476D01*
X10995476Y-17657000D01*
X11005000Y-17666524D01*
X11014524Y-17685571D01*
X11024048Y-17723667D01*
X11024048Y-17771286D01*
X11014524Y-17809381D01*
X11005000Y-17828429D01*
X10995476Y-17837952D01*
X10976429Y-17847476D01*
X10957381Y-17847476D01*
X10938333Y-17837952D01*
X10928810Y-17828429D01*
X10919286Y-17809381D01*
X10909762Y-17771286D01*
X10909762Y-17723667D01*
X10919286Y-17685571D01*
X10928810Y-17666524D01*
X10938333Y-17657000D01*
X10957381Y-17647476D01*
X11109762Y-17847476D02*
X11109762Y-17714143D01*
X11109762Y-17733190D02*
X11119286Y-17723667D01*
X11138333Y-17714143D01*
X11166905Y-17714143D01*
X11185952Y-17723667D01*
X11195476Y-17742714D01*
X11195476Y-17847476D01*
X11195476Y-17742714D02*
X11205000Y-17723667D01*
X11224048Y-17714143D01*
X11252619Y-17714143D01*
X11271667Y-17723667D01*
X11281190Y-17742714D01*
X11281190Y-17847476D01*
X11376428Y-17847476D02*
X11376428Y-17714143D01*
X11376428Y-17733190D02*
X11385952Y-17723667D01*
X11405000Y-17714143D01*
X11433571Y-17714143D01*
X11452619Y-17723667D01*
X11462143Y-17742714D01*
X11462143Y-17847476D01*
X11462143Y-17742714D02*
X11471667Y-17723667D01*
X11490714Y-17714143D01*
X11519286Y-17714143D01*
X11538333Y-17723667D01*
X11547857Y-17742714D01*
X11547857Y-17847476D01*
X11938333Y-17637952D02*
X11766905Y-17895095D01*
X12195476Y-17647476D02*
X12214524Y-17647476D01*
X12233571Y-17657000D01*
X12243095Y-17666524D01*
X12252619Y-17685571D01*
X12262143Y-17723667D01*
X12262143Y-17771286D01*
X12252619Y-17809381D01*
X12243095Y-17828429D01*
X12233571Y-17837952D01*
X12214524Y-17847476D01*
X12195476Y-17847476D01*
X12176428Y-17837952D01*
X12166905Y-17828429D01*
X12157381Y-17809381D01*
X12147857Y-17771286D01*
X12147857Y-17723667D01*
X12157381Y-17685571D01*
X12166905Y-17666524D01*
X12176428Y-17657000D01*
X12195476Y-17647476D01*
X12347857Y-17828429D02*
X12357381Y-17837952D01*
X12347857Y-17847476D01*
X12338333Y-17837952D01*
X12347857Y-17828429D01*
X12347857Y-17847476D01*
X12481190Y-17647476D02*
X12500238Y-17647476D01*
X12519286Y-17657000D01*
X12528809Y-17666524D01*
X12538333Y-17685571D01*
X12547857Y-17723667D01*
X12547857Y-17771286D01*
X12538333Y-17809381D01*
X12528809Y-17828429D01*
X12519286Y-17837952D01*
X12500238Y-17847476D01*
X12481190Y-17847476D01*
X12462143Y-17837952D01*
X12452619Y-17828429D01*
X12443095Y-17809381D01*
X12433571Y-17771286D01*
X12433571Y-17723667D01*
X12443095Y-17685571D01*
X12452619Y-17666524D01*
X12462143Y-17657000D01*
X12481190Y-17647476D01*
X12719286Y-17714143D02*
X12719286Y-17847476D01*
X12671667Y-17637952D02*
X12624048Y-17780810D01*
X12747857Y-17780810D01*
X12805000Y-17647476D02*
X12938333Y-17647476D01*
X12852619Y-17847476D01*
X13005000Y-17666524D02*
X13014524Y-17657000D01*
X13033571Y-17647476D01*
X13081190Y-17647476D01*
X13100238Y-17657000D01*
X13109762Y-17666524D01*
X13119286Y-17685571D01*
X13119286Y-17704619D01*
X13109762Y-17733190D01*
X12995476Y-17847476D01*
X13119286Y-17847476D01*
X13195476Y-17647476D02*
X13195476Y-17685571D01*
X13271667Y-17647476D02*
X13271667Y-17685571D01*
X13566905Y-17923667D02*
X13557381Y-17914143D01*
X13538333Y-17885571D01*
X13528809Y-17866524D01*
X13519286Y-17837952D01*
X13509762Y-17790333D01*
X13509762Y-17752238D01*
X13519286Y-17704619D01*
X13528809Y-17676048D01*
X13538333Y-17657000D01*
X13557381Y-17628429D01*
X13566905Y-17618905D01*
X13633571Y-17666524D02*
X13643095Y-17657000D01*
X13662143Y-17647476D01*
X13709762Y-17647476D01*
X13728809Y-17657000D01*
X13738333Y-17666524D01*
X13747857Y-17685571D01*
X13747857Y-17704619D01*
X13738333Y-17733190D01*
X13624048Y-17847476D01*
X13747857Y-17847476D01*
X13985952Y-17847476D02*
X13985952Y-17647476D01*
X14071667Y-17847476D02*
X14071667Y-17742714D01*
X14062143Y-17723667D01*
X14043095Y-17714143D01*
X14014524Y-17714143D01*
X13995476Y-17723667D01*
X13985952Y-17733190D01*
X14195476Y-17847476D02*
X14176428Y-17837952D01*
X14166905Y-17828429D01*
X14157381Y-17809381D01*
X14157381Y-17752238D01*
X14166905Y-17733190D01*
X14176428Y-17723667D01*
X14195476Y-17714143D01*
X14224048Y-17714143D01*
X14243095Y-17723667D01*
X14252619Y-17733190D01*
X14262143Y-17752238D01*
X14262143Y-17809381D01*
X14252619Y-17828429D01*
X14243095Y-17837952D01*
X14224048Y-17847476D01*
X14195476Y-17847476D01*
X14376428Y-17847476D02*
X14357381Y-17837952D01*
X14347857Y-17818905D01*
X14347857Y-17647476D01*
X14528809Y-17837952D02*
X14509762Y-17847476D01*
X14471667Y-17847476D01*
X14452619Y-17837952D01*
X14443095Y-17818905D01*
X14443095Y-17742714D01*
X14452619Y-17723667D01*
X14471667Y-17714143D01*
X14509762Y-17714143D01*
X14528809Y-17723667D01*
X14538333Y-17742714D01*
X14538333Y-17761762D01*
X14443095Y-17780810D01*
X14614524Y-17837952D02*
X14633571Y-17847476D01*
X14671667Y-17847476D01*
X14690714Y-17837952D01*
X14700238Y-17818905D01*
X14700238Y-17809381D01*
X14690714Y-17790333D01*
X14671667Y-17780810D01*
X14643095Y-17780810D01*
X14624048Y-17771286D01*
X14614524Y-17752238D01*
X14614524Y-17742714D01*
X14624048Y-17723667D01*
X14643095Y-17714143D01*
X14671667Y-17714143D01*
X14690714Y-17723667D01*
X14766905Y-17923667D02*
X14776428Y-17914143D01*
X14795476Y-17885571D01*
X14805000Y-17866524D01*
X14814524Y-17837952D01*
X14824048Y-17790333D01*
X14824048Y-17752238D01*
X14814524Y-17704619D01*
X14805000Y-17676048D01*
X14795476Y-17657000D01*
X14776428Y-17628429D01*
X14766905Y-17618905D01*
D21*
X9920000Y-17946000D02*
X9920000Y-18096000D01*
X9845000Y-18021000D02*
X9995000Y-18021000D01*
X9995000Y-18021000D02*
G75*
G03*
X9995000Y-18021000I-75000J0D01*
G01*
D11*
X10357381Y-18111476D02*
X10243095Y-18111476D01*
X10300238Y-18111476D02*
X10300238Y-17911476D01*
X10281190Y-17940048D01*
X10262143Y-17959095D01*
X10243095Y-17968619D01*
X10443095Y-18092429D02*
X10452619Y-18101952D01*
X10443095Y-18111476D01*
X10433571Y-18101952D01*
X10443095Y-18092429D01*
X10443095Y-18111476D01*
X10633571Y-17911476D02*
X10538333Y-17911476D01*
X10528810Y-18006714D01*
X10538333Y-17997190D01*
X10557381Y-17987667D01*
X10605000Y-17987667D01*
X10624048Y-17997190D01*
X10633571Y-18006714D01*
X10643095Y-18025762D01*
X10643095Y-18073381D01*
X10633571Y-18092429D01*
X10624048Y-18101952D01*
X10605000Y-18111476D01*
X10557381Y-18111476D01*
X10538333Y-18101952D01*
X10528810Y-18092429D01*
X10766905Y-17911476D02*
X10785952Y-17911476D01*
X10805000Y-17921000D01*
X10814524Y-17930524D01*
X10824048Y-17949571D01*
X10833571Y-17987667D01*
X10833571Y-18035286D01*
X10824048Y-18073381D01*
X10814524Y-18092429D01*
X10805000Y-18101952D01*
X10785952Y-18111476D01*
X10766905Y-18111476D01*
X10747857Y-18101952D01*
X10738333Y-18092429D01*
X10728810Y-18073381D01*
X10719286Y-18035286D01*
X10719286Y-17987667D01*
X10728810Y-17949571D01*
X10738333Y-17930524D01*
X10747857Y-17921000D01*
X10766905Y-17911476D01*
X10957381Y-17911476D02*
X10976429Y-17911476D01*
X10995476Y-17921000D01*
X11005000Y-17930524D01*
X11014524Y-17949571D01*
X11024048Y-17987667D01*
X11024048Y-18035286D01*
X11014524Y-18073381D01*
X11005000Y-18092429D01*
X10995476Y-18101952D01*
X10976429Y-18111476D01*
X10957381Y-18111476D01*
X10938333Y-18101952D01*
X10928810Y-18092429D01*
X10919286Y-18073381D01*
X10909762Y-18035286D01*
X10909762Y-17987667D01*
X10919286Y-17949571D01*
X10928810Y-17930524D01*
X10938333Y-17921000D01*
X10957381Y-17911476D01*
X11109762Y-18111476D02*
X11109762Y-17978143D01*
X11109762Y-17997190D02*
X11119286Y-17987667D01*
X11138333Y-17978143D01*
X11166905Y-17978143D01*
X11185952Y-17987667D01*
X11195476Y-18006714D01*
X11195476Y-18111476D01*
X11195476Y-18006714D02*
X11205000Y-17987667D01*
X11224048Y-17978143D01*
X11252619Y-17978143D01*
X11271667Y-17987667D01*
X11281190Y-18006714D01*
X11281190Y-18111476D01*
X11376428Y-18111476D02*
X11376428Y-17978143D01*
X11376428Y-17997190D02*
X11385952Y-17987667D01*
X11405000Y-17978143D01*
X11433571Y-17978143D01*
X11452619Y-17987667D01*
X11462143Y-18006714D01*
X11462143Y-18111476D01*
X11462143Y-18006714D02*
X11471667Y-17987667D01*
X11490714Y-17978143D01*
X11519286Y-17978143D01*
X11538333Y-17987667D01*
X11547857Y-18006714D01*
X11547857Y-18111476D01*
X11938333Y-17901952D02*
X11766905Y-18159095D01*
X12195476Y-17911476D02*
X12214524Y-17911476D01*
X12233571Y-17921000D01*
X12243095Y-17930524D01*
X12252619Y-17949571D01*
X12262143Y-17987667D01*
X12262143Y-18035286D01*
X12252619Y-18073381D01*
X12243095Y-18092429D01*
X12233571Y-18101952D01*
X12214524Y-18111476D01*
X12195476Y-18111476D01*
X12176428Y-18101952D01*
X12166905Y-18092429D01*
X12157381Y-18073381D01*
X12147857Y-18035286D01*
X12147857Y-17987667D01*
X12157381Y-17949571D01*
X12166905Y-17930524D01*
X12176428Y-17921000D01*
X12195476Y-17911476D01*
X12347857Y-18092429D02*
X12357381Y-18101952D01*
X12347857Y-18111476D01*
X12338333Y-18101952D01*
X12347857Y-18092429D01*
X12347857Y-18111476D01*
X12481190Y-17911476D02*
X12500238Y-17911476D01*
X12519286Y-17921000D01*
X12528809Y-17930524D01*
X12538333Y-17949571D01*
X12547857Y-17987667D01*
X12547857Y-18035286D01*
X12538333Y-18073381D01*
X12528809Y-18092429D01*
X12519286Y-18101952D01*
X12500238Y-18111476D01*
X12481190Y-18111476D01*
X12462143Y-18101952D01*
X12452619Y-18092429D01*
X12443095Y-18073381D01*
X12433571Y-18035286D01*
X12433571Y-17987667D01*
X12443095Y-17949571D01*
X12452619Y-17930524D01*
X12462143Y-17921000D01*
X12481190Y-17911476D01*
X12728809Y-17911476D02*
X12633571Y-17911476D01*
X12624048Y-18006714D01*
X12633571Y-17997190D01*
X12652619Y-17987667D01*
X12700238Y-17987667D01*
X12719286Y-17997190D01*
X12728809Y-18006714D01*
X12738333Y-18025762D01*
X12738333Y-18073381D01*
X12728809Y-18092429D01*
X12719286Y-18101952D01*
X12700238Y-18111476D01*
X12652619Y-18111476D01*
X12633571Y-18101952D01*
X12624048Y-18092429D01*
X12833571Y-18111476D02*
X12871667Y-18111476D01*
X12890714Y-18101952D01*
X12900238Y-18092429D01*
X12919286Y-18063857D01*
X12928809Y-18025762D01*
X12928809Y-17949571D01*
X12919286Y-17930524D01*
X12909762Y-17921000D01*
X12890714Y-17911476D01*
X12852619Y-17911476D01*
X12833571Y-17921000D01*
X12824048Y-17930524D01*
X12814524Y-17949571D01*
X12814524Y-17997190D01*
X12824048Y-18016238D01*
X12833571Y-18025762D01*
X12852619Y-18035286D01*
X12890714Y-18035286D01*
X12909762Y-18025762D01*
X12919286Y-18016238D01*
X12928809Y-17997190D01*
X13119286Y-18111476D02*
X13005000Y-18111476D01*
X13062143Y-18111476D02*
X13062143Y-17911476D01*
X13043095Y-17940048D01*
X13024048Y-17959095D01*
X13005000Y-17968619D01*
X13195476Y-17911476D02*
X13195476Y-17949571D01*
X13271667Y-17911476D02*
X13271667Y-17949571D01*
X13566905Y-18187667D02*
X13557381Y-18178143D01*
X13538333Y-18149571D01*
X13528809Y-18130524D01*
X13519286Y-18101952D01*
X13509762Y-18054333D01*
X13509762Y-18016238D01*
X13519286Y-17968619D01*
X13528809Y-17940048D01*
X13538333Y-17921000D01*
X13557381Y-17892429D01*
X13566905Y-17882905D01*
X13671667Y-17997190D02*
X13652619Y-17987667D01*
X13643095Y-17978143D01*
X13633571Y-17959095D01*
X13633571Y-17949571D01*
X13643095Y-17930524D01*
X13652619Y-17921000D01*
X13671667Y-17911476D01*
X13709762Y-17911476D01*
X13728809Y-17921000D01*
X13738333Y-17930524D01*
X13747857Y-17949571D01*
X13747857Y-17959095D01*
X13738333Y-17978143D01*
X13728809Y-17987667D01*
X13709762Y-17997190D01*
X13671667Y-17997190D01*
X13652619Y-18006714D01*
X13643095Y-18016238D01*
X13633571Y-18035286D01*
X13633571Y-18073381D01*
X13643095Y-18092429D01*
X13652619Y-18101952D01*
X13671667Y-18111476D01*
X13709762Y-18111476D01*
X13728809Y-18101952D01*
X13738333Y-18092429D01*
X13747857Y-18073381D01*
X13747857Y-18035286D01*
X13738333Y-18016238D01*
X13728809Y-18006714D01*
X13709762Y-17997190D01*
X13985952Y-18111476D02*
X13985952Y-17911476D01*
X14071667Y-18111476D02*
X14071667Y-18006714D01*
X14062143Y-17987667D01*
X14043095Y-17978143D01*
X14014524Y-17978143D01*
X13995476Y-17987667D01*
X13985952Y-17997190D01*
X14195476Y-18111476D02*
X14176428Y-18101952D01*
X14166905Y-18092429D01*
X14157381Y-18073381D01*
X14157381Y-18016238D01*
X14166905Y-17997190D01*
X14176428Y-17987667D01*
X14195476Y-17978143D01*
X14224048Y-17978143D01*
X14243095Y-17987667D01*
X14252619Y-17997190D01*
X14262143Y-18016238D01*
X14262143Y-18073381D01*
X14252619Y-18092429D01*
X14243095Y-18101952D01*
X14224048Y-18111476D01*
X14195476Y-18111476D01*
X14376428Y-18111476D02*
X14357381Y-18101952D01*
X14347857Y-18082905D01*
X14347857Y-17911476D01*
X14528809Y-18101952D02*
X14509762Y-18111476D01*
X14471667Y-18111476D01*
X14452619Y-18101952D01*
X14443095Y-18082905D01*
X14443095Y-18006714D01*
X14452619Y-17987667D01*
X14471667Y-17978143D01*
X14509762Y-17978143D01*
X14528809Y-17987667D01*
X14538333Y-18006714D01*
X14538333Y-18025762D01*
X14443095Y-18044810D01*
X14614524Y-18101952D02*
X14633571Y-18111476D01*
X14671667Y-18111476D01*
X14690714Y-18101952D01*
X14700238Y-18082905D01*
X14700238Y-18073381D01*
X14690714Y-18054333D01*
X14671667Y-18044810D01*
X14643095Y-18044810D01*
X14624048Y-18035286D01*
X14614524Y-18016238D01*
X14614524Y-18006714D01*
X14624048Y-17987667D01*
X14643095Y-17978143D01*
X14671667Y-17978143D01*
X14690714Y-17987667D01*
X14766905Y-18187667D02*
X14776428Y-18178143D01*
X14795476Y-18149571D01*
X14805000Y-18130524D01*
X14814524Y-18101952D01*
X14824048Y-18054333D01*
X14824048Y-18016238D01*
X14814524Y-17968619D01*
X14805000Y-17940048D01*
X14795476Y-17921000D01*
X14776428Y-17892429D01*
X14766905Y-17882905D01*
D22*
X9971569Y-18347569D02*
X9971569Y-18234431D01*
X9858431Y-18234431D01*
X9858431Y-18347569D01*
X9971569Y-18347569D01*
X9995000Y-18291000D02*
G75*
G03*
X9995000Y-18291000I-80000J0D01*
G01*
D11*
X10357381Y-18381476D02*
X10243095Y-18381476D01*
X10300238Y-18381476D02*
X10300238Y-18181476D01*
X10281190Y-18210048D01*
X10262143Y-18229095D01*
X10243095Y-18238619D01*
X10443095Y-18362429D02*
X10452619Y-18371952D01*
X10443095Y-18381476D01*
X10433571Y-18371952D01*
X10443095Y-18362429D01*
X10443095Y-18381476D01*
X10624048Y-18181476D02*
X10585952Y-18181476D01*
X10566905Y-18191000D01*
X10557381Y-18200524D01*
X10538333Y-18229095D01*
X10528810Y-18267190D01*
X10528810Y-18343381D01*
X10538333Y-18362429D01*
X10547857Y-18371952D01*
X10566905Y-18381476D01*
X10605000Y-18381476D01*
X10624048Y-18371952D01*
X10633571Y-18362429D01*
X10643095Y-18343381D01*
X10643095Y-18295762D01*
X10633571Y-18276714D01*
X10624048Y-18267190D01*
X10605000Y-18257667D01*
X10566905Y-18257667D01*
X10547857Y-18267190D01*
X10538333Y-18276714D01*
X10528810Y-18295762D01*
X10766905Y-18181476D02*
X10785952Y-18181476D01*
X10805000Y-18191000D01*
X10814524Y-18200524D01*
X10824048Y-18219571D01*
X10833571Y-18257667D01*
X10833571Y-18305286D01*
X10824048Y-18343381D01*
X10814524Y-18362429D01*
X10805000Y-18371952D01*
X10785952Y-18381476D01*
X10766905Y-18381476D01*
X10747857Y-18371952D01*
X10738333Y-18362429D01*
X10728810Y-18343381D01*
X10719286Y-18305286D01*
X10719286Y-18257667D01*
X10728810Y-18219571D01*
X10738333Y-18200524D01*
X10747857Y-18191000D01*
X10766905Y-18181476D01*
X10957381Y-18181476D02*
X10976429Y-18181476D01*
X10995476Y-18191000D01*
X11005000Y-18200524D01*
X11014524Y-18219571D01*
X11024048Y-18257667D01*
X11024048Y-18305286D01*
X11014524Y-18343381D01*
X11005000Y-18362429D01*
X10995476Y-18371952D01*
X10976429Y-18381476D01*
X10957381Y-18381476D01*
X10938333Y-18371952D01*
X10928810Y-18362429D01*
X10919286Y-18343381D01*
X10909762Y-18305286D01*
X10909762Y-18257667D01*
X10919286Y-18219571D01*
X10928810Y-18200524D01*
X10938333Y-18191000D01*
X10957381Y-18181476D01*
X11109762Y-18381476D02*
X11109762Y-18248143D01*
X11109762Y-18267190D02*
X11119286Y-18257667D01*
X11138333Y-18248143D01*
X11166905Y-18248143D01*
X11185952Y-18257667D01*
X11195476Y-18276714D01*
X11195476Y-18381476D01*
X11195476Y-18276714D02*
X11205000Y-18257667D01*
X11224048Y-18248143D01*
X11252619Y-18248143D01*
X11271667Y-18257667D01*
X11281190Y-18276714D01*
X11281190Y-18381476D01*
X11376428Y-18381476D02*
X11376428Y-18248143D01*
X11376428Y-18267190D02*
X11385952Y-18257667D01*
X11405000Y-18248143D01*
X11433571Y-18248143D01*
X11452619Y-18257667D01*
X11462143Y-18276714D01*
X11462143Y-18381476D01*
X11462143Y-18276714D02*
X11471667Y-18257667D01*
X11490714Y-18248143D01*
X11519286Y-18248143D01*
X11538333Y-18257667D01*
X11547857Y-18276714D01*
X11547857Y-18381476D01*
X11938333Y-18171952D02*
X11766905Y-18429095D01*
X12195476Y-18181476D02*
X12214524Y-18181476D01*
X12233571Y-18191000D01*
X12243095Y-18200524D01*
X12252619Y-18219571D01*
X12262143Y-18257667D01*
X12262143Y-18305286D01*
X12252619Y-18343381D01*
X12243095Y-18362429D01*
X12233571Y-18371952D01*
X12214524Y-18381476D01*
X12195476Y-18381476D01*
X12176428Y-18371952D01*
X12166905Y-18362429D01*
X12157381Y-18343381D01*
X12147857Y-18305286D01*
X12147857Y-18257667D01*
X12157381Y-18219571D01*
X12166905Y-18200524D01*
X12176428Y-18191000D01*
X12195476Y-18181476D01*
X12347857Y-18362429D02*
X12357381Y-18371952D01*
X12347857Y-18381476D01*
X12338333Y-18371952D01*
X12347857Y-18362429D01*
X12347857Y-18381476D01*
X12481190Y-18181476D02*
X12500238Y-18181476D01*
X12519286Y-18191000D01*
X12528809Y-18200524D01*
X12538333Y-18219571D01*
X12547857Y-18257667D01*
X12547857Y-18305286D01*
X12538333Y-18343381D01*
X12528809Y-18362429D01*
X12519286Y-18371952D01*
X12500238Y-18381476D01*
X12481190Y-18381476D01*
X12462143Y-18371952D01*
X12452619Y-18362429D01*
X12443095Y-18343381D01*
X12433571Y-18305286D01*
X12433571Y-18257667D01*
X12443095Y-18219571D01*
X12452619Y-18200524D01*
X12462143Y-18191000D01*
X12481190Y-18181476D01*
X12719286Y-18181476D02*
X12681190Y-18181476D01*
X12662143Y-18191000D01*
X12652619Y-18200524D01*
X12633571Y-18229095D01*
X12624048Y-18267190D01*
X12624048Y-18343381D01*
X12633571Y-18362429D01*
X12643095Y-18371952D01*
X12662143Y-18381476D01*
X12700238Y-18381476D01*
X12719286Y-18371952D01*
X12728809Y-18362429D01*
X12738333Y-18343381D01*
X12738333Y-18295762D01*
X12728809Y-18276714D01*
X12719286Y-18267190D01*
X12700238Y-18257667D01*
X12662143Y-18257667D01*
X12643095Y-18267190D01*
X12633571Y-18276714D01*
X12624048Y-18295762D01*
X12805000Y-18181476D02*
X12928809Y-18181476D01*
X12862143Y-18257667D01*
X12890714Y-18257667D01*
X12909762Y-18267190D01*
X12919286Y-18276714D01*
X12928809Y-18295762D01*
X12928809Y-18343381D01*
X12919286Y-18362429D01*
X12909762Y-18371952D01*
X12890714Y-18381476D01*
X12833571Y-18381476D01*
X12814524Y-18371952D01*
X12805000Y-18362429D01*
X13052619Y-18181476D02*
X13071667Y-18181476D01*
X13090714Y-18191000D01*
X13100238Y-18200524D01*
X13109762Y-18219571D01*
X13119286Y-18257667D01*
X13119286Y-18305286D01*
X13109762Y-18343381D01*
X13100238Y-18362429D01*
X13090714Y-18371952D01*
X13071667Y-18381476D01*
X13052619Y-18381476D01*
X13033571Y-18371952D01*
X13024048Y-18362429D01*
X13014524Y-18343381D01*
X13005000Y-18305286D01*
X13005000Y-18257667D01*
X13014524Y-18219571D01*
X13024048Y-18200524D01*
X13033571Y-18191000D01*
X13052619Y-18181476D01*
X13195476Y-18181476D02*
X13195476Y-18219571D01*
X13271667Y-18181476D02*
X13271667Y-18219571D01*
X13566905Y-18457667D02*
X13557381Y-18448143D01*
X13538333Y-18419571D01*
X13528809Y-18400524D01*
X13519286Y-18371952D01*
X13509762Y-18324333D01*
X13509762Y-18286238D01*
X13519286Y-18238619D01*
X13528809Y-18210048D01*
X13538333Y-18191000D01*
X13557381Y-18162429D01*
X13566905Y-18152905D01*
X13671667Y-18267190D02*
X13652619Y-18257667D01*
X13643095Y-18248143D01*
X13633571Y-18229095D01*
X13633571Y-18219571D01*
X13643095Y-18200524D01*
X13652619Y-18191000D01*
X13671667Y-18181476D01*
X13709762Y-18181476D01*
X13728809Y-18191000D01*
X13738333Y-18200524D01*
X13747857Y-18219571D01*
X13747857Y-18229095D01*
X13738333Y-18248143D01*
X13728809Y-18257667D01*
X13709762Y-18267190D01*
X13671667Y-18267190D01*
X13652619Y-18276714D01*
X13643095Y-18286238D01*
X13633571Y-18305286D01*
X13633571Y-18343381D01*
X13643095Y-18362429D01*
X13652619Y-18371952D01*
X13671667Y-18381476D01*
X13709762Y-18381476D01*
X13728809Y-18371952D01*
X13738333Y-18362429D01*
X13747857Y-18343381D01*
X13747857Y-18305286D01*
X13738333Y-18286238D01*
X13728809Y-18276714D01*
X13709762Y-18267190D01*
X13985952Y-18381476D02*
X13985952Y-18181476D01*
X14071667Y-18381476D02*
X14071667Y-18276714D01*
X14062143Y-18257667D01*
X14043095Y-18248143D01*
X14014524Y-18248143D01*
X13995476Y-18257667D01*
X13985952Y-18267190D01*
X14195476Y-18381476D02*
X14176428Y-18371952D01*
X14166905Y-18362429D01*
X14157381Y-18343381D01*
X14157381Y-18286238D01*
X14166905Y-18267190D01*
X14176428Y-18257667D01*
X14195476Y-18248143D01*
X14224048Y-18248143D01*
X14243095Y-18257667D01*
X14252619Y-18267190D01*
X14262143Y-18286238D01*
X14262143Y-18343381D01*
X14252619Y-18362429D01*
X14243095Y-18371952D01*
X14224048Y-18381476D01*
X14195476Y-18381476D01*
X14376428Y-18381476D02*
X14357381Y-18371952D01*
X14347857Y-18352905D01*
X14347857Y-18181476D01*
X14528809Y-18371952D02*
X14509762Y-18381476D01*
X14471667Y-18381476D01*
X14452619Y-18371952D01*
X14443095Y-18352905D01*
X14443095Y-18276714D01*
X14452619Y-18257667D01*
X14471667Y-18248143D01*
X14509762Y-18248143D01*
X14528809Y-18257667D01*
X14538333Y-18276714D01*
X14538333Y-18295762D01*
X14443095Y-18314810D01*
X14614524Y-18371952D02*
X14633571Y-18381476D01*
X14671667Y-18381476D01*
X14690714Y-18371952D01*
X14700238Y-18352905D01*
X14700238Y-18343381D01*
X14690714Y-18324333D01*
X14671667Y-18314810D01*
X14643095Y-18314810D01*
X14624048Y-18305286D01*
X14614524Y-18286238D01*
X14614524Y-18276714D01*
X14624048Y-18257667D01*
X14643095Y-18248143D01*
X14671667Y-18248143D01*
X14690714Y-18257667D01*
X14766905Y-18457667D02*
X14776428Y-18448143D01*
X14795476Y-18419571D01*
X14805000Y-18400524D01*
X14814524Y-18371952D01*
X14824048Y-18324333D01*
X14824048Y-18286238D01*
X14814524Y-18238619D01*
X14805000Y-18210048D01*
X14795476Y-18191000D01*
X14776428Y-18162429D01*
X14766905Y-18152905D01*
M02*
